<svg width="385" height="194" viewBox="0 0 385 194" fill="none" xmlns="http://www.w3.org/2000/svg">
<rect x="1.5" y="141.5" width="377" height="51" rx="14.5" fill="white"/>
<rect x="1.5" y="141.5" width="377" height="51" rx="14.5" stroke="#9B9B9B" stroke-width="3"/>
<path d="M111.392 160.4H113.921L118.502 173H116.171L115.361 170.768H109.961L109.151 173H106.82L111.392 160.4ZM110.762 168.572H114.551L112.652 163.379L110.762 168.572ZM121.874 177.5H119.678V164H121.874V165.143C122.168 164.735 122.528 164.405 122.954 164.153C123.386 163.895 123.89 163.766 124.466 163.766C125.126 163.766 125.741 163.889 126.311 164.135C126.881 164.381 127.382 164.723 127.814 165.161C128.252 165.593 128.591 166.094 128.831 166.664C129.077 167.234 129.2 167.846 129.2 168.5C129.2 169.154 129.077 169.769 128.831 170.345C128.591 170.921 128.252 171.428 127.814 171.866C127.382 172.298 126.881 172.637 126.311 172.883C125.741 173.129 125.126 173.252 124.466 173.252C123.89 173.252 123.386 173.126 122.954 172.874C122.528 172.616 122.168 172.283 121.874 171.875V177.5ZM124.439 165.881C123.983 165.881 123.575 166.001 123.215 166.241C122.855 166.475 122.573 166.79 122.369 167.186C122.165 167.582 122.063 168.02 122.063 168.5C122.063 168.98 122.165 169.421 122.369 169.823C122.573 170.219 122.855 170.537 123.215 170.777C123.575 171.011 123.983 171.128 124.439 171.128C124.901 171.128 125.324 171.011 125.708 170.777C126.092 170.543 126.398 170.228 126.626 169.832C126.854 169.43 126.968 168.986 126.968 168.5C126.968 168.02 126.854 167.582 126.626 167.186C126.398 166.79 126.092 166.475 125.708 166.241C125.33 166.001 124.907 165.881 124.439 165.881ZM132.807 177.5H130.611V164H132.807V165.143C133.101 164.735 133.461 164.405 133.887 164.153C134.319 163.895 134.823 163.766 135.399 163.766C136.059 163.766 136.674 163.889 137.244 164.135C137.814 164.381 138.315 164.723 138.747 165.161C139.185 165.593 139.524 166.094 139.764 166.664C140.01 167.234 140.133 167.846 140.133 168.5C140.133 169.154 140.01 169.769 139.764 170.345C139.524 170.921 139.185 171.428 138.747 171.866C138.315 172.298 137.814 172.637 137.244 172.883C136.674 173.129 136.059 173.252 135.399 173.252C134.823 173.252 134.319 173.126 133.887 172.874C133.461 172.616 133.101 172.283 132.807 171.875V177.5ZM135.372 165.881C134.916 165.881 134.508 166.001 134.148 166.241C133.788 166.475 133.506 166.79 133.302 167.186C133.098 167.582 132.996 168.02 132.996 168.5C132.996 168.98 133.098 169.421 133.302 169.823C133.506 170.219 133.788 170.537 134.148 170.777C134.508 171.011 134.916 171.128 135.372 171.128C135.834 171.128 136.257 171.011 136.641 170.777C137.025 170.543 137.331 170.228 137.559 169.832C137.787 169.43 137.901 168.986 137.901 168.5C137.901 168.02 137.787 167.582 137.559 167.186C137.331 166.79 137.025 166.475 136.641 166.241C136.263 166.001 135.84 165.881 135.372 165.881ZM141.404 173V159.5H143.6V173H141.404ZM145.764 164H147.96V173H145.764V164ZM146.88 162.839C146.556 162.839 146.283 162.734 146.061 162.524C145.839 162.308 145.728 162.038 145.728 161.714C145.728 161.396 145.839 161.129 146.061 160.913C146.283 160.697 146.553 160.589 146.871 160.589C147.189 160.589 147.456 160.697 147.672 160.913C147.894 161.129 148.005 161.396 148.005 161.714C148.005 162.038 147.897 162.308 147.681 162.524C147.465 162.734 147.198 162.839 146.88 162.839ZM155.492 170.291L157.472 171.362C157.058 171.926 156.539 172.379 155.915 172.721C155.291 173.063 154.61 173.234 153.872 173.234C153.044 173.234 152.288 173.021 151.604 172.595C150.926 172.169 150.383 171.599 149.975 170.885C149.573 170.165 149.372 169.37 149.372 168.5C149.372 167.84 149.489 167.225 149.723 166.655C149.957 166.079 150.278 165.575 150.686 165.143C151.1 164.705 151.58 164.363 152.126 164.117C152.672 163.871 153.254 163.748 153.872 163.748C154.61 163.748 155.291 163.919 155.915 164.261C156.539 164.603 157.058 165.062 157.472 165.638L155.492 166.7C155.282 166.46 155.033 166.274 154.745 166.142C154.463 166.01 154.172 165.944 153.872 165.944C153.44 165.944 153.05 166.064 152.702 166.304C152.354 166.538 152.078 166.85 151.874 167.24C151.67 167.624 151.568 168.044 151.568 168.5C151.568 168.95 151.67 169.37 151.874 169.76C152.078 170.144 152.354 170.453 152.702 170.687C153.05 170.921 153.44 171.038 153.872 171.038C154.184 171.038 154.481 170.972 154.763 170.84C155.045 170.702 155.288 170.519 155.492 170.291ZM165.593 164H167.789V173H165.593L165.494 171.884C165.248 172.286 164.921 172.613 164.513 172.865C164.111 173.111 163.634 173.234 163.082 173.234C162.416 173.234 161.792 173.108 161.21 172.856C160.628 172.604 160.115 172.256 159.671 171.812C159.233 171.368 158.888 170.855 158.636 170.273C158.39 169.691 158.267 169.067 158.267 168.401C158.267 167.759 158.384 167.156 158.618 166.592C158.858 166.028 159.191 165.533 159.617 165.107C160.043 164.681 160.535 164.348 161.093 164.108C161.651 163.868 162.251 163.748 162.893 163.748C163.487 163.748 164.018 163.88 164.486 164.144C164.96 164.408 165.362 164.744 165.692 165.152L165.593 164ZM163.028 171.119C163.496 171.119 163.91 171.002 164.27 170.768C164.63 170.534 164.912 170.219 165.116 169.823C165.32 169.421 165.422 168.98 165.422 168.5C165.422 168.014 165.32 167.573 165.116 167.177C164.912 166.775 164.627 166.457 164.261 166.223C163.901 165.989 163.49 165.872 163.028 165.872C162.566 165.872 162.143 165.992 161.759 166.232C161.381 166.466 161.078 166.781 160.85 167.177C160.628 167.573 160.517 168.014 160.517 168.5C160.517 168.986 160.631 169.427 160.859 169.823C161.087 170.219 161.39 170.534 161.768 170.768C162.152 171.002 162.572 171.119 163.028 171.119ZM174.406 166.196H172.66V173H170.464V166.196H169.132V164H170.464V161.174H172.66V164H174.406V166.196ZM175.893 164H178.089V173H175.893V164ZM177.009 162.839C176.685 162.839 176.412 162.734 176.19 162.524C175.968 162.308 175.857 162.038 175.857 161.714C175.857 161.396 175.968 161.129 176.19 160.913C176.412 160.697 176.682 160.589 177 160.589C177.318 160.589 177.585 160.697 177.801 160.913C178.023 161.129 178.134 161.396 178.134 161.714C178.134 162.038 178.026 162.308 177.81 162.524C177.594 162.734 177.327 162.839 177.009 162.839ZM184.001 173.234C183.173 173.234 182.417 173.021 181.733 172.595C181.055 172.169 180.512 171.599 180.104 170.885C179.702 170.165 179.501 169.37 179.501 168.5C179.501 167.84 179.618 167.225 179.852 166.655C180.086 166.079 180.407 165.575 180.815 165.143C181.229 164.705 181.709 164.363 182.255 164.117C182.801 163.871 183.383 163.748 184.001 163.748C184.829 163.748 185.582 163.961 186.26 164.387C186.944 164.813 187.487 165.386 187.889 166.106C188.297 166.826 188.501 167.624 188.501 168.5C188.501 169.154 188.384 169.766 188.15 170.336C187.916 170.906 187.592 171.41 187.178 171.848C186.77 172.28 186.293 172.619 185.747 172.865C185.207 173.111 184.625 173.234 184.001 173.234ZM184.001 171.038C184.439 171.038 184.832 170.921 185.18 170.687C185.528 170.453 185.801 170.144 185.999 169.76C186.203 169.376 186.305 168.956 186.305 168.5C186.305 168.032 186.2 167.606 185.99 167.222C185.786 166.832 185.507 166.523 185.153 166.295C184.805 166.061 184.421 165.944 184.001 165.944C183.569 165.944 183.179 166.061 182.831 166.295C182.483 166.529 182.207 166.841 182.003 167.231C181.799 167.621 181.697 168.044 181.697 168.5C181.697 168.974 181.802 169.403 182.012 169.787C182.222 170.171 182.501 170.477 182.849 170.705C183.203 170.927 183.587 171.038 184.001 171.038ZM198.146 167.312V173H195.95V167.888C195.95 167.534 195.863 167.213 195.689 166.925C195.515 166.631 195.281 166.4 194.987 166.232C194.699 166.058 194.378 165.971 194.024 165.971C193.67 165.971 193.346 166.058 193.052 166.232C192.764 166.4 192.533 166.631 192.359 166.925C192.191 167.213 192.107 167.534 192.107 167.888V173H189.911L189.902 164H192.098L192.107 164.801C192.413 164.477 192.779 164.222 193.205 164.036C193.631 163.844 194.09 163.748 194.582 163.748C195.236 163.748 195.833 163.91 196.373 164.234C196.913 164.552 197.342 164.981 197.66 165.521C197.984 166.055 198.146 166.652 198.146 167.312ZM204.264 173V160.4H209.097C209.781 160.4 210.399 160.571 210.951 160.913C211.503 161.255 211.941 161.714 212.265 162.29C212.589 162.86 212.751 163.493 212.751 164.189C212.751 164.759 212.646 165.284 212.436 165.764C212.232 166.238 211.944 166.649 211.572 166.997C211.206 167.345 210.783 167.609 210.303 167.789L213.318 173H210.789L207.873 167.987H206.46V173H204.264ZM206.46 165.791H208.845C209.157 165.791 209.442 165.713 209.7 165.557C209.958 165.401 210.165 165.191 210.321 164.927C210.477 164.663 210.555 164.369 210.555 164.045C210.555 163.715 210.477 163.418 210.321 163.154C210.165 162.89 209.958 162.68 209.7 162.524C209.442 162.368 209.157 162.29 208.845 162.29H206.46V165.791ZM218.384 173.234C217.556 173.234 216.8 173.021 216.116 172.595C215.438 172.169 214.895 171.596 214.487 170.876C214.085 170.156 213.884 169.361 213.884 168.491C213.884 167.837 214.001 167.225 214.235 166.655C214.469 166.079 214.79 165.575 215.198 165.143C215.612 164.705 216.092 164.363 216.638 164.117C217.184 163.871 217.766 163.748 218.384 163.748C219.086 163.748 219.728 163.898 220.31 164.198C220.898 164.492 221.396 164.897 221.804 165.413C222.212 165.929 222.509 166.517 222.695 167.177C222.881 167.837 222.923 168.527 222.821 169.247H216.242C216.326 169.583 216.464 169.886 216.656 170.156C216.848 170.42 217.091 170.633 217.385 170.795C217.679 170.951 218.012 171.032 218.384 171.038C218.768 171.044 219.116 170.954 219.428 170.768C219.746 170.576 220.01 170.318 220.22 169.994L222.461 170.516C222.095 171.314 221.549 171.968 220.823 172.478C220.097 172.982 219.284 173.234 218.384 173.234ZM216.17 167.6H220.598C220.532 167.24 220.391 166.916 220.175 166.628C219.965 166.334 219.704 166.1 219.392 165.926C219.08 165.752 218.744 165.665 218.384 165.665C218.024 165.665 217.691 165.752 217.385 165.926C217.079 166.094 216.818 166.325 216.602 166.619C216.392 166.907 216.248 167.234 216.17 167.6ZM222.643 177.5V175.304C222.985 175.304 223.294 175.223 223.57 175.061C223.846 174.905 224.065 174.689 224.227 174.413C224.389 174.143 224.47 173.84 224.47 173.504V164H226.666V173.504C226.666 174.236 226.486 174.905 226.126 175.511C225.772 176.117 225.289 176.6 224.677 176.96C224.071 177.32 223.393 177.5 222.643 177.5ZM225.586 162.839C225.262 162.839 224.989 162.734 224.767 162.524C224.545 162.308 224.434 162.038 224.434 161.714C224.434 161.396 224.545 161.129 224.767 160.913C224.989 160.697 225.259 160.589 225.577 160.589C225.895 160.589 226.162 160.697 226.378 160.913C226.6 161.129 226.711 161.396 226.711 161.714C226.711 162.038 226.603 162.308 226.387 162.524C226.171 162.734 225.904 162.839 225.586 162.839ZM232.569 173.234C231.741 173.234 230.985 173.021 230.301 172.595C229.623 172.169 229.08 171.596 228.672 170.876C228.27 170.156 228.069 169.361 228.069 168.491C228.069 167.837 228.186 167.225 228.42 166.655C228.654 166.079 228.975 165.575 229.383 165.143C229.797 164.705 230.277 164.363 230.823 164.117C231.369 163.871 231.951 163.748 232.569 163.748C233.271 163.748 233.913 163.898 234.495 164.198C235.083 164.492 235.581 164.897 235.989 165.413C236.397 165.929 236.694 166.517 236.88 167.177C237.066 167.837 237.108 168.527 237.006 169.247H230.427C230.511 169.583 230.649 169.886 230.841 170.156C231.033 170.42 231.276 170.633 231.57 170.795C231.864 170.951 232.197 171.032 232.569 171.038C232.953 171.044 233.301 170.954 233.613 170.768C233.931 170.576 234.195 170.318 234.405 169.994L236.646 170.516C236.28 171.314 235.734 171.968 235.008 172.478C234.282 172.982 233.469 173.234 232.569 173.234ZM230.355 167.6H234.783C234.717 167.24 234.576 166.916 234.36 166.628C234.15 166.334 233.889 166.1 233.577 165.926C233.265 165.752 232.929 165.665 232.569 165.665C232.209 165.665 231.876 165.752 231.57 165.926C231.264 166.094 231.003 166.325 230.787 166.619C230.577 166.907 230.433 167.234 230.355 167.6ZM244.086 170.291L246.066 171.362C245.652 171.926 245.133 172.379 244.509 172.721C243.885 173.063 243.204 173.234 242.466 173.234C241.638 173.234 240.882 173.021 240.198 172.595C239.52 172.169 238.977 171.599 238.569 170.885C238.167 170.165 237.966 169.37 237.966 168.5C237.966 167.84 238.083 167.225 238.317 166.655C238.551 166.079 238.872 165.575 239.28 165.143C239.694 164.705 240.174 164.363 240.72 164.117C241.266 163.871 241.848 163.748 242.466 163.748C243.204 163.748 243.885 163.919 244.509 164.261C245.133 164.603 245.652 165.062 246.066 165.638L244.086 166.7C243.876 166.46 243.627 166.274 243.339 166.142C243.057 166.01 242.766 165.944 242.466 165.944C242.034 165.944 241.644 166.064 241.296 166.304C240.948 166.538 240.672 166.85 240.468 167.24C240.264 167.624 240.162 168.044 240.162 168.5C240.162 168.95 240.264 169.37 240.468 169.76C240.672 170.144 240.948 170.453 241.296 170.687C241.644 170.921 242.034 171.038 242.466 171.038C242.778 171.038 243.075 170.972 243.357 170.84C243.639 170.702 243.882 170.519 244.086 170.291ZM252.506 166.196H250.76V173H248.564V166.196H247.232V164H248.564V161.174H250.76V164H252.506V166.196ZM257.882 173.234C257.054 173.234 256.298 173.021 255.614 172.595C254.936 172.169 254.393 171.596 253.985 170.876C253.583 170.156 253.382 169.361 253.382 168.491C253.382 167.837 253.499 167.225 253.733 166.655C253.967 166.079 254.288 165.575 254.696 165.143C255.11 164.705 255.59 164.363 256.136 164.117C256.682 163.871 257.264 163.748 257.882 163.748C258.584 163.748 259.226 163.898 259.808 164.198C260.396 164.492 260.894 164.897 261.302 165.413C261.71 165.929 262.007 166.517 262.193 167.177C262.379 167.837 262.421 168.527 262.319 169.247H255.74C255.824 169.583 255.962 169.886 256.154 170.156C256.346 170.42 256.589 170.633 256.883 170.795C257.177 170.951 257.51 171.032 257.882 171.038C258.266 171.044 258.614 170.954 258.926 170.768C259.244 170.576 259.508 170.318 259.718 169.994L261.959 170.516C261.593 171.314 261.047 171.968 260.321 172.478C259.595 172.982 258.782 173.234 257.882 173.234ZM255.668 167.6H260.096C260.03 167.24 259.889 166.916 259.673 166.628C259.463 166.334 259.202 166.1 258.89 165.926C258.578 165.752 258.242 165.665 257.882 165.665C257.522 165.665 257.189 165.752 256.883 165.926C256.577 166.094 256.316 166.325 256.1 166.619C255.89 166.907 255.746 167.234 255.668 167.6ZM270.622 159.5H272.818V173H270.622V171.875C270.334 172.277 269.971 172.604 269.533 172.856C269.095 173.108 268.588 173.234 268.012 173.234C267.358 173.234 266.746 173.111 266.176 172.865C265.606 172.619 265.102 172.28 264.664 171.848C264.232 171.41 263.893 170.906 263.647 170.336C263.401 169.766 263.278 169.154 263.278 168.5C263.278 167.846 263.401 167.234 263.647 166.664C263.893 166.094 264.232 165.593 264.664 165.161C265.102 164.723 265.606 164.381 266.176 164.135C266.746 163.889 267.358 163.766 268.012 163.766C268.588 163.766 269.095 163.892 269.533 164.144C269.971 164.39 270.334 164.717 270.622 165.125V159.5ZM268.039 171.119C268.507 171.119 268.921 171.002 269.281 170.768C269.641 170.534 269.923 170.219 270.127 169.823C270.331 169.421 270.433 168.98 270.433 168.5C270.433 168.014 270.331 167.573 270.127 167.177C269.923 166.775 269.638 166.457 269.272 166.223C268.912 165.989 268.501 165.872 268.039 165.872C267.577 165.872 267.154 165.992 266.77 166.232C266.392 166.466 266.089 166.781 265.861 167.177C265.639 167.573 265.528 168.014 265.528 168.5C265.528 168.986 265.642 169.427 265.87 169.823C266.098 170.219 266.401 170.534 266.779 170.768C267.163 171.002 267.583 171.119 268.039 171.119Z" fill="#F75555"/>
<rect x="3.59257" y="25.624" width="377" height="51" rx="14.5" transform="rotate(-3.65478 3.59257 25.624)" fill="white"/>
<rect x="3.59257" y="25.624" width="377" height="51" rx="14.5" transform="rotate(-3.65478 3.59257 25.624)" stroke="#9B9B9B" stroke-width="3"/>
<path d="M131.139 36.4152L133.663 36.254L139.038 48.5364L136.712 48.685L135.761 46.5091L130.372 46.8534L129.706 49.1324L127.38 49.281L131.139 36.4152ZM131.032 44.6108L134.813 44.3692L132.587 39.3078L131.032 44.6108ZM142.69 52.8123L140.499 52.9523L139.638 39.4797L141.83 39.3397L141.902 40.4804C142.17 40.0545 142.508 39.7022 142.917 39.4236C143.332 39.1386 143.827 38.9777 144.401 38.941C145.06 38.8989 145.682 38.9825 146.266 39.1916C146.851 39.4008 147.373 39.7102 147.832 40.1197C148.296 40.5229 148.666 41.0013 148.942 41.5548C149.224 42.108 149.386 42.7109 149.428 43.3636C149.469 44.0163 149.386 44.6378 149.177 45.2284C148.974 45.8185 148.668 46.3461 148.259 46.8111C147.855 47.2697 147.377 47.64 146.824 47.9218C146.271 48.2037 145.665 48.3656 145.006 48.4077C144.431 48.4444 143.92 48.3508 143.473 48.1268C143.032 47.8965 142.651 47.5871 142.332 47.1987L142.69 52.8123ZM144.509 41.0534C144.054 41.0825 143.655 41.2282 143.311 41.4907C142.966 41.7472 142.705 42.0795 142.527 42.4877C142.348 42.8959 142.274 43.3395 142.305 43.8185C142.336 44.2976 142.466 44.7312 142.695 45.1193C142.924 45.5015 143.225 45.8009 143.6 46.0175C143.974 46.228 144.389 46.3188 144.844 46.2897C145.305 46.2603 145.72 46.1165 146.088 45.8585C146.456 45.6005 146.741 45.2667 146.944 44.857C147.146 44.4412 147.231 43.9909 147.2 43.5059C147.17 43.0268 147.028 42.597 146.775 42.2163C146.522 41.8357 146.197 41.5408 145.799 41.3318C145.406 41.1164 144.976 41.0236 144.509 41.0534ZM153.602 52.1153L151.41 52.2553L150.549 38.7828L152.741 38.6428L152.814 39.7834C153.081 39.3575 153.419 39.0053 153.829 38.7266C154.243 38.4416 154.738 38.2807 155.313 38.244C155.971 38.2019 156.593 38.2855 157.178 38.4947C157.762 38.7038 158.284 39.0132 158.743 39.4228C159.208 39.826 159.578 40.3043 159.854 40.8579C160.135 41.411 160.297 42.014 160.339 42.6666C160.381 43.3193 160.297 43.9409 160.088 44.5314C159.885 45.1215 159.58 45.6491 159.17 46.1141C158.767 46.5728 158.288 46.943 157.735 47.2249C157.182 47.5067 156.576 47.6687 155.917 47.7107C155.343 47.7474 154.832 47.6538 154.384 47.4299C153.943 47.1996 153.562 46.8902 153.243 46.5018L153.602 52.1153ZM155.421 40.3564C154.966 40.3855 154.566 40.5313 154.222 40.7937C153.878 41.0502 153.616 41.3825 153.438 41.7907C153.26 42.1989 153.186 42.6425 153.216 43.1216C153.247 43.6006 153.377 44.0342 153.606 44.4224C153.835 44.8046 154.137 45.1039 154.511 45.3205C154.885 45.5311 155.3 45.6218 155.755 45.5928C156.216 45.5633 156.631 45.4196 156.999 45.1616C157.367 44.9036 157.653 44.5697 157.855 44.16C158.057 43.7443 158.142 43.2939 158.111 42.8089C158.081 42.3299 157.939 41.9 157.686 41.5194C157.434 41.1387 157.108 40.8439 156.71 40.6348C156.318 40.4194 155.888 40.3266 155.421 40.3564ZM161.894 47.0765L161.034 33.6039L163.225 33.4639L164.086 46.9365L161.894 47.0765ZM165.671 37.8169L167.863 37.6769L168.436 46.6586L166.245 46.7986L165.671 37.8169ZM166.711 36.5871C166.387 36.6077 166.108 36.5204 165.873 36.3249C165.638 36.1235 165.51 35.8612 165.489 35.5378C165.469 35.2205 165.563 34.9469 165.771 34.7172C165.978 34.4875 166.241 34.3625 166.558 34.3422C166.876 34.322 167.149 34.4127 167.378 34.6145C167.614 34.8159 167.741 35.0753 167.762 35.3927C167.782 35.716 167.692 35.9923 167.49 36.2217C167.288 36.445 167.028 36.5668 166.711 36.5871ZM175.781 43.4749L177.825 44.4175C177.448 45.0068 176.959 45.492 176.358 45.873C175.757 46.2541 175.088 46.4682 174.352 46.5152C173.525 46.568 172.757 46.4036 172.047 46.0221C171.344 45.6402 170.765 45.106 170.313 44.4194C169.866 43.7265 169.614 42.9459 169.559 42.0777C169.517 41.419 169.594 40.7978 169.792 40.2141C169.988 39.6243 170.277 39.1009 170.656 38.6438C171.041 38.1803 171.499 37.8084 172.028 37.5281C172.557 37.2478 173.13 37.0879 173.747 37.0485C174.483 37.0015 175.174 37.1287 175.818 37.4302C176.463 37.7318 177.01 38.1568 177.46 38.7052L175.552 39.8912C175.327 39.6651 175.067 39.4954 174.771 39.382C174.481 39.2682 174.186 39.2209 173.887 39.24C173.456 39.2676 173.074 39.4122 172.742 39.6739C172.41 39.9296 172.154 40.2586 171.976 40.6608C171.796 41.057 171.721 41.4826 171.75 41.9377C171.779 42.3868 171.908 42.7994 172.136 43.1756C172.364 43.5459 172.659 43.8366 173.022 44.048C173.384 44.2593 173.78 44.3512 174.212 44.3237C174.523 44.3038 174.815 44.219 175.088 44.0693C175.361 43.9136 175.592 43.7155 175.781 43.4749ZM185.46 36.5529L187.651 36.4129L188.225 45.3946L186.033 45.5346L185.863 44.4272C185.644 44.844 185.338 45.1912 184.947 45.4687C184.561 45.7398 184.093 45.893 183.542 45.9282C182.878 45.9706 182.247 45.8847 181.65 45.6703C181.053 45.4559 180.519 45.1413 180.048 44.7265C179.582 44.3113 179.205 43.8213 178.917 43.2566C178.634 42.6915 178.472 42.0766 178.429 41.4119C178.388 40.7712 178.466 40.162 178.664 39.5842C178.868 39.0061 179.168 38.4909 179.566 38.0386C179.964 37.5863 180.434 37.2226 180.976 36.9475C181.517 36.6724 182.108 36.5144 182.749 36.4735C183.342 36.4356 183.88 36.5335 184.364 36.7672C184.854 37.0004 185.277 37.3101 185.632 37.6962L185.46 36.5529ZM183.354 43.8209C183.821 43.7911 184.226 43.6479 184.571 43.3914C184.915 43.135 185.176 42.8026 185.355 42.3944C185.533 41.9803 185.606 41.5337 185.576 41.0546C185.545 40.5696 185.415 40.136 185.186 39.7538C184.957 39.3656 184.652 39.0665 184.272 38.8563C183.898 38.6457 183.48 38.5551 183.019 38.5846C182.558 38.614 182.144 38.7607 181.776 39.0247C181.413 39.2824 181.131 39.616 180.929 40.0258C180.732 40.4351 180.65 40.8823 180.681 41.3673C180.712 41.8523 180.854 42.2851 181.106 42.6658C181.359 43.0465 181.682 43.3415 182.074 43.5509C182.472 43.76 182.899 43.85 183.354 43.8209ZM194.395 38.1826L192.653 38.2939L193.086 45.0841L190.895 45.2241L190.461 38.4339L189.132 38.5188L188.992 36.3273L190.321 36.2424L190.141 33.4221L192.332 33.2821L192.513 36.1024L194.255 35.9911L194.395 38.1826ZM195.739 35.8963L197.93 35.7563L198.504 44.738L196.312 44.878L195.739 35.8963ZM196.778 34.6665C196.455 34.6872 196.176 34.5998 195.941 34.4044C195.706 34.203 195.578 33.9406 195.557 33.6173C195.537 33.2999 195.63 33.0264 195.838 32.7967C196.046 32.5669 196.309 32.442 196.626 32.4217C196.943 32.4014 197.217 32.4922 197.446 32.694C197.681 32.8954 197.809 33.1548 197.829 33.4721C197.85 33.7955 197.759 34.0718 197.558 34.3011C197.355 34.5245 197.096 34.6463 196.778 34.6665ZM204.419 44.5947C203.593 44.6474 202.825 44.4831 202.115 44.1015C201.411 43.7196 200.833 43.1854 200.38 42.4989C199.933 41.8059 199.682 41.0254 199.627 40.1571C199.584 39.4985 199.662 38.8773 199.859 38.2935C200.056 37.7038 200.344 37.1803 200.724 36.7232C201.109 36.2597 201.566 35.8878 202.096 35.6075C202.625 35.3272 203.198 35.1674 203.814 35.128C204.641 35.0752 205.406 35.2397 206.11 35.6217C206.819 36.0032 207.398 36.5404 207.845 37.2333C208.298 37.9259 208.552 38.7092 208.608 39.5834C208.65 40.2361 208.572 40.8543 208.375 41.4381C208.178 42.0218 207.887 42.5455 207.501 43.009C207.122 43.4661 206.667 43.8348 206.138 44.1151C205.615 44.395 205.042 44.5549 204.419 44.5947ZM204.279 42.4031C204.716 42.3752 205.101 42.2334 205.433 41.9777C205.766 41.722 206.019 41.3962 206.192 41.0004C206.371 40.6041 206.446 40.1785 206.417 39.7234C206.387 39.2564 206.255 38.8379 206.021 38.4681C205.792 38.0919 205.494 37.8013 205.127 37.5963C204.764 37.385 204.374 37.2927 203.954 37.3195C203.523 37.347 203.142 37.4887 202.809 37.7444C202.477 38.0001 202.221 38.329 202.043 38.7312C201.864 39.1334 201.789 39.5621 201.818 40.0172C201.848 40.4902 201.98 40.9116 202.214 41.2815C202.449 41.6513 202.746 41.9389 203.108 42.1442C203.476 42.3432 203.866 42.4295 204.279 42.4031ZM218.158 37.783L218.521 43.4595L216.329 43.5994L216.003 38.4978C215.981 38.1446 215.874 37.8298 215.682 37.5534C215.489 37.2711 215.241 37.0555 214.937 36.9066C214.638 36.7513 214.312 36.6849 213.959 36.7075C213.606 36.7301 213.288 36.8375 213.006 37.0299C212.729 37.2159 212.513 37.4612 212.358 37.7657C212.209 38.0638 212.146 38.3895 212.168 38.7428L212.494 43.8444L210.303 43.9844L209.72 35.0033L211.911 34.8633L211.971 35.6621C212.256 35.3192 212.605 35.0414 213.018 34.8286C213.431 34.6099 213.883 34.4848 214.374 34.4535C215.027 34.4118 215.633 34.5354 216.193 34.8243C216.752 35.1072 217.207 35.508 217.559 36.0266C217.916 36.5389 218.116 37.1244 218.158 37.783ZM229.167 43.0139C228.473 43.0582 227.798 42.9931 227.144 42.8185C226.495 42.6375 225.918 42.3587 225.413 41.9821C224.908 41.5995 224.532 41.1275 224.285 40.5661L226.294 39.6803C226.393 39.9144 226.578 40.1221 226.848 40.3032C227.118 40.4844 227.442 40.623 227.821 40.719C228.2 40.8151 228.602 40.8495 229.027 40.8223C229.465 40.7944 229.867 40.7026 230.236 40.5467C230.611 40.3845 230.907 40.1762 231.125 39.9218C231.343 39.6614 231.442 39.3695 231.421 39.0462C231.4 38.7168 231.26 38.4552 231.001 38.2613C230.742 38.0614 230.417 37.9109 230.025 37.8096C229.634 37.7083 229.233 37.6378 228.821 37.5979C227.92 37.5172 227.108 37.3557 226.383 37.1134C225.658 36.8711 225.072 36.5087 224.627 36.0261C224.187 35.5432 223.941 34.8975 223.89 34.0892C223.841 33.3287 224.017 32.6501 224.418 32.0533C224.819 31.4566 225.365 30.9768 226.058 30.6139C226.75 30.251 227.509 30.0432 228.336 29.9904C229.024 29.9464 229.696 30.0118 230.35 30.1864C231.005 30.361 231.585 30.6396 232.09 31.0222C232.601 31.4044 232.98 31.8792 233.227 32.4466L231.209 33.324C231.11 33.0899 230.925 32.8822 230.655 32.7011C230.385 32.5199 230.061 32.3843 229.682 32.2943C229.303 32.1982 228.901 32.1638 228.476 32.1909C228.051 32.2121 227.651 32.3068 227.277 32.475C226.908 32.6368 226.612 32.8451 226.388 33.0999C226.164 33.3547 226.061 33.6378 226.081 33.9492C226.107 34.3504 226.237 34.6457 226.472 34.8351C226.712 35.0241 227.024 35.1545 227.407 35.2262C227.79 35.292 228.215 35.349 228.681 35.3974C229.528 35.4756 230.317 35.6476 231.05 35.9135C231.782 36.1793 232.38 36.5589 232.845 37.0523C233.309 37.5398 233.565 38.1577 233.613 38.9062C233.661 39.6666 233.488 40.348 233.094 40.9504C232.699 41.5468 232.156 42.0264 231.463 42.3893C230.771 42.7521 230.006 42.9603 229.167 43.0139ZM239.521 42.3525C238.695 42.4053 237.927 42.2409 237.217 41.8594C236.514 41.4775 235.935 40.9403 235.482 40.2477C235.035 39.5548 234.784 38.7742 234.728 37.906C234.687 37.2533 234.764 36.6351 234.962 36.0514C235.158 35.4616 235.447 34.9382 235.826 34.4811C236.211 34.0176 236.669 33.6457 237.198 33.3654C237.727 33.0851 238.3 32.9252 238.917 32.8858C239.617 32.8411 240.268 32.9498 240.868 33.2121C241.473 33.468 241.996 33.8405 242.436 34.3294C242.876 34.8184 243.21 35.3862 243.438 36.033C243.665 36.6798 243.751 37.3658 243.695 38.0908L237.13 38.5102C237.235 38.8401 237.392 39.1337 237.601 39.3909C237.809 39.6422 238.065 39.8392 238.369 39.9822C238.672 40.1191 239.01 40.1787 239.381 40.161C239.765 40.1425 240.107 40.0305 240.406 39.825C240.711 39.6131 240.958 39.3388 241.147 39.0021L243.417 39.3802C243.103 40.1999 242.599 40.8873 241.907 41.4426C241.215 41.9918 240.42 42.2952 239.521 42.3525ZM236.953 36.8711L241.372 36.5888C241.283 36.2338 241.122 35.9194 240.888 35.6458C240.659 35.3658 240.384 35.1489 240.062 34.9951C239.739 34.8414 239.398 34.776 239.039 34.7989C238.68 34.8219 238.353 34.9299 238.059 35.1231C237.764 35.3102 237.518 35.5574 237.321 35.8646C237.13 36.1654 237.007 36.5009 236.953 36.8711ZM253.261 35.5409L253.623 41.2173L251.432 41.3573L251.106 36.2557C251.083 35.9024 250.976 35.5876 250.784 35.3113C250.591 35.029 250.343 34.8134 250.039 34.6644C249.741 34.5092 249.415 34.4428 249.061 34.4654C248.708 34.4879 248.39 34.5954 248.108 34.7878C247.831 34.9738 247.616 35.2191 247.461 35.5236C247.311 35.8217 247.248 36.1474 247.271 36.5007L247.596 41.6023L245.405 41.7422L244.822 32.7611L247.014 32.6211L247.074 33.4199C247.358 33.0771 247.707 32.7993 248.121 32.5865C248.534 32.3677 248.986 32.2427 249.477 32.2113C250.129 32.1696 250.735 32.2932 251.295 32.5822C251.854 32.8651 252.31 33.2659 252.661 33.7845C253.019 34.2968 253.218 34.8822 253.261 35.5409ZM259.793 34.0053L258.051 34.1166L258.484 40.9068L256.293 41.0468L255.859 34.2566L254.53 34.3415L254.39 32.15L255.719 32.0651L255.539 29.2448L257.73 29.1049L257.911 31.9251L259.653 31.8138L259.793 34.0053Z" fill="#246BFD"/>
<rect x="15.1221" y="36.7957" width="377" height="51" rx="14.5" transform="rotate(12.8315 15.1221 36.7957)" fill="white"/>
<rect x="15.1221" y="36.7957" width="377" height="51" rx="14.5" transform="rotate(12.8315 15.1221 36.7957)" stroke="#9B9B9B" stroke-width="3"/>
<path d="M114.473 78.8087L116.938 79.3703L118.607 92.673L116.334 92.1554L116.04 89.7992L110.775 88.6L109.489 90.5963L107.216 90.0786L114.473 78.8087ZM112.043 86.6367L115.738 87.4782L115.04 81.9931L112.043 86.6367ZM120.895 97.8095L118.754 97.3218L121.752 84.159L123.893 84.6467L123.64 85.7611C124.017 85.4286 124.441 85.1868 124.912 85.0357C125.391 84.8801 125.911 84.8662 126.473 84.9942C127.116 85.1407 127.688 85.3973 128.19 85.7637C128.691 86.1301 129.103 86.5749 129.427 87.0979C129.758 87.6164 129.978 88.1801 130.085 88.7892C130.198 89.3996 130.182 90.0236 130.037 90.6613C129.892 91.299 129.635 91.8713 129.267 92.3783C128.906 92.8866 128.462 93.3056 127.938 93.6354C127.421 93.9607 126.857 94.18 126.247 94.2932C125.636 94.4065 125.009 94.3899 124.366 94.2433C123.804 94.1154 123.341 93.8806 122.976 93.5389C122.618 93.1928 122.34 92.7881 122.144 92.325L120.895 97.8095ZM125.977 87.0504C125.532 86.9491 125.107 86.9755 124.703 87.1295C124.3 87.2777 123.955 87.5222 123.668 87.863C123.382 88.2039 123.185 88.6083 123.078 89.0763C122.972 89.5443 122.973 89.9969 123.083 90.4342C123.194 90.8656 123.398 91.2383 123.696 91.5523C123.995 91.8604 124.367 92.0651 124.811 92.1663C125.262 92.2689 125.7 92.2488 126.127 92.1059C126.553 91.963 126.921 91.7239 127.231 91.3884C127.543 91.0471 127.753 90.6395 127.861 90.1656C127.967 89.6976 127.953 89.2452 127.819 88.8085C127.685 88.3717 127.456 87.9966 127.134 87.6832C126.819 87.3652 126.433 87.1543 125.977 87.0504ZM131.556 100.238L129.415 99.75L132.413 86.5872L134.554 87.0749L134.3 88.1893C134.677 87.8568 135.102 87.615 135.573 87.4639C136.051 87.3083 136.572 87.2944 137.133 87.4224C137.777 87.5689 138.349 87.8254 138.85 88.1919C139.351 88.5583 139.764 89.0031 140.088 89.5261C140.419 90.0445 140.638 90.6083 140.746 91.2174C140.859 91.8278 140.843 92.4518 140.698 93.0895C140.552 93.7272 140.296 94.2995 139.928 94.8065C139.566 95.3148 139.123 95.7338 138.599 96.0636C138.081 96.3889 137.518 96.6082 136.907 96.7214C136.297 96.8347 135.67 96.818 135.026 96.6715C134.465 96.5435 134.001 96.3088 133.636 95.9671C133.278 95.6209 133.001 95.2163 132.805 94.7532L131.556 100.238ZM136.637 89.4785C136.193 89.3773 135.768 89.4037 135.364 89.5577C134.961 89.7059 134.616 89.9504 134.329 90.2912C134.042 90.632 133.845 91.0364 133.739 91.5045C133.632 91.9725 133.634 92.4251 133.743 92.8624C133.854 93.2938 134.059 93.6665 134.356 93.9804C134.655 94.2885 135.027 94.4932 135.472 94.5945C135.922 94.6971 136.361 94.677 136.787 94.5341C137.213 94.3912 137.582 94.152 137.892 93.8166C138.204 93.4752 138.413 93.0677 138.521 92.5938C138.628 92.1258 138.614 91.6734 138.48 91.2367C138.345 90.7999 138.117 90.4248 137.794 90.1114C137.479 89.7934 137.093 89.5825 136.637 89.4785ZM140.937 97.7594L143.936 84.5965L146.077 85.0842L143.079 98.2471L140.937 97.7594ZM147.187 89.9523L149.328 90.44L147.329 99.2152L145.188 98.7275L147.187 89.9523ZM148.533 89.0681C148.217 88.9962 147.974 88.8332 147.804 88.5791C147.636 88.3192 147.587 88.0313 147.659 87.7154C147.73 87.4053 147.897 87.1696 148.162 87.0083C148.426 86.847 148.714 86.8017 149.024 86.8723C149.334 86.9429 149.57 87.1075 149.733 87.3661C149.901 87.626 149.95 87.911 149.879 88.2211C149.807 88.537 149.642 88.7762 149.384 88.9389C149.126 89.0957 148.843 89.1387 148.533 89.0681ZM155.275 98.2467L156.968 99.7307C156.439 100.189 155.832 100.515 155.148 100.71C154.463 100.905 153.761 100.92 153.042 100.756C152.235 100.573 151.545 100.197 150.972 99.6297C150.406 99.0638 150.003 98.3874 149.764 97.6006C149.532 96.8093 149.512 95.9896 149.706 95.1413C149.852 94.4978 150.103 93.9241 150.458 93.4203C150.814 92.9107 151.239 92.4905 151.732 92.1599C152.233 91.8248 152.777 91.598 153.364 91.4794C153.951 91.3608 154.546 91.3701 155.149 91.5073C155.868 91.6712 156.494 91.9892 157.027 92.4612C157.559 92.9333 157.963 93.4961 158.239 94.1496L156.073 94.7454C155.921 94.4647 155.72 94.2281 155.468 94.0354C155.222 93.8441 154.953 93.7151 154.661 93.6485C154.24 93.5525 153.833 93.5829 153.44 93.7397C153.049 93.8905 152.711 94.1334 152.425 94.4684C152.141 94.7975 151.948 95.1844 151.847 95.629C151.747 96.0677 151.753 96.4999 151.865 96.9255C151.979 97.3452 152.179 97.7078 152.467 98.0132C152.754 98.3186 153.108 98.5193 153.53 98.6153C153.834 98.6846 154.138 98.6862 154.442 98.6201C154.748 98.5482 155.026 98.4237 155.275 98.2467ZM166.52 94.356L168.662 94.8437L166.663 103.619L164.522 103.131L164.673 102.021C164.344 102.358 163.952 102.605 163.499 102.76C163.052 102.91 162.56 102.924 162.021 102.802C161.372 102.654 160.792 102.392 160.28 102.017C159.769 101.642 159.346 101.189 159.011 100.658C158.683 100.128 158.461 99.5507 158.344 98.9273C158.233 98.3052 158.252 97.6695 158.4 97.0201C158.543 96.3941 158.791 95.8322 159.144 95.3342C159.503 94.8376 159.938 94.4289 160.448 94.1082C160.958 93.7874 161.512 93.572 162.109 93.4619C162.706 93.3518 163.318 93.3681 163.944 93.5107C164.523 93.6426 165.011 93.8892 165.409 94.2505C165.813 94.6132 166.13 95.0301 166.361 95.5012L166.52 94.356ZM162.439 100.728C162.895 100.831 163.324 100.809 163.727 100.661C164.13 100.513 164.475 100.268 164.762 99.9276C165.05 99.581 165.248 99.1737 165.354 98.7056C165.462 98.2318 165.461 97.7791 165.35 97.3477C165.24 96.9105 165.033 96.5371 164.728 96.2277C164.429 95.9196 164.054 95.7142 163.604 95.6116C163.153 95.509 162.714 95.5321 162.287 95.6808C161.866 95.825 161.501 96.0648 161.19 96.4003C160.886 96.7371 160.68 97.1424 160.572 97.6163C160.464 98.0902 160.477 98.5455 160.612 98.9822C160.746 99.419 160.971 99.7934 161.288 100.106C161.61 100.419 161.994 100.626 162.439 100.728ZM174.626 98.4545L172.924 98.0667L171.413 104.701L169.271 104.213L170.783 97.579L169.484 97.2832L169.971 95.142L171.27 95.4379L171.898 92.6824L174.039 93.1701L173.411 95.9256L175.114 96.3133L174.626 98.4545ZM176.563 96.6435L178.704 97.1312L176.706 105.906L174.564 105.419L176.563 96.6435ZM177.909 95.7593C177.593 95.6873 177.35 95.5243 177.181 95.2703C177.012 95.0104 176.964 94.7225 177.036 94.4065C177.106 94.0965 177.274 93.8608 177.538 93.6995C177.803 93.5382 178.09 93.4929 178.4 93.5635C178.71 93.6341 178.946 93.7987 179.109 94.0573C179.278 94.3172 179.327 94.6022 179.256 94.9122C179.184 95.2281 179.019 95.4674 178.76 95.63C178.503 95.7868 178.219 95.8299 177.909 95.7593ZM182.418 107.448C181.611 107.264 180.921 106.888 180.349 106.321C179.783 105.755 179.38 105.079 179.14 104.292C178.908 103.501 178.889 102.681 179.082 101.832C179.229 101.189 179.479 100.615 179.834 100.111C180.19 99.6018 180.615 99.1817 181.109 98.8511C181.61 98.516 182.154 98.2891 182.741 98.1705C183.328 98.0519 183.923 98.0613 184.525 98.1985C185.332 98.3824 186.019 98.7573 186.586 99.3232C187.158 99.8905 187.56 100.57 187.792 101.361C188.03 102.154 188.052 102.977 187.857 103.831C187.712 104.469 187.462 105.04 187.107 105.543C186.753 106.047 186.325 106.467 185.824 106.802C185.33 107.132 184.79 107.357 184.203 107.476C183.622 107.596 183.027 107.586 182.418 107.448ZM182.906 105.306C183.333 105.404 183.742 105.377 184.134 105.226C184.525 105.075 184.86 104.835 185.138 104.504C185.422 104.175 185.615 103.788 185.716 103.344C185.82 102.887 185.812 102.449 185.693 102.027C185.581 101.602 185.377 101.239 185.083 100.938C184.795 100.632 184.447 100.433 184.037 100.34C183.616 100.244 183.21 100.271 182.819 100.422C182.427 100.573 182.089 100.816 181.803 101.151C181.518 101.486 181.325 101.876 181.223 102.32C181.118 102.782 181.125 103.224 181.245 103.645C181.364 104.066 181.568 104.426 181.857 104.726C182.153 105.021 182.502 105.215 182.906 105.306ZM197.526 104.815L196.262 110.361L194.121 109.873L195.257 104.889C195.335 104.544 195.322 104.211 195.216 103.892C195.112 103.567 194.935 103.289 194.685 103.06C194.443 102.827 194.15 102.671 193.804 102.592C193.459 102.513 193.124 102.526 192.799 102.631C192.481 102.73 192.204 102.904 191.969 103.152C191.741 103.396 191.588 103.69 191.51 104.035L190.374 109.02L188.233 108.532L190.223 99.7548L192.364 100.243L192.195 101.026C192.565 100.778 192.979 100.61 193.436 100.523C193.894 100.431 194.362 100.439 194.842 100.548C195.48 100.694 196.026 100.984 196.481 101.42C196.936 101.85 197.259 102.364 197.45 102.961C197.647 103.553 197.672 104.171 197.526 104.815ZM209.132 100.37L211.598 100.931L213.266 114.234L210.994 113.716L210.699 111.36L205.434 110.161L204.149 112.157L201.876 111.64L209.132 100.37ZM206.703 108.198L210.397 109.039L209.699 103.554L206.703 108.198ZM220.181 113.031L221.874 114.515C221.345 114.972 220.738 115.299 220.054 115.494C219.369 115.689 218.667 115.704 217.948 115.54C217.141 115.356 216.451 114.981 215.878 114.414C215.312 113.848 214.909 113.171 214.67 112.384C214.438 111.593 214.418 110.773 214.612 109.925C214.758 109.282 215.009 108.708 215.364 108.204C215.72 107.694 216.145 107.274 216.638 106.944C217.139 106.609 217.683 106.382 218.27 106.263C218.857 106.145 219.452 106.154 220.055 106.291C220.774 106.455 221.4 106.773 221.933 107.245C222.465 107.717 222.869 108.28 223.145 108.933L220.979 109.529C220.827 109.249 220.626 109.012 220.374 108.819C220.128 108.628 219.859 108.499 219.567 108.432C219.146 108.336 218.739 108.367 218.346 108.523C217.955 108.674 217.616 108.917 217.331 109.252C217.047 109.581 216.854 109.968 216.753 110.413C216.653 110.852 216.659 111.284 216.771 111.709C216.885 112.129 217.085 112.492 217.373 112.797C217.66 113.102 218.014 113.303 218.436 113.399C218.74 113.468 219.044 113.47 219.348 113.404C219.654 113.332 219.931 113.208 220.181 113.031ZM228.853 115.006L230.546 116.49C230.017 116.948 229.411 117.274 228.726 117.469C228.042 117.664 227.34 117.68 226.62 117.516C225.813 117.332 225.123 116.956 224.551 116.389C223.984 115.823 223.582 115.147 223.342 114.36C223.11 113.569 223.091 112.749 223.284 111.9C223.431 111.257 223.681 110.683 224.036 110.179C224.392 109.67 224.817 109.25 225.311 108.919C225.812 108.584 226.356 108.357 226.943 108.239C227.53 108.12 228.124 108.129 228.727 108.267C229.447 108.43 230.073 108.748 230.605 109.22C231.138 109.692 231.542 110.255 231.817 110.909L229.651 111.505C229.499 111.224 229.298 110.987 229.047 110.795C228.801 110.603 228.532 110.474 228.239 110.408C227.818 110.312 227.411 110.342 227.019 110.499C226.627 110.65 226.289 110.893 226.003 111.228C225.719 111.557 225.526 111.944 225.425 112.388C225.325 112.827 225.331 113.259 225.444 113.685C225.557 114.104 225.758 114.467 226.045 114.772C226.333 115.078 226.687 115.279 227.108 115.374C227.412 115.444 227.716 115.445 228.021 115.379C228.326 115.307 228.604 115.183 228.853 115.006ZM235.293 119.491C234.485 119.307 233.796 118.931 233.223 118.364C232.657 117.798 232.255 117.119 232.017 116.326C231.785 115.535 231.765 114.715 231.958 113.867C232.104 113.229 232.354 112.659 232.708 112.155C233.064 111.645 233.489 111.225 233.983 110.894C234.484 110.559 235.028 110.332 235.615 110.214C236.202 110.095 236.797 110.105 237.399 110.242C238.084 110.398 238.677 110.687 239.177 111.108C239.685 111.526 240.081 112.031 240.364 112.625C240.647 113.219 240.806 113.858 240.841 114.543C240.876 115.227 240.764 115.91 240.504 116.589L234.09 115.128C234.097 115.474 234.164 115.8 234.291 116.106C234.42 116.406 234.61 116.668 234.86 116.891C235.112 117.108 235.419 117.261 235.78 117.35C236.153 117.441 236.513 117.43 236.858 117.318C237.211 117.202 237.526 117.009 237.802 116.74L239.872 117.746C239.337 118.443 238.66 118.959 237.839 119.295C237.019 119.626 236.17 119.691 235.293 119.491ZM234.385 113.506L238.703 114.489C238.718 114.124 238.653 113.776 238.506 113.448C238.367 113.114 238.164 112.828 237.899 112.589C237.633 112.35 237.325 112.191 236.974 112.111C236.623 112.031 236.279 112.042 235.942 112.144C235.606 112.239 235.3 112.407 235.024 112.645C234.756 112.88 234.543 113.166 234.385 113.506ZM242.24 125.449L240.099 124.961L243.097 111.798L245.239 112.286L244.985 113.4C245.362 113.068 245.786 112.826 246.258 112.675C246.736 112.519 247.256 112.505 247.818 112.633C248.461 112.78 249.034 113.036 249.535 113.403C250.036 113.769 250.448 114.214 250.772 114.737C251.103 115.256 251.323 115.819 251.43 116.428C251.543 117.039 251.527 117.663 251.382 118.3C251.237 118.938 250.98 119.51 250.613 120.017C250.251 120.526 249.808 120.945 249.283 121.275C248.766 121.6 248.202 121.819 247.592 121.932C246.982 122.046 246.355 122.029 245.711 121.882C245.149 121.755 244.686 121.52 244.321 121.178C243.963 120.832 243.686 120.427 243.49 119.964L242.24 125.449ZM247.322 114.69C246.877 114.588 246.453 114.615 246.048 114.769C245.645 114.917 245.3 115.161 245.014 115.502C244.727 115.843 244.53 116.247 244.423 116.715C244.317 117.183 244.318 117.636 244.428 118.073C244.539 118.505 244.743 118.877 245.041 119.191C245.34 119.5 245.712 119.704 246.156 119.805C246.607 119.908 247.045 119.888 247.472 119.745C247.898 119.602 248.266 119.363 248.577 119.028C248.888 118.686 249.098 118.279 249.206 117.805C249.313 117.337 249.299 116.884 249.164 116.448C249.03 116.011 248.802 115.636 248.479 115.322C248.164 115.004 247.778 114.793 247.322 114.69ZM257.974 117.439L256.271 117.051L254.76 123.685L252.619 123.197L254.13 116.563L252.831 116.268L253.319 114.126L254.618 114.422L255.246 111.667L257.387 112.154L256.759 114.91L258.461 115.298L257.974 117.439ZM261.653 125.495C260.845 125.311 260.156 124.936 259.583 124.368C259.017 123.802 258.615 123.123 258.377 122.33C258.145 121.539 258.125 120.719 258.318 119.871C258.464 119.233 258.714 118.663 259.068 118.159C259.425 117.649 259.849 117.229 260.343 116.899C260.844 116.563 261.388 116.337 261.975 116.218C262.562 116.099 263.157 116.109 263.759 116.246C264.444 116.402 265.037 116.691 265.537 117.112C266.045 117.53 266.441 118.035 266.724 118.629C267.007 119.223 267.166 119.862 267.201 120.547C267.236 121.232 267.124 121.914 266.864 122.593L260.45 121.132C260.457 121.478 260.524 121.804 260.651 122.11C260.78 122.41 260.97 122.672 261.22 122.895C261.472 123.112 261.779 123.265 262.14 123.354C262.513 123.445 262.873 123.435 263.218 123.322C263.571 123.206 263.886 123.013 264.162 122.744L266.232 123.75C265.697 124.447 265.02 124.964 264.199 125.3C263.379 125.63 262.53 125.695 261.653 125.495ZM260.745 119.51L265.063 120.493C265.078 120.128 265.013 119.781 264.866 119.452C264.727 119.118 264.524 118.832 264.259 118.593C263.993 118.354 263.685 118.195 263.334 118.115C262.983 118.035 262.639 118.046 262.302 118.148C261.966 118.244 261.66 118.411 261.384 118.649C261.116 118.884 260.903 119.171 260.745 119.51ZM277.125 114.933L279.266 115.421L276.268 128.584L274.127 128.096L274.377 126.999C274.007 127.327 273.58 127.566 273.097 127.714C272.614 127.863 272.092 127.873 271.53 127.745C270.893 127.6 270.323 127.344 269.822 126.977C269.321 126.611 268.905 126.168 268.574 125.65C268.25 125.127 268.031 124.56 267.918 123.95C267.805 123.339 267.821 122.715 267.966 122.078C268.111 121.44 268.367 120.871 268.733 120.37C269.1 119.868 269.542 119.455 270.059 119.13C270.583 118.8 271.15 118.579 271.761 118.465C272.371 118.352 272.995 118.368 273.633 118.513C274.195 118.641 274.661 118.877 275.032 119.22C275.404 119.557 275.686 119.956 275.876 120.418L277.125 114.933ZM272.026 125.689C272.483 125.793 272.912 125.77 273.315 125.622C273.718 125.474 274.063 125.23 274.35 124.889C274.638 124.542 274.836 124.135 274.942 123.667C275.05 123.193 275.049 122.74 274.938 122.309C274.828 121.872 274.621 121.498 274.316 121.189C274.017 120.881 273.642 120.675 273.192 120.573C272.741 120.47 272.302 120.493 271.874 120.642C271.454 120.786 271.088 121.026 270.778 121.361C270.474 121.698 270.268 122.104 270.16 122.577C270.052 123.051 270.065 123.507 270.199 123.943C270.334 124.38 270.559 124.755 270.876 125.067C271.198 125.38 271.582 125.587 272.026 125.689Z" fill="#07BD74"/>
</svg>
