<svg width="380" height="210" viewBox="0 0 380 210" fill="none" xmlns="http://www.w3.org/2000/svg">
<rect x="1.5" y="1.5" width="377" height="207" rx="22.5" fill="white"/>
<rect x="1.5" y="1.5" width="377" height="207" rx="22.5" stroke="#9B9B9B" stroke-width="3"/>
<path d="M21.2 39V25H29.98V27.44H23.64V30.28H28.67V32.72H23.64V36.56H29.98V39H21.2ZM32.1766 39V29H34.6166V29.89C34.9566 29.53 35.3632 29.2467 35.8366 29.04C36.3099 28.8267 36.8199 28.72 37.3666 28.72C38.0599 28.72 38.6966 28.8833 39.2766 29.21C39.8632 29.5367 40.3299 29.9733 40.6766 30.52C41.0299 29.9733 41.4966 29.5367 42.0766 29.21C42.6566 28.8833 43.2932 28.72 43.9866 28.72C44.7199 28.72 45.3832 28.9 45.9766 29.26C46.5766 29.6133 47.0532 30.09 47.4066 30.69C47.7666 31.2833 47.9466 31.9467 47.9466 32.68V39H45.5066V33.33C45.5066 32.9433 45.4099 32.59 45.2166 32.27C45.0299 31.9433 44.7766 31.6833 44.4566 31.49C44.1432 31.29 43.7899 31.19 43.3966 31.19C43.0032 31.19 42.6466 31.2867 42.3266 31.48C42.0132 31.6667 41.7599 31.92 41.5666 32.24C41.3732 32.56 41.2766 32.9233 41.2766 33.33V39H38.8366V33.33C38.8366 32.9233 38.7432 32.56 38.5566 32.24C38.3699 31.92 38.1166 31.6667 37.7966 31.48C37.4766 31.2867 37.1199 31.19 36.7266 31.19C36.3399 31.19 35.9866 31.29 35.6666 31.49C35.3466 31.6833 35.0899 31.9433 34.8966 32.27C34.7099 32.59 34.6166 32.9433 34.6166 33.33V39H32.1766ZM52.39 44H49.95V29H52.39V30.27C52.7167 29.8167 53.1167 29.45 53.59 29.17C54.07 28.8833 54.63 28.74 55.27 28.74C56.0033 28.74 56.6867 28.8767 57.32 29.15C57.9533 29.4233 58.51 29.8033 58.99 30.29C59.4767 30.77 59.8533 31.3267 60.12 31.96C60.3933 32.5933 60.53 33.2733 60.53 34C60.53 34.7267 60.3933 35.41 60.12 36.05C59.8533 36.69 59.4767 37.2533 58.99 37.74C58.51 38.22 57.9533 38.5967 57.32 38.87C56.6867 39.1433 56.0033 39.28 55.27 39.28C54.63 39.28 54.07 39.14 53.59 38.86C53.1167 38.5733 52.7167 38.2033 52.39 37.75V44ZM55.24 31.09C54.7333 31.09 54.28 31.2233 53.88 31.49C53.48 31.75 53.1667 32.1 52.94 32.54C52.7133 32.98 52.6 33.4667 52.6 34C52.6 34.5333 52.7133 35.0233 52.94 35.47C53.1667 35.91 53.48 36.2633 53.88 36.53C54.28 36.79 54.7333 36.92 55.24 36.92C55.7533 36.92 56.2233 36.79 56.65 36.53C57.0767 36.27 57.4167 35.92 57.67 35.48C57.9233 35.0333 58.05 34.54 58.05 34C58.05 33.4667 57.9233 32.98 57.67 32.54C57.4167 32.1 57.0767 31.75 56.65 31.49C56.23 31.2233 55.76 31.09 55.24 31.09ZM61.9422 39V24H64.3822V39H61.9422ZM71.0297 39.26C70.1097 39.26 69.2697 39.0233 68.5097 38.55C67.7564 38.0767 67.153 37.4433 66.6997 36.65C66.253 35.85 66.0297 34.9667 66.0297 34C66.0297 33.2667 66.1597 32.5833 66.4197 31.95C66.6797 31.31 67.0364 30.75 67.4897 30.27C67.9497 29.7833 68.483 29.4033 69.0897 29.13C69.6964 28.8567 70.343 28.72 71.0297 28.72C71.9497 28.72 72.7864 28.9567 73.5397 29.43C74.2997 29.9033 74.903 30.54 75.3497 31.34C75.803 32.14 76.0297 33.0267 76.0297 34C76.0297 34.7267 75.8997 35.4067 75.6397 36.04C75.3797 36.6733 75.0197 37.2333 74.5597 37.72C74.1064 38.2 73.5764 38.5767 72.9697 38.85C72.3697 39.1233 71.723 39.26 71.0297 39.26ZM71.0297 36.82C71.5164 36.82 71.953 36.69 72.3397 36.43C72.7264 36.17 73.0297 35.8267 73.2497 35.4C73.4764 34.9733 73.5897 34.5067 73.5897 34C73.5897 33.48 73.473 33.0067 73.2397 32.58C73.013 32.1467 72.703 31.8033 72.3097 31.55C71.923 31.29 71.4964 31.16 71.0297 31.16C70.5497 31.16 70.1164 31.29 69.7297 31.55C69.343 31.81 69.0364 32.1567 68.8097 32.59C68.583 33.0233 68.4697 33.4933 68.4697 34C68.4697 34.5267 68.5864 35.0033 68.8197 35.43C69.053 35.8567 69.363 36.1967 69.7497 36.45C70.143 36.6967 70.5697 36.82 71.0297 36.82ZM83.8217 29H86.4117L80.9417 44H78.3517L80.1617 39L76.5617 29H79.2317L81.3817 35.66L83.8217 29ZM88.0164 39V29H90.4564V29.89C90.7964 29.53 91.2031 29.2467 91.6764 29.04C92.1497 28.8267 92.6597 28.72 93.2064 28.72C93.8997 28.72 94.5364 28.8833 95.1164 29.21C95.7031 29.5367 96.1697 29.9733 96.5164 30.52C96.8697 29.9733 97.3364 29.5367 97.9164 29.21C98.4964 28.8833 99.1331 28.72 99.8264 28.72C100.56 28.72 101.223 28.9 101.816 29.26C102.416 29.6133 102.893 30.09 103.246 30.69C103.606 31.2833 103.786 31.9467 103.786 32.68V39H101.346V33.33C101.346 32.9433 101.25 32.59 101.056 32.27C100.87 31.9433 100.616 31.6833 100.296 31.49C99.9831 31.29 99.6297 31.19 99.2364 31.19C98.8431 31.19 98.4864 31.2867 98.1664 31.48C97.8531 31.6667 97.5997 31.92 97.4064 32.24C97.2131 32.56 97.1164 32.9233 97.1164 33.33V39H94.6764V33.33C94.6764 32.9233 94.5831 32.56 94.3964 32.24C94.2097 31.92 93.9564 31.6667 93.6364 31.48C93.3164 31.2867 92.9597 31.19 92.5664 31.19C92.1797 31.19 91.8264 31.29 91.5064 31.49C91.1864 31.6833 90.9297 31.9433 90.7364 32.27C90.5497 32.59 90.4564 32.9433 90.4564 33.33V39H88.0164ZM109.995 39.26C109.075 39.26 108.235 39.0233 107.475 38.55C106.721 38.0767 106.118 37.44 105.665 36.64C105.218 35.84 104.995 34.9567 104.995 33.99C104.995 33.2633 105.125 32.5833 105.385 31.95C105.645 31.31 106.001 30.75 106.455 30.27C106.915 29.7833 107.448 29.4033 108.055 29.13C108.661 28.8567 109.308 28.72 109.995 28.72C110.775 28.72 111.488 28.8867 112.135 29.22C112.788 29.5467 113.341 29.9967 113.795 30.57C114.248 31.1433 114.578 31.7967 114.785 32.53C114.991 33.2633 115.038 34.03 114.925 34.83H107.615C107.708 35.2033 107.861 35.54 108.075 35.84C108.288 36.1333 108.558 36.37 108.885 36.55C109.211 36.7233 109.581 36.8133 109.995 36.82C110.421 36.8267 110.808 36.7267 111.155 36.52C111.508 36.3067 111.801 36.02 112.035 35.66L114.525 36.24C114.118 37.1267 113.511 37.8533 112.705 38.42C111.898 38.98 110.995 39.26 109.995 39.26ZM107.535 33H112.455C112.381 32.6 112.225 32.24 111.985 31.92C111.751 31.5933 111.461 31.3333 111.115 31.14C110.768 30.9467 110.395 30.85 109.995 30.85C109.595 30.85 109.225 30.9467 108.885 31.14C108.545 31.3267 108.255 31.5833 108.015 31.91C107.781 32.23 107.621 32.5933 107.535 33ZM125.712 32.68V39H123.272V33.32C123.272 32.9267 123.175 32.57 122.982 32.25C122.788 31.9233 122.528 31.6667 122.202 31.48C121.882 31.2867 121.525 31.19 121.132 31.19C120.738 31.19 120.378 31.2867 120.052 31.48C119.732 31.6667 119.475 31.9233 119.282 32.25C119.095 32.57 119.002 32.9267 119.002 33.32V39H116.562L116.552 29H118.992L119.002 29.89C119.342 29.53 119.748 29.2467 120.222 29.04C120.695 28.8267 121.205 28.72 121.752 28.72C122.478 28.72 123.142 28.9 123.742 29.26C124.342 29.6133 124.818 30.09 125.172 30.69C125.532 31.2833 125.712 31.9467 125.712 32.68ZM133.064 31.44H131.124V39H128.684V31.44H127.204V29H128.684V25.86H131.124V29H133.064V31.44ZM150.277 25V27.44H145.997V39H143.557V27.44H139.277V25H150.277ZM157.435 29H160.025L154.555 44H151.965L153.775 39L150.175 29H152.845L154.995 35.66L157.435 29ZM163.913 44H161.473V29H163.913V30.27C164.24 29.8167 164.64 29.45 165.113 29.17C165.593 28.8833 166.153 28.74 166.793 28.74C167.527 28.74 168.21 28.8767 168.843 29.15C169.477 29.4233 170.033 29.8033 170.513 30.29C171 30.77 171.377 31.3267 171.643 31.96C171.917 32.5933 172.053 33.2733 172.053 34C172.053 34.7267 171.917 35.41 171.643 36.05C171.377 36.69 171 37.2533 170.513 37.74C170.033 38.22 169.477 38.5967 168.843 38.87C168.21 39.1433 167.527 39.28 166.793 39.28C166.153 39.28 165.593 39.14 165.113 38.86C164.64 38.5733 164.24 38.2033 163.913 37.75V44ZM166.763 31.09C166.257 31.09 165.803 31.2233 165.403 31.49C165.003 31.75 164.69 32.1 164.463 32.54C164.237 32.98 164.123 33.4667 164.123 34C164.123 34.5333 164.237 35.0233 164.463 35.47C164.69 35.91 165.003 36.2633 165.403 36.53C165.803 36.79 166.257 36.92 166.763 36.92C167.277 36.92 167.747 36.79 168.173 36.53C168.6 36.27 168.94 35.92 169.193 35.48C169.447 35.0333 169.573 34.54 169.573 34C169.573 33.4667 169.447 32.98 169.193 32.54C168.94 32.1 168.6 31.75 168.173 31.49C167.753 31.2233 167.283 31.09 166.763 31.09ZM178.061 39.26C177.141 39.26 176.301 39.0233 175.541 38.55C174.788 38.0767 174.184 37.44 173.731 36.64C173.284 35.84 173.061 34.9567 173.061 33.99C173.061 33.2633 173.191 32.5833 173.451 31.95C173.711 31.31 174.068 30.75 174.521 30.27C174.981 29.7833 175.514 29.4033 176.121 29.13C176.728 28.8567 177.374 28.72 178.061 28.72C178.841 28.72 179.554 28.8867 180.201 29.22C180.854 29.5467 181.408 29.9967 181.861 30.57C182.314 31.1433 182.644 31.7967 182.851 32.53C183.058 33.2633 183.104 34.03 182.991 34.83H175.681C175.774 35.2033 175.928 35.54 176.141 35.84C176.354 36.1333 176.624 36.37 176.951 36.55C177.278 36.7233 177.648 36.8133 178.061 36.82C178.488 36.8267 178.874 36.7267 179.221 36.52C179.574 36.3067 179.868 36.02 180.101 35.66L182.591 36.24C182.184 37.1267 181.578 37.8533 180.771 38.42C179.964 38.98 179.061 39.26 178.061 39.26ZM175.601 33H180.521C180.448 32.6 180.291 32.24 180.051 31.92C179.818 31.5933 179.528 31.3333 179.181 31.14C178.834 30.9467 178.461 30.85 178.061 30.85C177.661 30.85 177.291 30.9467 176.951 31.14C176.611 31.3267 176.321 31.5833 176.081 31.91C175.848 32.23 175.688 32.5933 175.601 33Z" fill="#212121"/>
<path d="M355.53 36.0303C355.264 36.2966 354.847 36.3208 354.554 36.1029L354.47 36.0303L348 29.561L341.53 36.0303C341.264 36.2966 340.847 36.3208 340.554 36.1029L340.47 36.0303C340.203 35.7641 340.179 35.3474 340.397 35.0538L340.47 34.9697L347.47 27.9697C347.736 27.7034 348.153 27.6792 348.446 27.8971L348.53 27.9697L355.53 34.9697C355.823 35.2626 355.823 35.7374 355.53 36.0303Z" fill="#222222"/>
<line x1="20" y1="63.5" x2="360" y2="63.5" stroke="#EEEEEE"/>
<path d="M20 91.6667C20 87.9848 22.9848 85 26.6667 85H33.3333C37.0152 85 40 87.9848 40 91.6667V98.3333C40 102.015 37.0152 105 33.3333 105H26.6667C22.9848 105 20 102.015 20 98.3333V91.6667Z" fill="#222222"/>
<path fill-rule="evenodd" clip-rule="evenodd" d="M35.0506 91.6161C35.5388 92.1043 35.5388 92.8957 35.0506 93.3839L30.0506 98.3839C29.5625 98.872 28.771 98.872 28.2829 98.3839L25.7829 95.8839C25.2947 95.3957 25.2947 94.6043 25.7829 94.1161C26.271 93.628 27.0625 93.628 27.5506 94.1161L29.1667 95.7322L33.2829 91.6161C33.771 91.128 34.5625 91.128 35.0506 91.6161Z" fill="white"/>
<path d="M56.96 101V89.8H63.56V91.464H58.624V94.168H62.792V95.832H58.624V101H56.96ZM64.2619 98V93H65.9259V97.592C65.9259 97.9493 66.0139 98.2747 66.1899 98.568C66.3659 98.8613 66.6005 99.096 66.8939 99.272C67.1872 99.4427 67.5099 99.528 67.8619 99.528C68.2192 99.528 68.5419 99.4427 68.8299 99.272C69.1232 99.096 69.3552 98.8613 69.5259 98.568C69.7019 98.2747 69.7899 97.9493 69.7899 97.592V93H71.4539L71.4619 101H69.7979L69.7899 100.136C69.5179 100.467 69.1792 100.728 68.7739 100.92C68.3685 101.112 67.9339 101.208 67.4699 101.208C66.8779 101.208 66.3392 101.064 65.8539 100.776C65.3685 100.488 64.9819 100.101 64.6939 99.616C64.4059 99.1307 64.2619 98.592 64.2619 98ZM73.3287 101V89H74.9927V101H73.3287ZM77.1069 101V89H78.7709V101H77.1069ZM93.4008 89.8V91.464H89.8328V101H88.1688V91.464H84.6088V89.8H93.4008ZM94.41 93H96.074V101H94.41V93ZM95.258 91.84C95.002 91.84 94.7887 91.7573 94.618 91.592C94.4473 91.4267 94.362 91.2187 94.362 90.968C94.362 90.7227 94.4473 90.5173 94.618 90.352C94.7887 90.1813 94.9993 90.096 95.25 90.096C95.4953 90.096 95.7033 90.1813 95.874 90.352C96.0447 90.5173 96.13 90.7227 96.13 90.968C96.13 91.2187 96.0447 91.4267 95.874 91.592C95.7087 91.7573 95.5033 91.84 95.258 91.84ZM98.1256 101V93H99.7896V93.848C100.067 93.5173 100.406 93.256 100.806 93.064C101.211 92.872 101.648 92.776 102.118 92.776C102.688 92.776 103.214 92.9147 103.694 93.192C104.174 93.464 104.555 93.8267 104.838 94.28C105.12 93.8267 105.496 93.464 105.966 93.192C106.44 92.9147 106.963 92.776 107.534 92.776C108.126 92.776 108.664 92.92 109.15 93.208C109.635 93.496 110.022 93.8827 110.31 94.368C110.598 94.8533 110.742 95.392 110.742 95.984V101H109.078V96.408C109.078 96.056 108.992 95.7333 108.822 95.44C108.651 95.1467 108.422 94.9093 108.134 94.728C107.846 94.5467 107.526 94.456 107.174 94.456C106.822 94.456 106.502 94.5413 106.214 94.712C105.926 94.8827 105.696 95.1147 105.526 95.408C105.355 95.7013 105.27 96.0347 105.27 96.408V101H103.606V96.408C103.606 96.0347 103.52 95.7013 103.35 95.408C103.179 95.1147 102.947 94.8827 102.654 94.712C102.366 94.5413 102.046 94.456 101.694 94.456C101.347 94.456 101.027 94.5467 100.734 94.728C100.446 94.9093 100.216 95.1467 100.046 95.44C99.875 95.7333 99.7896 96.056 99.7896 96.408V101H98.1256ZM115.908 101.208C115.172 101.208 114.5 101.019 113.892 100.64C113.289 100.261 112.807 99.7547 112.444 99.12C112.087 98.48 111.908 97.7733 111.908 97C111.908 96.4133 112.012 95.8667 112.22 95.36C112.428 94.848 112.713 94.4 113.076 94.016C113.444 93.6267 113.871 93.3227 114.356 93.104C114.841 92.8853 115.359 92.776 115.908 92.776C116.521 92.776 117.084 92.904 117.596 93.16C118.108 93.4107 118.545 93.76 118.908 94.208C119.271 94.6507 119.537 95.1627 119.708 95.744C119.879 96.32 119.929 96.9333 119.86 97.584H113.692C113.761 97.952 113.895 98.2853 114.092 98.584C114.295 98.8773 114.551 99.1093 114.86 99.28C115.175 99.4507 115.524 99.5387 115.908 99.544C116.313 99.544 116.681 99.4427 117.012 99.24C117.348 99.0373 117.623 98.7573 117.836 98.4L119.524 98.792C119.204 99.5013 118.721 100.083 118.076 100.536C117.431 100.984 116.708 101.208 115.908 101.208ZM113.636 96.312H118.18C118.127 95.928 117.991 95.5813 117.772 95.272C117.559 94.9573 117.289 94.7093 116.964 94.528C116.644 94.3413 116.292 94.248 115.908 94.248C115.529 94.248 115.177 94.3387 114.852 94.52C114.532 94.7013 114.265 94.9493 114.052 95.264C113.844 95.5733 113.705 95.9227 113.636 96.312Z" fill="#212121"/>
<path d="M20 133.667C20 129.985 22.9848 127 26.6667 127H33.3333C37.0152 127 40 129.985 40 133.667V140.333C40 144.015 37.0152 147 33.3333 147H26.6667C22.9848 147 20 144.015 20 140.333V133.667Z" fill="#222222"/>
<path fill-rule="evenodd" clip-rule="evenodd" d="M35.0506 133.616C35.5388 134.104 35.5388 134.896 35.0506 135.384L30.0506 140.384C29.5625 140.872 28.771 140.872 28.2829 140.384L25.7829 137.884C25.2947 137.396 25.2947 136.604 25.7829 136.116C26.271 135.628 27.0625 135.628 27.5506 136.116L29.1667 137.732L33.2829 133.616C33.771 133.128 34.5625 133.128 35.0506 133.616Z" fill="white"/>
<path d="M56.96 143V131.8H60.816C61.4187 131.8 61.9627 131.949 62.448 132.248C62.9387 132.547 63.328 132.949 63.616 133.456C63.9093 133.963 64.056 134.523 64.056 135.136C64.056 135.76 63.9067 136.325 63.608 136.832C63.3147 137.333 62.9227 137.733 62.432 138.032C61.9413 138.331 61.4027 138.48 60.816 138.48H58.624V143H56.96ZM58.624 136.816H60.648C60.968 136.816 61.2587 136.736 61.52 136.576C61.7867 136.416 61.9973 136.203 62.152 135.936C62.312 135.669 62.392 135.368 62.392 135.032C62.392 134.696 62.312 134.395 62.152 134.128C61.9973 133.856 61.7867 133.643 61.52 133.488C61.2587 133.328 60.968 133.248 60.648 133.248H58.624V136.816ZM71.3996 135H73.0636V143H71.3916L71.3276 141.84C71.093 142.251 70.7756 142.581 70.3756 142.832C69.9756 143.083 69.5036 143.208 68.9596 143.208C68.373 143.208 67.821 143.099 67.3036 142.88C66.7863 142.656 66.3303 142.347 65.9356 141.952C65.5463 141.557 65.2423 141.104 65.0236 140.592C64.805 140.075 64.6956 139.52 64.6956 138.928C64.6956 138.357 64.8023 137.821 65.0156 137.32C65.229 136.813 65.525 136.371 65.9036 135.992C66.2823 135.613 66.7196 135.317 67.2156 135.104C67.717 134.885 68.253 134.776 68.8236 134.776C69.405 134.776 69.917 134.909 70.3596 135.176C70.8076 135.437 71.1783 135.773 71.4716 136.184L71.3996 135ZM68.9196 141.6C69.389 141.6 69.7996 141.485 70.1516 141.256C70.5036 141.021 70.7756 140.707 70.9676 140.312C71.165 139.917 71.2636 139.48 71.2636 139C71.2636 138.515 71.165 138.075 70.9676 137.68C70.7703 137.285 70.4956 136.973 70.1436 136.744C69.797 136.509 69.389 136.392 68.9196 136.392C68.4556 136.392 68.0316 136.509 67.6476 136.744C67.2636 136.979 66.9596 137.293 66.7356 137.688C66.5116 138.083 66.3996 138.52 66.3996 139C66.3996 139.485 66.5143 139.925 66.7436 140.32C66.9783 140.709 67.285 141.021 67.6636 141.256C68.0476 141.485 68.4663 141.6 68.9196 141.6ZM74.86 143V135H76.524V135.848C76.8013 135.517 77.1427 135.256 77.548 135.064C77.9533 134.872 78.3907 134.776 78.86 134.776C79.1587 134.776 79.4547 134.816 79.748 134.896L79.084 136.576C78.876 136.496 78.668 136.456 78.46 136.456C78.108 136.456 77.7853 136.544 77.492 136.72C77.1987 136.891 76.964 137.123 76.788 137.416C76.612 137.709 76.524 138.035 76.524 138.392V143H74.86ZM85.2996 136.664H83.6196L83.6116 143H81.9476L81.9556 136.664H80.6836V135H81.9556L81.9476 132.488H83.6116L83.6196 135H85.2996V136.664ZM99.4476 131.8V133.464H95.8796V143H94.2156V133.464H90.6556V131.8H99.4476ZM100.457 135H102.121V143H100.457V135ZM101.305 133.84C101.049 133.84 100.836 133.757 100.665 133.592C100.494 133.427 100.409 133.219 100.409 132.968C100.409 132.723 100.494 132.517 100.665 132.352C100.836 132.181 101.046 132.096 101.297 132.096C101.542 132.096 101.75 132.181 101.921 132.352C102.092 132.517 102.177 132.723 102.177 132.968C102.177 133.219 102.092 133.427 101.921 133.592C101.756 133.757 101.55 133.84 101.305 133.84ZM104.173 143V135H105.837V135.848C106.114 135.517 106.453 135.256 106.853 135.064C107.258 134.872 107.695 134.776 108.165 134.776C108.735 134.776 109.261 134.915 109.741 135.192C110.221 135.464 110.602 135.827 110.885 136.28C111.167 135.827 111.543 135.464 112.013 135.192C112.487 134.915 113.01 134.776 113.581 134.776C114.173 134.776 114.711 134.92 115.197 135.208C115.682 135.496 116.069 135.883 116.357 136.368C116.645 136.853 116.789 137.392 116.789 137.984V143H115.125V138.408C115.125 138.056 115.039 137.733 114.869 137.44C114.698 137.147 114.469 136.909 114.181 136.728C113.893 136.547 113.573 136.456 113.221 136.456C112.869 136.456 112.549 136.541 112.261 136.712C111.973 136.883 111.743 137.115 111.573 137.408C111.402 137.701 111.317 138.035 111.317 138.408V143H109.653V138.408C109.653 138.035 109.567 137.701 109.397 137.408C109.226 137.115 108.994 136.883 108.701 136.712C108.413 136.541 108.093 136.456 107.741 136.456C107.394 136.456 107.074 136.547 106.781 136.728C106.493 136.909 106.263 137.147 106.093 137.44C105.922 137.733 105.837 138.056 105.837 138.408V143H104.173ZM121.955 143.208C121.219 143.208 120.547 143.019 119.939 142.64C119.336 142.261 118.854 141.755 118.491 141.12C118.134 140.48 117.955 139.773 117.955 139C117.955 138.413 118.059 137.867 118.267 137.36C118.475 136.848 118.76 136.4 119.123 136.016C119.491 135.627 119.918 135.323 120.403 135.104C120.888 134.885 121.406 134.776 121.955 134.776C122.568 134.776 123.131 134.904 123.643 135.16C124.155 135.411 124.592 135.76 124.955 136.208C125.318 136.651 125.584 137.163 125.755 137.744C125.926 138.32 125.976 138.933 125.907 139.584H119.739C119.808 139.952 119.942 140.285 120.139 140.584C120.342 140.877 120.598 141.109 120.907 141.28C121.222 141.451 121.571 141.539 121.955 141.544C122.36 141.544 122.728 141.443 123.059 141.24C123.395 141.037 123.67 140.757 123.883 140.4L125.571 140.792C125.251 141.501 124.768 142.083 124.123 142.536C123.478 142.984 122.755 143.208 121.955 143.208ZM119.683 138.312H124.227C124.174 137.928 124.038 137.581 123.819 137.272C123.606 136.957 123.336 136.709 123.011 136.528C122.691 136.341 122.339 136.248 121.955 136.248C121.576 136.248 121.224 136.339 120.899 136.52C120.579 136.701 120.312 136.949 120.099 137.264C119.891 137.573 119.752 137.923 119.683 138.312Z" fill="#212121"/>
<path fill-rule="evenodd" clip-rule="evenodd" d="M33.3333 171.5H26.6667C24.3655 171.5 22.5 173.365 22.5 175.667V182.333C22.5 184.635 24.3655 186.5 26.6667 186.5H33.3333C35.6345 186.5 37.5 184.635 37.5 182.333V175.667C37.5 173.365 35.6345 171.5 33.3333 171.5ZM26.6667 169C22.9848 169 20 171.985 20 175.667V182.333C20 186.015 22.9848 189 26.6667 189H33.3333C37.0152 189 40 186.015 40 182.333V175.667C40 171.985 37.0152 169 33.3333 169H26.6667Z" fill="#222222"/>
<path d="M56.96 185V173.8H63.56V175.464H58.624V178.168H62.792V179.832H58.624V185H56.96ZM64.535 185V177H66.199V177.848C66.4763 177.517 66.8177 177.256 67.223 177.064C67.6283 176.872 68.0657 176.776 68.535 176.776C68.8337 176.776 69.1297 176.816 69.423 176.896L68.759 178.576C68.551 178.496 68.343 178.456 68.135 178.456C67.783 178.456 67.4603 178.544 67.167 178.72C66.8737 178.891 66.639 179.123 66.463 179.416C66.287 179.709 66.199 180.035 66.199 180.392V185H64.535ZM73.6925 185.208C72.9565 185.208 72.2845 185.019 71.6765 184.64C71.0738 184.261 70.5912 183.755 70.2285 183.12C69.8712 182.48 69.6925 181.773 69.6925 181C69.6925 180.413 69.7965 179.867 70.0045 179.36C70.2125 178.848 70.4978 178.4 70.8605 178.016C71.2285 177.627 71.6552 177.323 72.1405 177.104C72.6258 176.885 73.1432 176.776 73.6925 176.776C74.3058 176.776 74.8685 176.904 75.3805 177.16C75.8925 177.411 76.3298 177.76 76.6925 178.208C77.0552 178.651 77.3218 179.163 77.4925 179.744C77.6632 180.32 77.7138 180.933 77.6445 181.584H71.4765C71.5458 181.952 71.6792 182.285 71.8765 182.584C72.0792 182.877 72.3352 183.109 72.6445 183.28C72.9592 183.451 73.3085 183.539 73.6925 183.544C74.0978 183.544 74.4658 183.443 74.7965 183.24C75.1325 183.037 75.4072 182.757 75.6205 182.4L77.3085 182.792C76.9885 183.501 76.5058 184.083 75.8605 184.536C75.2152 184.984 74.4925 185.208 73.6925 185.208ZM71.4205 180.312H75.9645C75.9112 179.928 75.7752 179.581 75.5565 179.272C75.3432 178.957 75.0738 178.709 74.7485 178.528C74.4285 178.341 74.0765 178.248 73.6925 178.248C73.3138 178.248 72.9618 178.339 72.6365 178.52C72.3165 178.701 72.0498 178.949 71.8365 179.264C71.6285 179.573 71.4898 179.923 71.4205 180.312ZM82.6738 185.208C81.9378 185.208 81.2658 185.019 80.6578 184.64C80.0551 184.261 79.5724 183.755 79.2098 183.12C78.8524 182.48 78.6738 181.773 78.6738 181C78.6738 180.413 78.7778 179.867 78.9858 179.36C79.1938 178.848 79.4791 178.4 79.8418 178.016C80.2098 177.627 80.6364 177.323 81.1218 177.104C81.6071 176.885 82.1244 176.776 82.6738 176.776C83.2871 176.776 83.8498 176.904 84.3618 177.16C84.8738 177.411 85.3111 177.76 85.6738 178.208C86.0364 178.651 86.3031 179.163 86.4738 179.744C86.6444 180.32 86.6951 180.933 86.6258 181.584H80.4578C80.5271 181.952 80.6604 182.285 80.8578 182.584C81.0604 182.877 81.3164 183.109 81.6258 183.28C81.9404 183.451 82.2898 183.539 82.6738 183.544C83.0791 183.544 83.4471 183.443 83.7778 183.24C84.1138 183.037 84.3884 182.757 84.6018 182.4L86.2898 182.792C85.9698 183.501 85.4871 184.083 84.8418 184.536C84.1964 184.984 83.4738 185.208 82.6738 185.208ZM80.4018 180.312H84.9458C84.8924 179.928 84.7564 179.581 84.5378 179.272C84.3244 178.957 84.0551 178.709 83.7298 178.528C83.4098 178.341 83.0578 178.248 82.6738 178.248C82.2951 178.248 81.9431 178.339 81.6178 178.52C81.2978 178.701 81.0311 178.949 80.8178 179.264C80.6098 179.573 80.4711 179.923 80.4018 180.312ZM88.0412 185V173H89.7052V185H88.0412ZM97.934 177H99.598V185H97.926L97.862 183.84C97.6273 184.251 97.31 184.581 96.91 184.832C96.51 185.083 96.038 185.208 95.494 185.208C94.9073 185.208 94.3553 185.099 93.838 184.88C93.3207 184.656 92.8647 184.347 92.47 183.952C92.0807 183.557 91.7767 183.104 91.558 182.592C91.3393 182.075 91.23 181.52 91.23 180.928C91.23 180.357 91.3367 179.821 91.55 179.32C91.7633 178.813 92.0593 178.371 92.438 177.992C92.8167 177.613 93.254 177.317 93.75 177.104C94.2513 176.885 94.7873 176.776 95.358 176.776C95.9393 176.776 96.4513 176.909 96.894 177.176C97.342 177.437 97.7127 177.773 98.006 178.184L97.934 177ZM95.454 183.6C95.9233 183.6 96.334 183.485 96.686 183.256C97.038 183.021 97.31 182.707 97.502 182.312C97.6993 181.917 97.798 181.48 97.798 181C97.798 180.515 97.6993 180.075 97.502 179.68C97.3047 179.285 97.03 178.973 96.678 178.744C96.3313 178.509 95.9233 178.392 95.454 178.392C94.99 178.392 94.566 178.509 94.182 178.744C93.798 178.979 93.494 179.293 93.27 179.688C93.046 180.083 92.934 180.52 92.934 181C92.934 181.485 93.0487 181.925 93.278 182.32C93.5127 182.709 93.8193 183.021 94.198 183.256C94.582 183.485 95.0007 183.6 95.454 183.6ZM108.594 179.984V185H106.93V180.392C106.93 180.035 106.842 179.709 106.666 179.416C106.496 179.123 106.264 178.891 105.97 178.72C105.682 178.544 105.357 178.456 104.994 178.456C104.642 178.456 104.32 178.544 104.026 178.72C103.733 178.891 103.498 179.123 103.322 179.416C103.146 179.709 103.058 180.035 103.058 180.392V185H101.394V177H103.058V177.848C103.336 177.517 103.677 177.256 104.082 177.064C104.488 176.872 104.925 176.776 105.394 176.776C105.986 176.776 106.525 176.92 107.01 177.208C107.496 177.496 107.88 177.883 108.162 178.368C108.45 178.853 108.594 179.392 108.594 179.984ZM115.459 182.728L116.947 183.536C116.584 184.043 116.123 184.448 115.563 184.752C115.008 185.056 114.406 185.208 113.755 185.208C113.019 185.208 112.347 185.019 111.739 184.64C111.136 184.261 110.654 183.755 110.291 183.12C109.934 182.48 109.755 181.773 109.755 181C109.755 180.413 109.859 179.867 110.067 179.36C110.275 178.848 110.56 178.4 110.923 178.016C111.291 177.627 111.718 177.323 112.203 177.104C112.688 176.885 113.206 176.776 113.755 176.776C114.406 176.776 115.008 176.928 115.563 177.232C116.123 177.536 116.584 177.944 116.947 178.456L115.459 179.264C115.235 178.997 114.974 178.795 114.675 178.656C114.376 178.512 114.07 178.44 113.755 178.44C113.318 178.44 112.92 178.56 112.563 178.8C112.211 179.035 111.931 179.347 111.723 179.736C111.52 180.12 111.419 180.541 111.419 181C111.419 181.453 111.523 181.875 111.731 182.264C111.939 182.648 112.219 182.957 112.571 183.192C112.928 183.427 113.323 183.544 113.755 183.544C114.086 183.544 114.4 183.469 114.699 183.32C114.998 183.171 115.251 182.973 115.459 182.728ZM121.908 185.208C121.172 185.208 120.5 185.019 119.892 184.64C119.289 184.261 118.807 183.755 118.444 183.12C118.087 182.48 117.908 181.773 117.908 181C117.908 180.413 118.012 179.867 118.22 179.36C118.428 178.848 118.713 178.4 119.076 178.016C119.444 177.627 119.871 177.323 120.356 177.104C120.841 176.885 121.359 176.776 121.908 176.776C122.521 176.776 123.084 176.904 123.596 177.16C124.108 177.411 124.545 177.76 124.908 178.208C125.271 178.651 125.537 179.163 125.708 179.744C125.879 180.32 125.929 180.933 125.86 181.584H119.692C119.761 181.952 119.895 182.285 120.092 182.584C120.295 182.877 120.551 183.109 120.86 183.28C121.175 183.451 121.524 183.539 121.908 183.544C122.313 183.544 122.681 183.443 123.012 183.24C123.348 183.037 123.623 182.757 123.836 182.4L125.524 182.792C125.204 183.501 124.721 184.083 124.076 184.536C123.431 184.984 122.708 185.208 121.908 185.208ZM119.636 180.312H124.18C124.127 179.928 123.991 179.581 123.772 179.272C123.559 178.957 123.289 178.709 122.964 178.528C122.644 178.341 122.292 178.248 121.908 178.248C121.529 178.248 121.177 178.339 120.852 178.52C120.532 178.701 120.265 178.949 120.052 179.264C119.844 179.573 119.705 179.923 119.636 180.312Z" fill="#212121"/>
</svg>
