<svg width="428" height="440" viewBox="0 0 428 440" fill="none" xmlns="http://www.w3.org/2000/svg">
<g clip-path="url(#clip0_1738_37529)">
<rect y="-742" width="428" height="1182" rx="30" fill="white"/>
<rect x="24" y="-33" width="380" height="60" rx="30" fill="#FAFAFA"/>
<path d="M48.48 3.208C47.744 3.208 47.072 3.01867 46.464 2.64C45.8613 2.26133 45.3787 1.752 45.016 1.112C44.6587 0.472 44.48 -0.234667 44.48 -1.008C44.48 -1.58933 44.584 -2.13333 44.792 -2.64C45 -3.152 45.2853 -3.6 45.648 -3.984C46.016 -4.37333 46.4427 -4.67733 46.928 -4.896C47.4133 -5.11467 47.9307 -5.224 48.48 -5.224C49.104 -5.224 49.6747 -5.09067 50.192 -4.824C50.7147 -4.56267 51.1573 -4.20267 51.52 -3.744C51.8827 -3.28533 52.1467 -2.76267 52.312 -2.176C52.4773 -1.58933 52.5147 -0.976 52.424 -0.336H46.576C46.6507 -0.0373336 46.7733 0.232 46.944 0.472C47.1147 0.706667 47.3307 0.896 47.592 1.04C47.8533 1.17867 48.1493 1.25067 48.48 1.256C48.8213 1.26133 49.1307 1.18133 49.408 1.016C49.6907 0.845333 49.9253 0.616 50.112 0.328L52.104 0.792C51.7787 1.50133 51.2933 2.08267 50.648 2.536C50.0027 2.984 49.28 3.208 48.48 3.208ZM46.512 -1.8H50.448C50.3893 -2.12 50.264 -2.408 50.072 -2.664C49.8853 -2.92533 49.6533 -3.13333 49.376 -3.288C49.0987 -3.44267 48.8 -3.52 48.48 -3.52C48.16 -3.52 47.864 -3.44267 47.592 -3.288C47.32 -3.13867 47.088 -2.93333 46.896 -2.672C46.7093 -2.416 46.5813 -2.12533 46.512 -1.8ZM52.9494 3L55.8774 -1.016L52.9734 -5.008H55.3814L57.0774 -2.68L58.7814 -5.008H61.1894L58.2854 -1.016L61.2134 3H58.8054L57.0774 0.632L55.3574 3H52.9494ZM63.6962 -2.992C63.4189 -2.992 63.1816 -3.088 62.9842 -3.28C62.7922 -3.47733 62.6962 -3.71733 62.6962 -4C62.6962 -4.272 62.7922 -4.50667 62.9842 -4.704C63.1816 -4.90133 63.4189 -5 63.6962 -5C63.9736 -5 64.2109 -4.90133 64.4082 -4.704C64.6056 -4.50667 64.7042 -4.272 64.7042 -4C64.7042 -3.71733 64.6056 -3.47733 64.4082 -3.28C64.2109 -3.088 63.9736 -2.992 63.6962 -2.992ZM63.6962 3.208C63.4189 3.208 63.1816 3.112 62.9842 2.92C62.7922 2.72267 62.6962 2.48267 62.6962 2.2C62.6962 1.928 62.7922 1.69333 62.9842 1.496C63.1816 1.29867 63.4189 1.2 63.6962 1.2C63.9736 1.2 64.2109 1.29867 64.4082 1.496C64.6056 1.69333 64.7042 1.928 64.7042 2.2C64.7042 2.48267 64.6056 2.72267 64.4082 2.92C64.2109 3.112 63.9736 3.208 63.6962 3.208ZM74.7414 -6.432C74.3627 -6.43733 74.0027 -6.376 73.6614 -6.248C73.3254 -6.12533 73.0507 -5.95733 72.8374 -5.744C72.624 -5.53067 72.5174 -5.28533 72.5174 -5.008C72.5174 -4.65067 72.616 -4.38133 72.8134 -4.2C73.016 -4.01867 73.2854 -3.88533 73.6214 -3.8C73.9574 -3.72 74.3307 -3.64533 74.7414 -3.576C75.488 -3.45867 76.1787 -3.26133 76.8134 -2.984C77.448 -2.70667 77.9574 -2.336 78.3414 -1.872C78.7254 -1.41333 78.9174 -0.850667 78.9174 -0.184C78.9174 0.424 78.76 0.965333 78.4454 1.44C78.1307 1.90933 77.7067 2.29333 77.1734 2.592C76.6454 2.89067 76.0587 3.08 75.4134 3.16V4.792H74.0774V3.16C73.5387 3.096 73.032 2.96 72.5574 2.752C72.0827 2.544 71.6694 2.272 71.3174 1.936C70.9707 1.6 70.7147 1.208 70.5494 0.76L72.3814 0.0879998C72.456 0.301333 72.608 0.496 72.8374 0.672C73.0667 0.848 73.3467 0.989333 73.6774 1.096C74.008 1.20267 74.3627 1.256 74.7414 1.256C75.1307 1.256 75.4934 1.19733 75.8294 1.08C76.1707 0.957333 76.4454 0.789333 76.6534 0.576C76.8614 0.357333 76.9654 0.104 76.9654 -0.184C76.9654 -0.477333 76.856 -0.717333 76.6374 -0.904C76.4187 -1.096 76.1387 -1.248 75.7974 -1.36C75.456 -1.472 75.104 -1.55733 74.7414 -1.616C73.9467 -1.73867 73.2347 -1.928 72.6054 -2.184C71.976 -2.44 71.4774 -2.79467 71.1094 -3.248C70.7467 -3.70133 70.5654 -4.288 70.5654 -5.008C70.5654 -5.616 70.7227 -6.15733 71.0374 -6.632C71.3574 -7.10667 71.7814 -7.49067 72.3094 -7.784C72.8427 -8.08267 73.432 -8.272 74.0774 -8.352V-9.992H75.4134V-8.352C75.9414 -8.288 76.4427 -8.152 76.9174 -7.944C77.392 -7.736 77.8054 -7.46133 78.1574 -7.12C78.5147 -6.784 78.776 -6.38933 78.9414 -5.936L77.1014 -5.272C77.0267 -5.48533 76.8747 -5.68 76.6454 -5.856C76.416 -6.032 76.136 -6.17067 75.8054 -6.272C75.4747 -6.37867 75.12 -6.432 74.7414 -6.432ZM87.137 3.896C86.5823 3.352 86.1317 2.77067 85.785 2.152C85.4437 1.53333 85.1903 0.866667 85.025 0.152C84.865 -0.562667 84.785 -1.33067 84.785 -2.152C84.785 -2.536 84.8223 -2.968 84.897 -3.448C84.9717 -3.928 85.0783 -4.416 85.217 -4.912C85.3557 -5.41333 85.521 -5.88533 85.713 -6.328C85.9103 -6.776 86.129 -7.16533 86.369 -7.496C86.609 -7.82667 86.865 -8.06133 87.137 -8.2H89.089C88.865 -8.04533 88.641 -7.80267 88.417 -7.472C88.1983 -7.14133 87.9877 -6.75733 87.785 -6.32C87.5877 -5.888 87.409 -5.42667 87.249 -4.936C87.0943 -4.44533 86.9717 -3.96 86.881 -3.48C86.7903 -3 86.7423 -2.55733 86.737 -2.152C86.7423 -1.32 86.8597 -0.522667 87.089 0.24C87.3237 0.997333 87.6197 1.688 87.977 2.312C88.3343 2.93067 88.705 3.45867 89.089 3.896H87.137ZM95.5355 3.208C94.6395 3.208 93.8528 2.98933 93.1755 2.552C92.5035 2.11467 91.9808 1.528 91.6075 0.792C91.2342 0.0506665 91.0475 -0.770667 91.0475 -1.672V-8.2H92.9995V-1.672C92.9995 -1.13867 93.0982 -0.648 93.2955 -0.2C93.4982 0.242667 93.7862 0.597333 94.1595 0.864C94.5382 1.12533 94.9968 1.256 95.5355 1.256C96.0795 1.256 96.5382 1.12533 96.9115 0.864C97.2848 0.597333 97.5675 0.242667 97.7595 -0.2C97.9568 -0.648 98.0555 -1.13867 98.0555 -1.672V-8.2H100.008V-1.672C100.008 -0.994667 99.9008 -0.36 99.6875 0.232C99.4742 0.818667 99.1702 1.336 98.7755 1.784C98.3808 2.232 97.9088 2.58133 97.3595 2.832C96.8155 3.08267 96.2075 3.208 95.5355 3.208ZM106.154 3.208C105.536 3.208 104.941 3.112 104.37 2.92C103.805 2.72267 103.309 2.44267 102.882 2.08C102.456 1.712 102.149 1.272 101.962 0.76L103.794 0.0879998C103.869 0.301333 104.021 0.496 104.25 0.672C104.48 0.848 104.76 0.989333 105.09 1.096C105.421 1.20267 105.776 1.256 106.154 1.256C106.544 1.256 106.906 1.19733 107.242 1.08C107.584 0.957333 107.858 0.789333 108.066 0.576C108.274 0.357333 108.378 0.104 108.378 -0.184C108.378 -0.477333 108.269 -0.717333 108.05 -0.904C107.832 -1.096 107.552 -1.248 107.21 -1.36C106.869 -1.472 106.517 -1.55733 106.154 -1.616C105.36 -1.73867 104.648 -1.928 104.018 -2.184C103.389 -2.44 102.89 -2.79467 102.522 -3.248C102.16 -3.70133 101.978 -4.288 101.978 -5.008C101.978 -5.68533 102.173 -6.27733 102.562 -6.784C102.952 -7.29067 103.464 -7.68533 104.098 -7.968C104.733 -8.25067 105.418 -8.392 106.154 -8.392C106.768 -8.392 107.36 -8.296 107.93 -8.104C108.501 -7.912 109 -7.632 109.426 -7.264C109.858 -6.896 110.168 -6.45333 110.354 -5.936L108.514 -5.272C108.44 -5.48533 108.288 -5.68 108.058 -5.856C107.829 -6.032 107.549 -6.17067 107.218 -6.272C106.888 -6.37867 106.533 -6.432 106.154 -6.432C105.776 -6.43733 105.416 -6.376 105.074 -6.248C104.738 -6.12533 104.464 -5.95733 104.25 -5.744C104.037 -5.53067 103.93 -5.28533 103.93 -5.008C103.93 -4.65067 104.029 -4.38133 104.226 -4.2C104.429 -4.01867 104.698 -3.88533 105.034 -3.8C105.37 -3.72 105.744 -3.64533 106.154 -3.576C106.901 -3.45867 107.592 -3.26133 108.226 -2.984C108.861 -2.70667 109.37 -2.336 109.754 -1.872C110.138 -1.41333 110.33 -0.850667 110.33 -0.184C110.33 0.493333 110.138 1.088 109.754 1.6C109.37 2.10667 108.861 2.50133 108.226 2.784C107.592 3.06667 106.901 3.208 106.154 3.208ZM116.351 3V-8.2H120.063C120.836 -8.2 121.559 -8.05333 122.231 -7.76C122.908 -7.472 123.503 -7.06933 124.015 -6.552C124.532 -6.04 124.935 -5.44533 125.223 -4.768C125.516 -4.096 125.663 -3.37333 125.663 -2.6C125.663 -1.82667 125.516 -1.10133 125.223 -0.424C124.935 0.248 124.532 0.842667 124.015 1.36C123.503 1.872 122.908 2.27467 122.231 2.568C121.559 2.856 120.836 3 120.063 3H116.351ZM118.303 1.048H120.063C120.559 1.048 121.025 0.954667 121.463 0.768C121.905 0.576 122.295 0.314667 122.631 -0.016C122.967 -0.352 123.231 -0.738667 123.423 -1.176C123.615 -1.61867 123.711 -2.09333 123.711 -2.6C123.711 -3.10667 123.615 -3.57867 123.423 -4.016C123.231 -4.45333 122.967 -4.84 122.631 -5.176C122.295 -5.512 121.908 -5.77333 121.471 -5.96C121.033 -6.152 120.564 -6.248 120.063 -6.248H118.303V1.048ZM130.571 3.208C129.835 3.208 129.163 3.01867 128.555 2.64C127.952 2.26133 127.469 1.75467 127.107 1.12C126.749 0.48 126.571 -0.226667 126.571 -1C126.571 -1.58667 126.675 -2.13333 126.883 -2.64C127.091 -3.152 127.376 -3.6 127.739 -3.984C128.107 -4.37333 128.533 -4.67733 129.019 -4.896C129.504 -5.11467 130.021 -5.224 130.571 -5.224C131.307 -5.224 131.976 -5.03467 132.579 -4.656C133.187 -4.27733 133.669 -3.768 134.027 -3.128C134.389 -2.488 134.571 -1.77867 134.571 -1C134.571 -0.418667 134.467 0.125333 134.259 0.632C134.051 1.13867 133.763 1.58667 133.395 1.976C133.032 2.36 132.608 2.66133 132.123 2.88C131.643 3.09867 131.125 3.208 130.571 3.208ZM130.571 1.256C130.96 1.256 131.309 1.152 131.619 0.944C131.928 0.736 132.171 0.461333 132.347 0.12C132.528 -0.221334 132.619 -0.594667 132.619 -1C132.619 -1.416 132.525 -1.79467 132.339 -2.136C132.157 -2.48267 131.909 -2.75733 131.595 -2.96C131.285 -3.168 130.944 -3.272 130.571 -3.272C130.187 -3.272 129.84 -3.168 129.531 -2.96C129.221 -2.752 128.976 -2.47467 128.795 -2.128C128.613 -1.78133 128.523 -1.40533 128.523 -1C128.523 -0.578667 128.616 -0.197334 128.803 0.144C128.989 0.485333 129.237 0.757333 129.547 0.96C129.861 1.15733 130.203 1.256 130.571 1.256ZM135.891 3V-9H137.843V3H135.891ZM139.966 3V-9H141.918V3H139.966ZM149.948 -5H151.9V3H149.948L149.86 2.008C149.642 2.36533 149.351 2.656 148.988 2.88C148.631 3.09867 148.207 3.208 147.716 3.208C147.124 3.208 146.57 3.096 146.052 2.872C145.535 2.648 145.079 2.33867 144.684 1.944C144.295 1.54933 143.988 1.09333 143.764 0.576C143.546 0.0586666 143.436 -0.496 143.436 -1.088C143.436 -1.65867 143.54 -2.19467 143.748 -2.696C143.962 -3.19733 144.258 -3.63733 144.636 -4.016C145.015 -4.39467 145.452 -4.69067 145.948 -4.904C146.444 -5.11733 146.978 -5.224 147.548 -5.224C148.076 -5.224 148.548 -5.10667 148.964 -4.872C149.386 -4.63733 149.743 -4.33867 150.036 -3.976L149.948 -5ZM147.668 1.328C148.084 1.328 148.452 1.224 148.772 1.016C149.092 0.808 149.343 0.528 149.524 0.176C149.706 -0.181333 149.796 -0.573333 149.796 -1C149.796 -1.432 149.706 -1.824 149.524 -2.176C149.343 -2.53333 149.09 -2.816 148.764 -3.024C148.444 -3.232 148.079 -3.336 147.668 -3.336C147.258 -3.336 146.882 -3.22933 146.54 -3.016C146.204 -2.808 145.935 -2.528 145.732 -2.176C145.535 -1.824 145.436 -1.432 145.436 -1C145.436 -0.568 145.538 -0.176 145.74 0.176C145.943 0.528 146.212 0.808 146.548 1.016C146.89 1.224 147.263 1.328 147.668 1.328ZM153.702 3L153.694 -5H155.646L155.654 -4.288C155.926 -4.576 156.252 -4.80267 156.63 -4.968C157.009 -5.13867 157.417 -5.224 157.854 -5.224C158.148 -5.224 158.441 -5.18133 158.734 -5.096L157.966 -3.128C157.764 -3.208 157.561 -3.248 157.358 -3.248C157.044 -3.248 156.756 -3.17067 156.494 -3.016C156.238 -2.86667 156.033 -2.66133 155.878 -2.4C155.729 -2.144 155.654 -1.85867 155.654 -1.544V3H153.702ZM159.891 3.896C160.275 3.45867 160.645 2.93067 161.003 2.312C161.36 1.688 161.653 0.997333 161.883 0.24C162.117 -0.522667 162.237 -1.32 162.243 -2.152C162.237 -2.55733 162.189 -3 162.099 -3.48C162.008 -3.96 161.883 -4.44533 161.723 -4.936C161.568 -5.42667 161.389 -5.888 161.187 -6.32C160.989 -6.75733 160.779 -7.14133 160.555 -7.472C160.336 -7.80267 160.115 -8.04533 159.891 -8.2H161.843C162.115 -8.06133 162.371 -7.82667 162.611 -7.496C162.851 -7.16533 163.067 -6.776 163.259 -6.328C163.456 -5.88533 163.624 -5.41333 163.763 -4.912C163.901 -4.416 164.008 -3.928 164.083 -3.448C164.157 -2.968 164.195 -2.536 164.195 -2.152C164.195 -1.33067 164.115 -0.562667 163.955 0.152C163.795 0.866667 163.541 1.53333 163.195 2.152C162.848 2.77067 162.397 3.352 161.843 3.896H159.891Z" fill="#9E9E9E"/>
<path d="M373.057 0.858662C373.009 0.811576 372.803 0.633788 372.633 0.468176C371.563 -0.50276 369.813 -3.03564 369.279 -4.36134C369.193 -4.56267 369.012 -5.07168 369 -5.34364C369 -5.60424 369.06 -5.85266 369.182 -6.08971C369.352 -6.38521 369.619 -6.62226 369.935 -6.75215C370.154 -6.83577 370.81 -6.96566 370.822 -6.96566C371.539 -7.09555 372.705 -7.16699 373.993 -7.16699C375.221 -7.16699 376.339 -7.09555 377.067 -6.9892C377.079 -6.97703 377.894 -6.84714 378.173 -6.70507C378.683 -6.44447 379 -5.93546 379 -5.39073V-5.34364C378.988 -4.98888 378.671 -4.24282 378.659 -4.24282C378.124 -2.98855 376.46 -0.514126 375.354 0.480353C375.354 0.480353 375.07 0.760432 374.892 0.882205C374.637 1.07217 374.322 1.16634 374.006 1.16634C373.653 1.16634 373.325 1.05999 373.057 0.858662Z" fill="#222222"/>
<path d="M28.263 62.182C27.7403 62.182 27.234 62.1003 26.744 61.937C26.2587 61.7737 25.834 61.5403 25.47 61.237C25.106 60.9337 24.8493 60.572 24.7 60.152L25.617 59.809C25.7197 60.0983 25.9063 60.348 26.177 60.558C26.4523 60.7633 26.772 60.922 27.136 61.034C27.5047 61.146 27.8803 61.202 28.263 61.202C28.711 61.202 29.1287 61.1273 29.516 60.978C29.9033 60.8287 30.216 60.621 30.454 60.355C30.692 60.0843 30.811 59.767 30.811 59.403C30.811 59.0343 30.6873 58.731 30.44 58.493C30.1927 58.255 29.873 58.0683 29.481 57.933C29.0937 57.793 28.6877 57.6857 28.263 57.611C27.5957 57.4943 26.996 57.3357 26.464 57.135C25.9367 56.9343 25.519 56.652 25.211 56.288C24.903 55.9193 24.749 55.434 24.749 54.832C24.749 54.2673 24.9123 53.7773 25.239 53.362C25.5657 52.9467 25.995 52.6247 26.527 52.396C27.0637 52.1673 27.6423 52.053 28.263 52.053C28.7717 52.053 29.2687 52.1323 29.754 52.291C30.2393 52.4497 30.6663 52.6807 31.035 52.984C31.4083 53.2873 31.6767 53.6583 31.84 54.097L30.909 54.433C30.8063 54.139 30.6173 53.8893 30.342 53.684C30.0713 53.474 29.754 53.3153 29.39 53.208C29.026 53.096 28.6503 53.04 28.263 53.04C27.8197 53.0353 27.4043 53.11 27.017 53.264C26.6343 53.4133 26.324 53.6233 26.086 53.894C25.848 54.16 25.729 54.4727 25.729 54.832C25.729 55.252 25.8387 55.5763 26.058 55.805C26.282 56.029 26.5853 56.197 26.968 56.309C27.3507 56.421 27.7823 56.5213 28.263 56.61C28.8883 56.7173 29.4693 56.8853 30.006 57.114C30.5427 57.338 30.9743 57.639 31.301 58.017C31.6277 58.3903 31.791 58.8523 31.791 59.403C31.791 59.963 31.6277 60.453 31.301 60.873C30.9743 61.2883 30.5427 61.6103 30.006 61.839C29.474 62.0677 28.893 62.182 28.263 62.182ZM37.0936 55.98H35.4206L35.4136 62H34.4336L34.4406 55.98H33.1736V55H34.4406L34.4336 52.802H35.4136L35.4206 55H37.0936V55.98ZM44.1053 55H45.0853V62H44.1053L44.0703 60.698C43.8417 61.1413 43.522 61.5007 43.1113 61.776C42.7007 62.0467 42.2107 62.182 41.6413 62.182C41.128 62.182 40.6473 62.0863 40.1993 61.895C39.7513 61.699 39.357 61.4307 39.0163 61.09C38.6757 60.7493 38.4097 60.355 38.2183 59.907C38.027 59.459 37.9313 58.9783 37.9313 58.465C37.9313 57.961 38.0247 57.4873 38.2113 57.044C38.4027 56.6007 38.664 56.211 38.9953 55.875C39.3313 55.539 39.7187 55.2777 40.1573 55.091C40.6007 54.8997 41.0743 54.804 41.5783 54.804C42.1617 54.804 42.6703 54.944 43.1043 55.224C43.5383 55.4993 43.8837 55.861 44.1403 56.309L44.1053 55ZM41.6203 61.23C42.1197 61.23 42.549 61.1087 42.9083 60.866C43.2677 60.6187 43.543 60.2873 43.7343 59.872C43.9303 59.4567 44.0283 58.9993 44.0283 58.5C44.0283 57.9867 43.9303 57.5247 43.7343 57.114C43.5383 56.6987 43.2607 56.3697 42.9013 56.127C42.542 55.8843 42.115 55.763 41.6203 55.763C41.1257 55.763 40.673 55.8867 40.2623 56.134C39.8563 56.3767 39.532 56.7057 39.2893 57.121C39.0513 57.5363 38.9323 57.996 38.9323 58.5C38.9323 59.0087 39.056 59.4707 39.3033 59.886C39.5507 60.2967 39.8773 60.6233 40.2833 60.866C40.694 61.1087 41.1397 61.23 41.6203 61.23ZM50.2631 55.98H48.5901L48.5831 62H47.6031L47.6101 55.98H46.3431V55H47.6101L47.6031 52.802H48.5831L48.5901 55H50.2631V55.98ZM51.4323 59.319V55H52.4123V59.123C52.4123 59.5057 52.5056 59.8533 52.6923 60.166C52.8789 60.4787 53.1286 60.7283 53.4413 60.915C53.7586 61.1017 54.1063 61.195 54.4843 61.195C54.8669 61.195 55.2123 61.1017 55.5203 60.915C55.8329 60.7283 56.0826 60.4787 56.2693 60.166C56.4559 59.8533 56.5493 59.5057 56.5493 59.123V55H57.5293L57.5363 62H56.5563L56.5493 61.02C56.3019 61.3747 55.9799 61.657 55.5833 61.867C55.1913 62.077 54.7619 62.182 54.2953 62.182C53.7679 62.182 53.2873 62.0537 52.8533 61.797C52.4193 61.5403 52.0739 61.195 51.8173 60.761C51.5606 60.327 51.4323 59.8463 51.4323 59.319ZM61.294 62.133C60.9113 62.1237 60.538 62.0537 60.174 61.923C59.81 61.7923 59.4927 61.615 59.222 61.391C58.9513 61.167 58.7577 60.9127 58.641 60.628L59.488 60.264C59.5627 60.446 59.7003 60.614 59.901 60.768C60.1063 60.9173 60.3397 61.0387 60.601 61.132C60.8623 61.2207 61.1213 61.265 61.378 61.265C61.6627 61.265 61.9287 61.2183 62.176 61.125C62.4233 61.0317 62.624 60.8987 62.778 60.726C62.9367 60.5487 63.016 60.341 63.016 60.103C63.016 59.8463 62.932 59.6457 62.764 59.501C62.596 59.3517 62.3837 59.235 62.127 59.151C61.8703 59.0623 61.6067 58.9783 61.336 58.899C60.8413 58.7637 60.405 58.6143 60.027 58.451C59.649 58.2877 59.3527 58.08 59.138 57.828C58.928 57.5713 58.823 57.2423 58.823 56.841C58.823 56.4163 58.942 56.05 59.18 55.742C59.4227 55.4293 59.7377 55.189 60.125 55.021C60.517 54.8483 60.9347 54.762 61.378 54.762C61.9473 54.762 62.4653 54.8857 62.932 55.133C63.4033 55.3803 63.744 55.7093 63.954 56.12L63.163 56.589C63.079 56.3977 62.946 56.232 62.764 56.092C62.582 55.952 62.3743 55.8423 62.141 55.763C61.9123 55.6837 61.679 55.6417 61.441 55.637C61.1423 55.6323 60.8647 55.6767 60.608 55.77C60.3513 55.8587 60.1437 55.9917 59.985 56.169C59.831 56.3463 59.754 56.5633 59.754 56.82C59.754 57.0767 59.831 57.2727 59.985 57.408C60.139 57.5387 60.3467 57.646 60.608 57.73C60.874 57.8093 61.1727 57.9027 61.504 58.01C61.9287 58.1453 62.3277 58.2993 62.701 58.472C63.0743 58.6447 63.3753 58.8593 63.604 59.116C63.8327 59.3727 63.9447 59.697 63.94 60.089C63.94 60.509 63.814 60.8753 63.562 61.188C63.31 61.5007 62.9833 61.741 62.582 61.909C62.1807 62.0723 61.7513 62.147 61.294 62.133Z" fill="#222222"/>
<rect x="24" y="71" width="380" height="60" rx="30" fill="#FAFAFA"/>
<path d="M48.48 107.208C47.744 107.208 47.072 107.019 46.464 106.64C45.8613 106.261 45.3787 105.752 45.016 105.112C44.6587 104.472 44.48 103.765 44.48 102.992C44.48 102.411 44.584 101.867 44.792 101.36C45 100.848 45.2853 100.4 45.648 100.016C46.016 99.6267 46.4427 99.3227 46.928 99.104C47.4133 98.8853 47.9307 98.776 48.48 98.776C49.104 98.776 49.6747 98.9093 50.192 99.176C50.7147 99.4373 51.1573 99.7973 51.52 100.256C51.8827 100.715 52.1467 101.237 52.312 101.824C52.4773 102.411 52.5147 103.024 52.424 103.664H46.576C46.6507 103.963 46.7733 104.232 46.944 104.472C47.1147 104.707 47.3307 104.896 47.592 105.04C47.8533 105.179 48.1493 105.251 48.48 105.256C48.8213 105.261 49.1307 105.181 49.408 105.016C49.6907 104.845 49.9253 104.616 50.112 104.328L52.104 104.792C51.7787 105.501 51.2933 106.083 50.648 106.536C50.0027 106.984 49.28 107.208 48.48 107.208ZM46.512 102.2H50.448C50.3893 101.88 50.264 101.592 50.072 101.336C49.8853 101.075 49.6533 100.867 49.376 100.712C49.0987 100.557 48.8 100.48 48.48 100.48C48.16 100.48 47.864 100.557 47.592 100.712C47.32 100.861 47.088 101.067 46.896 101.328C46.7093 101.584 46.5813 101.875 46.512 102.2ZM52.9494 107L55.8774 102.984L52.9734 98.992H55.3814L57.0774 101.32L58.7814 98.992H61.1894L58.2854 102.984L61.2134 107H58.8054L57.0774 104.632L55.3574 107H52.9494ZM63.6962 101.008C63.4189 101.008 63.1816 100.912 62.9842 100.72C62.7922 100.523 62.6962 100.283 62.6962 100C62.6962 99.728 62.7922 99.4933 62.9842 99.296C63.1816 99.0987 63.4189 99 63.6962 99C63.9736 99 64.2109 99.0987 64.4082 99.296C64.6056 99.4933 64.7042 99.728 64.7042 100C64.7042 100.283 64.6056 100.523 64.4082 100.72C64.2109 100.912 63.9736 101.008 63.6962 101.008ZM63.6962 107.208C63.4189 107.208 63.1816 107.112 62.9842 106.92C62.7922 106.723 62.6962 106.483 62.6962 106.2C62.6962 105.928 62.7922 105.693 62.9842 105.496C63.1816 105.299 63.4189 105.2 63.6962 105.2C63.9736 105.2 64.2109 105.299 64.4082 105.496C64.6056 105.693 64.7042 105.928 64.7042 106.2C64.7042 106.483 64.6056 106.723 64.4082 106.92C64.2109 107.112 63.9736 107.208 63.6962 107.208ZM74.6134 95.8H76.8614L80.9334 107H78.8614L78.1414 105.016H73.3414L72.6214 107H70.5494L74.6134 95.8ZM74.0534 103.064H77.4214L75.7334 98.448L74.0534 103.064ZM86.8888 104.592L88.6488 105.544C88.2808 106.045 87.8194 106.448 87.2648 106.752C86.7101 107.056 86.1048 107.208 85.4488 107.208C84.7128 107.208 84.0408 107.019 83.4328 106.64C82.8301 106.261 82.3474 105.755 81.9848 105.12C81.6274 104.48 81.4488 103.773 81.4488 103C81.4488 102.413 81.5528 101.867 81.7608 101.36C81.9688 100.848 82.2541 100.4 82.6168 100.016C82.9848 99.6267 83.4114 99.3227 83.8968 99.104C84.3821 98.8853 84.8994 98.776 85.4488 98.776C86.1048 98.776 86.7101 98.928 87.2648 99.232C87.8194 99.536 88.2808 99.944 88.6488 100.456L86.8888 101.4C86.7021 101.187 86.4808 101.021 86.2248 100.904C85.9741 100.787 85.7154 100.728 85.4488 100.728C85.0648 100.728 84.7181 100.835 84.4088 101.048C84.0994 101.256 83.8541 101.533 83.6728 101.88C83.4914 102.221 83.4008 102.595 83.4008 103C83.4008 103.4 83.4914 103.773 83.6728 104.12C83.8541 104.461 84.0994 104.736 84.4088 104.944C84.7181 105.152 85.0648 105.256 85.4488 105.256C85.7261 105.256 85.9901 105.197 86.2408 105.08C86.4914 104.957 86.7074 104.795 86.8888 104.592ZM94.573 100.952H93.021V107H91.069V100.952H89.885V99H91.069V96.488H93.021V99H94.573V100.952ZM96.0944 99H98.0464V107H96.0944V99ZM97.0864 97.968C96.7984 97.968 96.5557 97.8747 96.3584 97.688C96.161 97.496 96.0624 97.256 96.0624 96.968C96.0624 96.6853 96.161 96.448 96.3584 96.256C96.5557 96.064 96.7957 95.968 97.0784 95.968C97.361 95.968 97.5984 96.064 97.7904 96.256C97.9877 96.448 98.0864 96.6853 98.0864 96.968C98.0864 97.256 97.9904 97.496 97.7984 97.688C97.6064 97.8747 97.369 97.968 97.0864 97.968ZM104.871 107H102.351L99.4394 98.992H101.519L103.615 104.752L105.703 98.992H107.783L104.871 107ZM112.374 107.208C111.638 107.208 110.966 107.019 110.358 106.64C109.755 106.261 109.272 105.752 108.91 105.112C108.552 104.472 108.374 103.765 108.374 102.992C108.374 102.411 108.478 101.867 108.686 101.36C108.894 100.848 109.179 100.4 109.542 100.016C109.91 99.6267 110.336 99.3227 110.822 99.104C111.307 98.8853 111.824 98.776 112.374 98.776C112.998 98.776 113.568 98.9093 114.086 99.176C114.608 99.4373 115.051 99.7973 115.414 100.256C115.776 100.715 116.04 101.237 116.206 101.824C116.371 102.411 116.408 103.024 116.318 103.664H110.47C110.544 103.963 110.667 104.232 110.838 104.472C111.008 104.707 111.224 104.896 111.486 105.04C111.747 105.179 112.043 105.251 112.374 105.256C112.715 105.261 113.024 105.181 113.302 105.016C113.584 104.845 113.819 104.616 114.006 104.328L115.998 104.792C115.672 105.501 115.187 106.083 114.542 106.536C113.896 106.984 113.174 107.208 112.374 107.208ZM110.406 102.2H114.342C114.283 101.88 114.158 101.592 113.966 101.336C113.779 101.075 113.547 100.867 113.27 100.712C112.992 100.557 112.694 100.48 112.374 100.48C112.054 100.48 111.758 100.557 111.486 100.712C111.214 100.861 110.982 101.067 110.79 101.328C110.603 101.584 110.475 101.875 110.406 102.2ZM117.694 107V95H119.646V107H117.694ZM126.71 99H128.782L124.406 111H122.334L123.782 107L120.902 99H123.038L124.758 104.328L126.71 99ZM136.982 107.144C136.566 107.117 136.164 107.035 135.774 106.896C135.39 106.752 135.049 106.557 134.75 106.312C134.452 106.067 134.222 105.773 134.062 105.432L135.71 104.728C135.774 104.835 135.878 104.949 136.022 105.072C136.166 105.189 136.337 105.288 136.534 105.368C136.737 105.448 136.958 105.488 137.198 105.488C137.401 105.488 137.593 105.461 137.774 105.408C137.961 105.349 138.11 105.261 138.222 105.144C138.34 105.027 138.398 104.875 138.398 104.688C138.398 104.491 138.329 104.339 138.19 104.232C138.057 104.12 137.886 104.037 137.678 103.984C137.476 103.925 137.278 103.872 137.086 103.824C136.58 103.723 136.108 103.565 135.67 103.352C135.238 103.139 134.889 102.864 134.622 102.528C134.361 102.187 134.23 101.776 134.23 101.296C134.23 100.768 134.369 100.312 134.646 99.928C134.929 99.544 135.294 99.248 135.742 99.04C136.196 98.832 136.684 98.728 137.206 98.728C137.841 98.728 138.422 98.8613 138.95 99.128C139.484 99.3893 139.905 99.76 140.214 100.24L138.67 101.152C138.596 101.024 138.492 100.907 138.358 100.8C138.225 100.688 138.073 100.597 137.902 100.528C137.732 100.453 137.553 100.411 137.366 100.4C137.126 100.389 136.908 100.411 136.71 100.464C136.513 100.517 136.353 100.608 136.23 100.736C136.113 100.864 136.054 101.035 136.054 101.248C136.054 101.451 136.134 101.603 136.294 101.704C136.454 101.8 136.646 101.875 136.87 101.928C137.1 101.981 137.318 102.04 137.526 102.104C137.996 102.259 138.436 102.448 138.846 102.672C139.262 102.896 139.596 103.171 139.846 103.496C140.097 103.821 140.217 104.211 140.206 104.664C140.206 105.181 140.052 105.635 139.742 106.024C139.433 106.408 139.033 106.701 138.542 106.904C138.057 107.107 137.537 107.187 136.982 107.144ZM145.171 107.208C144.435 107.208 143.763 107.019 143.155 106.64C142.552 106.261 142.069 105.752 141.707 105.112C141.349 104.472 141.171 103.765 141.171 102.992C141.171 102.411 141.275 101.867 141.483 101.36C141.691 100.848 141.976 100.4 142.339 100.016C142.707 99.6267 143.133 99.3227 143.619 99.104C144.104 98.8853 144.621 98.776 145.171 98.776C145.795 98.776 146.365 98.9093 146.883 99.176C147.405 99.4373 147.848 99.7973 148.211 100.256C148.573 100.715 148.837 101.237 149.003 101.824C149.168 102.411 149.205 103.024 149.115 103.664H143.267C143.341 103.963 143.464 104.232 143.635 104.472C143.805 104.707 144.021 104.896 144.283 105.04C144.544 105.179 144.84 105.251 145.171 105.256C145.512 105.261 145.821 105.181 146.099 105.016C146.381 104.845 146.616 104.616 146.803 104.328L148.795 104.792C148.469 105.501 147.984 106.083 147.339 106.536C146.693 106.984 145.971 107.208 145.171 107.208ZM143.203 102.2H147.139C147.08 101.88 146.955 101.592 146.763 101.336C146.576 101.075 146.344 100.867 146.067 100.712C145.789 100.557 145.491 100.48 145.171 100.48C144.851 100.48 144.555 100.557 144.283 100.712C144.011 100.861 143.779 101.067 143.587 101.328C143.4 101.584 143.272 101.875 143.203 102.2ZM156.68 99H158.632V107H156.68L156.592 106.008C156.373 106.365 156.082 106.656 155.72 106.88C155.362 107.099 154.938 107.208 154.448 107.208C153.856 107.208 153.301 107.096 152.784 106.872C152.266 106.648 151.81 106.339 151.416 105.944C151.026 105.549 150.72 105.093 150.496 104.576C150.277 104.059 150.168 103.504 150.168 102.912C150.168 102.341 150.272 101.805 150.48 101.304C150.693 100.803 150.989 100.363 151.368 99.984C151.746 99.6053 152.184 99.3093 152.68 99.096C153.176 98.8827 153.709 98.776 154.28 98.776C154.808 98.776 155.28 98.8933 155.696 99.128C156.117 99.3627 156.474 99.6613 156.768 100.024L156.68 99ZM154.4 105.328C154.816 105.328 155.184 105.224 155.504 105.016C155.824 104.808 156.074 104.528 156.256 104.176C156.437 103.819 156.528 103.427 156.528 103C156.528 102.568 156.437 102.176 156.256 101.824C156.074 101.467 155.821 101.184 155.496 100.976C155.176 100.768 154.81 100.664 154.4 100.664C153.989 100.664 153.613 100.771 153.272 100.984C152.936 101.192 152.666 101.472 152.464 101.824C152.266 102.176 152.168 102.568 152.168 103C152.168 103.432 152.269 103.824 152.472 104.176C152.674 104.528 152.944 104.808 153.28 105.016C153.621 105.224 153.994 105.328 154.4 105.328ZM160.434 107L160.426 99H162.378L162.386 99.712C162.658 99.424 162.983 99.1973 163.362 99.032C163.74 98.8613 164.148 98.776 164.586 98.776C164.879 98.776 165.172 98.8187 165.466 98.904L164.698 100.872C164.495 100.792 164.292 100.752 164.09 100.752C163.775 100.752 163.487 100.829 163.226 100.984C162.97 101.133 162.764 101.339 162.61 101.6C162.46 101.856 162.386 102.141 162.386 102.456V107H160.434ZM171.148 104.592L172.908 105.544C172.54 106.045 172.079 106.448 171.524 106.752C170.969 107.056 170.364 107.208 169.708 107.208C168.972 107.208 168.3 107.019 167.692 106.64C167.089 106.261 166.607 105.755 166.244 105.12C165.887 104.48 165.708 103.773 165.708 103C165.708 102.413 165.812 101.867 166.02 101.36C166.228 100.848 166.513 100.4 166.876 100.016C167.244 99.6267 167.671 99.3227 168.156 99.104C168.641 98.8853 169.159 98.776 169.708 98.776C170.364 98.776 170.969 98.928 171.524 99.232C172.079 99.536 172.54 99.944 172.908 100.456L171.148 101.4C170.961 101.187 170.74 101.021 170.484 100.904C170.233 100.787 169.975 100.728 169.708 100.728C169.324 100.728 168.977 100.835 168.668 101.048C168.359 101.256 168.113 101.533 167.932 101.88C167.751 102.221 167.66 102.595 167.66 103C167.66 103.4 167.751 103.773 167.932 104.12C168.113 104.461 168.359 104.736 168.668 104.944C168.977 105.152 169.324 105.256 169.708 105.256C169.985 105.256 170.249 105.197 170.5 105.08C170.751 104.957 170.967 104.795 171.148 104.592ZM181.622 101.944V107H179.67V102.456C179.67 102.141 179.593 101.856 179.438 101.6C179.284 101.339 179.076 101.133 178.814 100.984C178.558 100.829 178.273 100.752 177.958 100.752C177.644 100.752 177.356 100.829 177.094 100.984C176.838 101.133 176.633 101.339 176.478 101.6C176.329 101.856 176.254 102.141 176.254 102.456V107H174.302L174.294 95H176.246L176.254 99.712C176.526 99.424 176.852 99.1973 177.23 99.032C177.609 98.8613 178.017 98.776 178.454 98.776C179.036 98.776 179.566 98.92 180.046 99.208C180.526 99.4907 180.908 99.872 181.19 100.352C181.478 100.827 181.622 101.357 181.622 101.944ZM183.416 99H185.368V107H183.416V99ZM184.408 97.968C184.12 97.968 183.878 97.8747 183.68 97.688C183.483 97.496 183.384 97.256 183.384 96.968C183.384 96.6853 183.483 96.448 183.68 96.256C183.878 96.064 184.118 95.968 184.4 95.968C184.683 95.968 184.92 96.064 185.112 96.256C185.31 96.448 185.408 96.6853 185.408 96.968C185.408 97.256 185.312 97.496 185.12 97.688C184.928 97.8747 184.691 97.968 184.408 97.968ZM194.757 101.944V107H192.805V102.456C192.805 102.141 192.727 101.856 192.573 101.6C192.418 101.339 192.21 101.133 191.949 100.984C191.693 100.829 191.407 100.752 191.093 100.752C190.778 100.752 190.49 100.829 190.229 100.984C189.973 101.133 189.767 101.339 189.613 101.6C189.463 101.856 189.389 102.141 189.389 102.456V107H187.437L187.429 99H189.381L189.389 99.712C189.661 99.424 189.986 99.1973 190.365 99.032C190.743 98.8613 191.151 98.776 191.589 98.776C192.17 98.776 192.701 98.92 193.181 99.208C193.661 99.4907 194.042 99.872 194.325 100.352C194.613 100.827 194.757 101.357 194.757 101.944ZM202.33 99H204.282V107.152C204.282 107.728 204.165 108.251 203.93 108.72C203.696 109.195 203.376 109.6 202.97 109.936C202.565 110.277 202.101 110.539 201.578 110.72C201.056 110.907 200.506 111 199.93 111C199.37 111 198.832 110.885 198.314 110.656C197.797 110.427 197.338 110.112 196.938 109.712C196.544 109.317 196.242 108.867 196.034 108.36L197.818 107.552C197.925 107.845 198.085 108.101 198.298 108.32C198.517 108.544 198.768 108.717 199.05 108.84C199.333 108.968 199.626 109.032 199.93 109.032C200.24 109.032 200.536 108.989 200.818 108.904C201.106 108.819 201.365 108.693 201.594 108.528C201.824 108.368 202.002 108.171 202.13 107.936C202.264 107.707 202.33 107.445 202.33 107.152V106.024C202.08 106.376 201.765 106.661 201.386 106.88C201.008 107.099 200.57 107.208 200.074 107.208C199.498 107.208 198.96 107.099 198.458 106.88C197.957 106.661 197.514 106.36 197.13 105.976C196.752 105.587 196.453 105.139 196.234 104.632C196.021 104.125 195.914 103.581 195.914 103C195.914 102.419 196.021 101.875 196.234 101.368C196.453 100.861 196.752 100.416 197.13 100.032C197.514 99.6427 197.957 99.3387 198.458 99.12C198.96 98.9013 199.498 98.792 200.074 98.792C200.57 98.792 201.008 98.9013 201.386 99.12C201.765 99.3333 202.08 99.616 202.33 99.968V99ZM200.098 105.328C200.509 105.328 200.872 105.224 201.186 105.016C201.506 104.803 201.757 104.52 201.938 104.168C202.12 103.811 202.21 103.421 202.21 103C202.21 102.573 202.117 102.184 201.93 101.832C201.749 101.48 201.498 101.197 201.178 100.984C200.864 100.771 200.504 100.664 200.098 100.664C199.698 100.664 199.333 100.771 199.002 100.984C198.672 101.192 198.408 101.472 198.21 101.824C198.013 102.176 197.914 102.568 197.914 103C197.914 103.432 198.013 103.824 198.21 104.176C198.408 104.528 198.672 104.808 199.002 105.016C199.333 105.224 199.698 105.328 200.098 105.328Z" fill="#9E9E9E"/>
<path d="M373.057 104.859C373.009 104.812 372.803 104.634 372.633 104.468C371.563 103.497 369.813 100.964 369.279 99.6387C369.193 99.4373 369.012 98.9283 369 98.6564C369 98.3958 369.06 98.1473 369.182 97.9103C369.352 97.6148 369.619 97.3777 369.935 97.2478C370.154 97.1642 370.81 97.0343 370.822 97.0343C371.539 96.9044 372.705 96.833 373.993 96.833C375.221 96.833 376.339 96.9044 377.067 97.0108C377.079 97.023 377.894 97.1529 378.173 97.2949C378.683 97.5555 379 98.0645 379 98.6093V98.6564C378.988 99.0111 378.671 99.7572 378.659 99.7572C378.124 101.011 376.46 103.486 375.354 104.48C375.354 104.48 375.07 104.76 374.892 104.882C374.637 105.072 374.322 105.166 374.006 105.166C373.653 105.166 373.325 105.06 373.057 104.859Z" fill="#222222"/>
<path d="M24.84 166V156.2H28.081C28.7577 156.2 29.3923 156.328 29.985 156.585C30.5777 156.837 31.098 157.189 31.546 157.642C31.994 158.09 32.344 158.61 32.596 159.203C32.8527 159.791 32.981 160.423 32.981 161.1C32.981 161.777 32.8527 162.411 32.596 163.004C32.344 163.592 31.994 164.112 31.546 164.565C31.098 165.013 30.5777 165.365 29.985 165.622C29.3923 165.874 28.7577 166 28.081 166H24.84ZM25.82 165.02H28.081C28.6223 165.02 29.1287 164.92 29.6 164.719C30.076 164.514 30.4937 164.231 30.853 163.872C31.2123 163.513 31.4923 163.097 31.693 162.626C31.8983 162.15 32.001 161.641 32.001 161.1C32.001 160.559 31.8983 160.052 31.693 159.581C31.4923 159.105 31.21 158.687 30.846 158.328C30.4867 157.969 30.0713 157.689 29.6 157.488C29.1287 157.283 28.6223 157.18 28.081 157.18H25.82V165.02ZM37.4305 166.182C36.7865 166.182 36.1985 166.016 35.6665 165.685C35.1392 165.354 34.7169 164.91 34.3995 164.355C34.0869 163.795 33.9305 163.177 33.9305 162.5C33.9305 161.987 34.0215 161.508 34.2035 161.065C34.3855 160.617 34.6352 160.225 34.9525 159.889C35.2745 159.548 35.6479 159.282 36.0725 159.091C36.4972 158.9 36.9499 158.804 37.4305 158.804C37.9485 158.804 38.4245 158.907 38.8585 159.112C39.2972 159.317 39.6729 159.604 39.9855 159.973C40.3029 160.342 40.5409 160.773 40.6995 161.268C40.8629 161.763 40.9305 162.297 40.9025 162.871H34.9665C35.0225 163.314 35.1625 163.711 35.3865 164.061C35.6152 164.411 35.9045 164.689 36.2545 164.894C36.6092 165.095 37.0012 165.197 37.4305 165.202C37.8972 165.202 38.3172 165.081 38.6905 164.838C39.0685 164.595 39.3719 164.262 39.6005 163.837L40.5945 164.068C40.3145 164.689 39.8922 165.197 39.3275 165.594C38.7629 165.986 38.1305 166.182 37.4305 166.182ZM34.9385 162.08H39.9155C39.8829 161.646 39.7499 161.249 39.5165 160.89C39.2879 160.526 38.9915 160.237 38.6275 160.022C38.2635 159.803 37.8645 159.693 37.4305 159.693C36.9965 159.693 36.5999 159.8 36.2405 160.015C35.8812 160.225 35.5872 160.512 35.3585 160.876C35.1299 161.235 34.9899 161.637 34.9385 162.08ZM44.4792 166.133C44.0965 166.124 43.7232 166.054 43.3592 165.923C42.9952 165.792 42.6778 165.615 42.4072 165.391C42.1365 165.167 41.9428 164.913 41.8262 164.628L42.6732 164.264C42.7478 164.446 42.8855 164.614 43.0862 164.768C43.2915 164.917 43.5248 165.039 43.7862 165.132C44.0475 165.221 44.3065 165.265 44.5632 165.265C44.8478 165.265 45.1138 165.218 45.3612 165.125C45.6085 165.032 45.8092 164.899 45.9632 164.726C46.1218 164.549 46.2012 164.341 46.2012 164.103C46.2012 163.846 46.1172 163.646 45.9492 163.501C45.7812 163.352 45.5688 163.235 45.3122 163.151C45.0555 163.062 44.7918 162.978 44.5212 162.899C44.0265 162.764 43.5902 162.614 43.2122 162.451C42.8342 162.288 42.5378 162.08 42.3232 161.828C42.1132 161.571 42.0082 161.242 42.0082 160.841C42.0082 160.416 42.1272 160.05 42.3652 159.742C42.6078 159.429 42.9228 159.189 43.3102 159.021C43.7022 158.848 44.1198 158.762 44.5632 158.762C45.1325 158.762 45.6505 158.886 46.1172 159.133C46.5885 159.38 46.9292 159.709 47.1392 160.12L46.3482 160.589C46.2642 160.398 46.1312 160.232 45.9492 160.092C45.7672 159.952 45.5595 159.842 45.3262 159.763C45.0975 159.684 44.8642 159.642 44.6262 159.637C44.3275 159.632 44.0498 159.677 43.7932 159.77C43.5365 159.859 43.3288 159.992 43.1702 160.169C43.0162 160.346 42.9392 160.563 42.9392 160.82C42.9392 161.077 43.0162 161.273 43.1702 161.408C43.3242 161.539 43.5318 161.646 43.7932 161.73C44.0592 161.809 44.3578 161.903 44.6892 162.01C45.1138 162.145 45.5128 162.299 45.8862 162.472C46.2595 162.645 46.5605 162.859 46.7892 163.116C47.0178 163.373 47.1298 163.697 47.1252 164.089C47.1252 164.509 46.9992 164.875 46.7472 165.188C46.4952 165.501 46.1685 165.741 45.7672 165.909C45.3658 166.072 44.9365 166.147 44.4792 166.133ZM48.4634 159H49.4434V166H48.4634V159ZM48.9604 157.775C48.8018 157.775 48.6664 157.724 48.5544 157.621C48.4471 157.514 48.3934 157.381 48.3934 157.222C48.3934 157.063 48.4471 156.933 48.5544 156.83C48.6664 156.723 48.8018 156.669 48.9604 156.669C49.1144 156.669 49.2451 156.723 49.3524 156.83C49.4644 156.933 49.5204 157.063 49.5204 157.222C49.5204 157.381 49.4668 157.514 49.3594 157.621C49.2521 157.724 49.1191 157.775 48.9604 157.775ZM51.3021 166V159H52.2821V159.966C52.5294 159.611 52.8514 159.329 53.2481 159.119C53.6448 158.909 54.0764 158.804 54.5431 158.804C54.8138 158.804 55.0751 158.839 55.3271 158.909L54.9281 159.882C54.7321 159.821 54.5408 159.791 54.3541 159.791C53.9761 159.791 53.6284 159.884 53.3111 160.071C52.9984 160.258 52.7488 160.507 52.5621 160.82C52.3754 161.133 52.2821 161.48 52.2821 161.863V166H51.3021ZM59.1212 166.182C58.4772 166.182 57.8892 166.016 57.3572 165.685C56.8298 165.354 56.4075 164.91 56.0902 164.355C55.7775 163.795 55.6212 163.177 55.6212 162.5C55.6212 161.987 55.7122 161.508 55.8942 161.065C56.0762 160.617 56.3258 160.225 56.6432 159.889C56.9652 159.548 57.3385 159.282 57.7632 159.091C58.1878 158.9 58.6405 158.804 59.1212 158.804C59.6392 158.804 60.1152 158.907 60.5492 159.112C60.9878 159.317 61.3635 159.604 61.6762 159.973C61.9935 160.342 62.2315 160.773 62.3902 161.268C62.5535 161.763 62.6212 162.297 62.5932 162.871H56.6572C56.7132 163.314 56.8532 163.711 57.0772 164.061C57.3058 164.411 57.5952 164.689 57.9452 164.894C58.2998 165.095 58.6918 165.197 59.1212 165.202C59.5878 165.202 60.0078 165.081 60.3812 164.838C60.7592 164.595 61.0625 164.262 61.2912 163.837L62.2852 164.068C62.0052 164.689 61.5828 165.197 61.0182 165.594C60.4535 165.986 59.8212 166.182 59.1212 166.182ZM56.6292 162.08H61.6062C61.5735 161.646 61.4405 161.249 61.2072 160.89C60.9785 160.526 60.6822 160.237 60.3182 160.022C59.9542 159.803 59.5552 159.693 59.1212 159.693C58.6872 159.693 58.2905 159.8 57.9312 160.015C57.5718 160.225 57.2778 160.512 57.0492 160.876C56.8205 161.235 56.6805 161.637 56.6292 162.08ZM69.6858 155.5H70.6658V166H69.6858V164.691C69.4431 165.139 69.1094 165.501 68.6848 165.776C68.2648 166.047 67.7654 166.182 67.1868 166.182C66.6781 166.182 66.2021 166.086 65.7588 165.895C65.3154 165.704 64.9234 165.44 64.5828 165.104C64.2468 164.763 63.9831 164.371 63.7918 163.928C63.6004 163.485 63.5048 163.009 63.5048 162.5C63.5048 161.991 63.6004 161.515 63.7918 161.072C63.9831 160.624 64.2468 160.232 64.5828 159.896C64.9234 159.555 65.3154 159.289 65.7588 159.098C66.2021 158.907 66.6781 158.811 67.1868 158.811C67.7654 158.811 68.2648 158.949 68.6848 159.224C69.1094 159.495 69.4431 159.852 69.6858 160.295V155.5ZM67.1938 165.23C67.6931 165.23 68.1224 165.109 68.4818 164.866C68.8411 164.619 69.1164 164.287 69.3078 163.872C69.5038 163.457 69.6018 162.999 69.6018 162.5C69.6018 161.987 69.5038 161.525 69.3078 161.114C69.1118 160.699 68.8341 160.37 68.4748 160.127C68.1154 159.884 67.6884 159.763 67.1938 159.763C66.6991 159.763 66.2488 159.887 65.8428 160.134C65.4368 160.377 65.1124 160.706 64.8698 161.121C64.6271 161.536 64.5058 161.996 64.5058 162.5C64.5058 163.009 64.6294 163.471 64.8768 163.886C65.1241 164.297 65.4508 164.623 65.8568 164.866C66.2674 165.109 66.7131 165.23 67.1938 165.23ZM82.1159 156.2H83.2709L79.9669 161.562V166H78.9869V161.562L75.6899 156.2H76.8449L79.4769 160.491L82.1159 156.2ZM86.6907 166.182C86.0467 166.182 85.4587 166.016 84.9267 165.685C84.3994 165.354 83.977 164.91 83.6597 164.355C83.347 163.795 83.1907 163.177 83.1907 162.5C83.1907 161.987 83.2817 161.508 83.4637 161.065C83.6457 160.617 83.8954 160.225 84.2127 159.889C84.5347 159.548 84.908 159.282 85.3327 159.091C85.7574 158.9 86.21 158.804 86.6907 158.804C87.2087 158.804 87.6847 158.907 88.1187 159.112C88.5574 159.317 88.933 159.604 89.2457 159.973C89.563 160.342 89.801 160.773 89.9597 161.268C90.123 161.763 90.1907 162.297 90.1627 162.871H84.2267C84.2827 163.314 84.4227 163.711 84.6467 164.061C84.8754 164.411 85.1647 164.689 85.5147 164.894C85.8694 165.095 86.2614 165.197 86.6907 165.202C87.1574 165.202 87.5774 165.081 87.9507 164.838C88.3287 164.595 88.632 164.262 88.8607 163.837L89.8547 164.068C89.5747 164.689 89.1524 165.197 88.5877 165.594C88.023 165.986 87.3907 166.182 86.6907 166.182ZM84.1987 162.08H89.1757C89.143 161.646 89.01 161.249 88.7767 160.89C88.548 160.526 88.2517 160.237 87.8877 160.022C87.5237 159.803 87.1247 159.693 86.6907 159.693C86.2567 159.693 85.86 159.8 85.5007 160.015C85.1414 160.225 84.8474 160.512 84.6187 160.876C84.39 161.235 84.25 161.637 84.1987 162.08ZM97.2483 159H98.2283V166H97.2483L97.2133 164.698C96.9846 165.141 96.665 165.501 96.2543 165.776C95.8436 166.047 95.3536 166.182 94.7843 166.182C94.271 166.182 93.7903 166.086 93.3423 165.895C92.8943 165.699 92.5 165.431 92.1593 165.09C91.8186 164.749 91.5526 164.355 91.3613 163.907C91.17 163.459 91.0743 162.978 91.0743 162.465C91.0743 161.961 91.1676 161.487 91.3543 161.044C91.5456 160.601 91.807 160.211 92.1383 159.875C92.4743 159.539 92.8616 159.278 93.3003 159.091C93.7436 158.9 94.2173 158.804 94.7213 158.804C95.3046 158.804 95.8133 158.944 96.2473 159.224C96.6813 159.499 97.0266 159.861 97.2833 160.309L97.2483 159ZM94.7633 165.23C95.2626 165.23 95.692 165.109 96.0513 164.866C96.4106 164.619 96.686 164.287 96.8773 163.872C97.0733 163.457 97.1713 162.999 97.1713 162.5C97.1713 161.987 97.0733 161.525 96.8773 161.114C96.6813 160.699 96.4036 160.37 96.0443 160.127C95.685 159.884 95.258 159.763 94.7633 159.763C94.2686 159.763 93.816 159.887 93.4053 160.134C92.9993 160.377 92.675 160.706 92.4323 161.121C92.1943 161.536 92.0753 161.996 92.0753 162.5C92.0753 163.009 92.199 163.471 92.4463 163.886C92.6936 164.297 93.0203 164.623 93.4263 164.866C93.837 165.109 94.2826 165.23 94.7633 165.23ZM99.8291 166V159H100.809V159.966C101.056 159.611 101.378 159.329 101.775 159.119C102.172 158.909 102.603 158.804 103.07 158.804C103.341 158.804 103.602 158.839 103.854 158.909L103.455 159.882C103.259 159.821 103.068 159.791 102.881 159.791C102.503 159.791 102.155 159.884 101.838 160.071C101.525 160.258 101.276 160.507 101.089 160.82C100.902 161.133 100.809 161.48 100.809 161.863V166H99.8291ZM104.869 166V155.5H105.849V166H104.869ZM112.325 159H113.361L109.532 169.5H108.489L109.763 166L107.25 159H108.321L110.253 164.649L112.325 159ZM121.949 166.182C121.426 166.182 120.92 166.1 120.43 165.937C119.944 165.774 119.52 165.54 119.156 165.237C118.792 164.934 118.535 164.572 118.386 164.152L119.303 163.809C119.405 164.098 119.592 164.348 119.863 164.558C120.138 164.763 120.458 164.922 120.822 165.034C121.19 165.146 121.566 165.202 121.949 165.202C122.397 165.202 122.814 165.127 123.202 164.978C123.589 164.829 123.902 164.621 124.14 164.355C124.378 164.084 124.497 163.767 124.497 163.403C124.497 163.034 124.373 162.731 124.126 162.493C123.878 162.255 123.559 162.068 123.167 161.933C122.779 161.793 122.373 161.686 121.949 161.611C121.281 161.494 120.682 161.336 120.15 161.135C119.622 160.934 119.205 160.652 118.897 160.288C118.589 159.919 118.435 159.434 118.435 158.832C118.435 158.267 118.598 157.777 118.925 157.362C119.251 156.947 119.681 156.625 120.213 156.396C120.749 156.167 121.328 156.053 121.949 156.053C122.457 156.053 122.954 156.132 123.44 156.291C123.925 156.45 124.352 156.681 124.721 156.984C125.094 157.287 125.362 157.658 125.526 158.097L124.595 158.433C124.492 158.139 124.303 157.889 124.028 157.684C123.757 157.474 123.44 157.315 123.076 157.208C122.712 157.096 122.336 157.04 121.949 157.04C121.505 157.035 121.09 157.11 120.703 157.264C120.32 157.413 120.01 157.623 119.772 157.894C119.534 158.16 119.415 158.473 119.415 158.832C119.415 159.252 119.524 159.576 119.744 159.805C119.968 160.029 120.271 160.197 120.654 160.309C121.036 160.421 121.468 160.521 121.949 160.61C122.574 160.717 123.155 160.885 123.692 161.114C124.228 161.338 124.66 161.639 124.987 162.017C125.313 162.39 125.477 162.852 125.477 163.403C125.477 163.963 125.313 164.453 124.987 164.873C124.66 165.288 124.228 165.61 123.692 165.839C123.16 166.068 122.579 166.182 121.949 166.182ZM132.929 159H133.909V166H132.929L132.894 164.698C132.665 165.141 132.345 165.501 131.935 165.776C131.524 166.047 131.034 166.182 130.465 166.182C129.951 166.182 129.471 166.086 129.023 165.895C128.575 165.699 128.18 165.431 127.84 165.09C127.499 164.749 127.233 164.355 127.042 163.907C126.85 163.459 126.755 162.978 126.755 162.465C126.755 161.961 126.848 161.487 127.035 161.044C127.226 160.601 127.487 160.211 127.819 159.875C128.155 159.539 128.542 159.278 128.981 159.091C129.424 158.9 129.898 158.804 130.402 158.804C130.985 158.804 131.494 158.944 131.928 159.224C132.362 159.499 132.707 159.861 132.964 160.309L132.929 159ZM130.444 165.23C130.943 165.23 131.372 165.109 131.732 164.866C132.091 164.619 132.366 164.287 132.558 163.872C132.754 163.457 132.852 162.999 132.852 162.5C132.852 161.987 132.754 161.525 132.558 161.114C132.362 160.699 132.084 160.37 131.725 160.127C131.365 159.884 130.938 159.763 130.444 159.763C129.949 159.763 129.496 159.887 129.086 160.134C128.68 160.377 128.355 160.706 128.113 161.121C127.875 161.536 127.756 161.996 127.756 162.5C127.756 163.009 127.879 163.471 128.127 163.886C128.374 164.297 128.701 164.623 129.107 164.866C129.517 165.109 129.963 165.23 130.444 165.23ZM135.605 166V155.5H136.585V166H135.605ZM144.171 159H145.151V166H144.171L144.136 164.698C143.907 165.141 143.587 165.501 143.177 165.776C142.766 166.047 142.276 166.182 141.707 166.182C141.193 166.182 140.713 166.086 140.265 165.895C139.817 165.699 139.422 165.431 139.082 165.09C138.741 164.749 138.475 164.355 138.284 163.907C138.092 163.459 137.997 162.978 137.997 162.465C137.997 161.961 138.09 161.487 138.277 161.044C138.468 160.601 138.729 160.211 139.061 159.875C139.397 159.539 139.784 159.278 140.223 159.091C140.666 158.9 141.14 158.804 141.644 158.804C142.227 158.804 142.736 158.944 143.17 159.224C143.604 159.499 143.949 159.861 144.206 160.309L144.171 159ZM141.686 165.23C142.185 165.23 142.614 165.109 142.974 164.866C143.333 164.619 143.608 164.287 143.8 163.872C143.996 163.457 144.094 162.999 144.094 162.5C144.094 161.987 143.996 161.525 143.8 161.114C143.604 160.699 143.326 160.37 142.967 160.127C142.607 159.884 142.18 159.763 141.686 159.763C141.191 159.763 140.738 159.887 140.328 160.134C139.922 160.377 139.597 160.706 139.355 161.121C139.117 161.536 138.998 161.996 138.998 162.5C138.998 163.009 139.121 163.471 139.369 163.886C139.616 164.297 139.943 164.623 140.349 164.866C140.759 165.109 141.205 165.23 141.686 165.23ZM146.751 166V159H147.731V159.966C147.979 159.611 148.301 159.329 148.697 159.119C149.094 158.909 149.526 158.804 149.992 158.804C150.263 158.804 150.524 158.839 150.776 158.909L150.377 159.882C150.181 159.821 149.99 159.791 149.803 159.791C149.425 159.791 149.078 159.884 148.76 160.071C148.448 160.258 148.198 160.507 148.011 160.82C147.825 161.133 147.731 161.48 147.731 161.863V166H146.751ZM156.655 159H157.691L153.862 169.5H152.819L154.093 166L151.58 159H152.651L154.583 164.649L156.655 159Z" fill="#222222"/>
<rect x="24" y="175" width="380" height="60" rx="30" fill="#FAFAFA"/>
<path d="M48.48 211.208C47.744 211.208 47.072 211.019 46.464 210.64C45.8613 210.261 45.3787 209.752 45.016 209.112C44.6587 208.472 44.48 207.765 44.48 206.992C44.48 206.411 44.584 205.867 44.792 205.36C45 204.848 45.2853 204.4 45.648 204.016C46.016 203.627 46.4427 203.323 46.928 203.104C47.4133 202.885 47.9307 202.776 48.48 202.776C49.104 202.776 49.6747 202.909 50.192 203.176C50.7147 203.437 51.1573 203.797 51.52 204.256C51.8827 204.715 52.1467 205.237 52.312 205.824C52.4773 206.411 52.5147 207.024 52.424 207.664H46.576C46.6507 207.963 46.7733 208.232 46.944 208.472C47.1147 208.707 47.3307 208.896 47.592 209.04C47.8533 209.179 48.1493 209.251 48.48 209.256C48.8213 209.261 49.1307 209.181 49.408 209.016C49.6907 208.845 49.9253 208.616 50.112 208.328L52.104 208.792C51.7787 209.501 51.2933 210.083 50.648 210.536C50.0027 210.984 49.28 211.208 48.48 211.208ZM46.512 206.2H50.448C50.3893 205.88 50.264 205.592 50.072 205.336C49.8853 205.075 49.6533 204.867 49.376 204.712C49.0987 204.557 48.8 204.48 48.48 204.48C48.16 204.48 47.864 204.557 47.592 204.712C47.32 204.861 47.088 205.067 46.896 205.328C46.7093 205.584 46.5813 205.875 46.512 206.2ZM52.9494 211L55.8774 206.984L52.9734 202.992H55.3814L57.0774 205.32L58.7814 202.992H61.1894L58.2854 206.984L61.2134 211H58.8054L57.0774 208.632L55.3574 211H52.9494ZM63.6962 205.008C63.4189 205.008 63.1816 204.912 62.9842 204.72C62.7922 204.523 62.6962 204.283 62.6962 204C62.6962 203.728 62.7922 203.493 62.9842 203.296C63.1816 203.099 63.4189 203 63.6962 203C63.9736 203 64.2109 203.099 64.4082 203.296C64.6056 203.493 64.7042 203.728 64.7042 204C64.7042 204.283 64.6056 204.523 64.4082 204.72C64.2109 204.912 63.9736 205.008 63.6962 205.008ZM63.6962 211.208C63.4189 211.208 63.1816 211.112 62.9842 210.92C62.7922 210.723 62.6962 210.483 62.6962 210.2C62.6962 209.928 62.7922 209.693 62.9842 209.496C63.1816 209.299 63.4189 209.2 63.6962 209.2C63.9736 209.2 64.2109 209.299 64.4082 209.496C64.6056 209.693 64.7042 209.928 64.7042 210.2C64.7042 210.483 64.6056 210.723 64.4082 210.92C64.2109 211.112 63.9736 211.208 63.6962 211.208ZM74.7414 201.568C74.3627 201.563 74.0027 201.624 73.6614 201.752C73.3254 201.875 73.0507 202.043 72.8374 202.256C72.624 202.469 72.5174 202.715 72.5174 202.992C72.5174 203.349 72.616 203.619 72.8134 203.8C73.016 203.981 73.2854 204.115 73.6214 204.2C73.9574 204.28 74.3307 204.355 74.7414 204.424C75.488 204.541 76.1787 204.739 76.8134 205.016C77.448 205.293 77.9574 205.664 78.3414 206.128C78.7254 206.587 78.9174 207.149 78.9174 207.816C78.9174 208.424 78.76 208.965 78.4454 209.44C78.1307 209.909 77.7067 210.293 77.1734 210.592C76.6454 210.891 76.0587 211.08 75.4134 211.16V212.792H74.0774V211.16C73.5387 211.096 73.032 210.96 72.5574 210.752C72.0827 210.544 71.6694 210.272 71.3174 209.936C70.9707 209.6 70.7147 209.208 70.5494 208.76L72.3814 208.088C72.456 208.301 72.608 208.496 72.8374 208.672C73.0667 208.848 73.3467 208.989 73.6774 209.096C74.008 209.203 74.3627 209.256 74.7414 209.256C75.1307 209.256 75.4934 209.197 75.8294 209.08C76.1707 208.957 76.4454 208.789 76.6534 208.576C76.8614 208.357 76.9654 208.104 76.9654 207.816C76.9654 207.523 76.856 207.283 76.6374 207.096C76.4187 206.904 76.1387 206.752 75.7974 206.64C75.456 206.528 75.104 206.443 74.7414 206.384C73.9467 206.261 73.2347 206.072 72.6054 205.816C71.976 205.56 71.4774 205.205 71.1094 204.752C70.7467 204.299 70.5654 203.712 70.5654 202.992C70.5654 202.384 70.7227 201.843 71.0374 201.368C71.3574 200.893 71.7814 200.509 72.3094 200.216C72.8427 199.917 73.432 199.728 74.0774 199.648V198.008H75.4134V199.648C75.9414 199.712 76.4427 199.848 76.9174 200.056C77.392 200.264 77.8054 200.539 78.1574 200.88C78.5147 201.216 78.776 201.611 78.9414 202.064L77.1014 202.728C77.0267 202.515 76.8747 202.32 76.6454 202.144C76.416 201.968 76.136 201.829 75.8054 201.728C75.4747 201.621 75.12 201.568 74.7414 201.568ZM81.8293 211V201.752H80.4213L80.9493 199.8H83.7812V211H81.8293ZM90.1025 211.208C89.4518 211.208 88.8598 211.059 88.3265 210.76C87.7932 210.456 87.3318 210.037 86.9425 209.504C86.5585 208.971 86.2625 208.355 86.0545 207.656C85.8465 206.952 85.7425 206.2 85.7425 205.4C85.7425 204.6 85.8465 203.851 86.0545 203.152C86.2625 202.448 86.5585 201.829 86.9425 201.296C87.3318 200.763 87.7932 200.347 88.3265 200.048C88.8598 199.744 89.4518 199.592 90.1025 199.592C90.7532 199.592 91.3452 199.744 91.8785 200.048C92.4118 200.347 92.8678 200.763 93.2465 201.296C93.6305 201.829 93.9265 202.448 94.1345 203.152C94.3478 203.851 94.4545 204.6 94.4545 205.4C94.4545 206.2 94.3478 206.952 94.1345 207.656C93.9265 208.355 93.6305 208.971 93.2465 209.504C92.8678 210.037 92.4118 210.456 91.8785 210.76C91.3452 211.059 90.7532 211.208 90.1025 211.208ZM90.1025 209.256C90.6732 209.256 91.1452 209.075 91.5185 208.712C91.8918 208.349 92.1692 207.875 92.3505 207.288C92.5318 206.701 92.6225 206.072 92.6225 205.4C92.6225 204.691 92.5265 204.045 92.3345 203.464C92.1425 202.877 91.8598 202.411 91.4865 202.064C91.1132 201.717 90.6518 201.544 90.1025 201.544C89.6705 201.544 89.2945 201.651 88.9745 201.864C88.6598 202.072 88.3985 202.357 88.1905 202.72C87.9825 203.083 87.8278 203.496 87.7265 203.96C87.6252 204.419 87.5745 204.899 87.5745 205.4C87.5745 206.067 87.6652 206.696 87.8465 207.288C88.0332 207.875 88.3132 208.349 88.6865 208.712C89.0652 209.075 89.5372 209.256 90.1025 209.256ZM99.615 211.208C98.9643 211.208 98.3723 211.059 97.839 210.76C97.3057 210.456 96.8443 210.037 96.455 209.504C96.071 208.971 95.775 208.355 95.567 207.656C95.359 206.952 95.255 206.2 95.255 205.4C95.255 204.6 95.359 203.851 95.567 203.152C95.775 202.448 96.071 201.829 96.455 201.296C96.8443 200.763 97.3057 200.347 97.839 200.048C98.3723 199.744 98.9643 199.592 99.615 199.592C100.266 199.592 100.858 199.744 101.391 200.048C101.924 200.347 102.38 200.763 102.759 201.296C103.143 201.829 103.439 202.448 103.647 203.152C103.86 203.851 103.967 204.6 103.967 205.4C103.967 206.2 103.86 206.952 103.647 207.656C103.439 208.355 103.143 208.971 102.759 209.504C102.38 210.037 101.924 210.456 101.391 210.76C100.858 211.059 100.266 211.208 99.615 211.208ZM99.615 209.256C100.186 209.256 100.658 209.075 101.031 208.712C101.404 208.349 101.682 207.875 101.863 207.288C102.044 206.701 102.135 206.072 102.135 205.4C102.135 204.691 102.039 204.045 101.847 203.464C101.655 202.877 101.372 202.411 100.999 202.064C100.626 201.717 100.164 201.544 99.615 201.544C99.183 201.544 98.807 201.651 98.487 201.864C98.1723 202.072 97.911 202.357 97.703 202.72C97.495 203.083 97.3403 203.496 97.239 203.96C97.1377 204.419 97.087 204.899 97.087 205.4C97.087 206.067 97.1777 206.696 97.359 207.288C97.5457 207.875 97.8257 208.349 98.199 208.712C98.5777 209.075 99.0497 209.256 99.615 209.256ZM105.287 211.896L105.783 209.192H107.735L106.591 211.896H105.287ZM113.734 211.208C113.083 211.208 112.491 211.059 111.958 210.76C111.424 210.456 110.963 210.037 110.574 209.504C110.19 208.971 109.894 208.355 109.686 207.656C109.478 206.952 109.374 206.2 109.374 205.4C109.374 204.6 109.478 203.851 109.686 203.152C109.894 202.448 110.19 201.829 110.574 201.296C110.963 200.763 111.424 200.347 111.958 200.048C112.491 199.744 113.083 199.592 113.734 199.592C114.384 199.592 114.976 199.744 115.51 200.048C116.043 200.347 116.499 200.763 116.878 201.296C117.262 201.829 117.558 202.448 117.766 203.152C117.979 203.851 118.086 204.6 118.086 205.4C118.086 206.2 117.979 206.952 117.766 207.656C117.558 208.355 117.262 208.971 116.878 209.504C116.499 210.037 116.043 210.456 115.51 210.76C114.976 211.059 114.384 211.208 113.734 211.208ZM113.734 209.256C114.304 209.256 114.776 209.075 115.15 208.712C115.523 208.349 115.8 207.875 115.982 207.288C116.163 206.701 116.254 206.072 116.254 205.4C116.254 204.691 116.158 204.045 115.966 203.464C115.774 202.877 115.491 202.411 115.118 202.064C114.744 201.717 114.283 201.544 113.734 201.544C113.302 201.544 112.926 201.651 112.606 201.864C112.291 202.072 112.03 202.357 111.822 202.72C111.614 203.083 111.459 203.496 111.358 203.96C111.256 204.419 111.206 204.899 111.206 205.4C111.206 206.067 111.296 206.696 111.478 207.288C111.664 207.875 111.944 208.349 112.318 208.712C112.696 209.075 113.168 209.256 113.734 209.256ZM123.246 211.208C122.596 211.208 122.004 211.059 121.47 210.76C120.937 210.456 120.476 210.037 120.086 209.504C119.702 208.971 119.406 208.355 119.198 207.656C118.99 206.952 118.886 206.2 118.886 205.4C118.886 204.6 118.99 203.851 119.198 203.152C119.406 202.448 119.702 201.829 120.086 201.296C120.476 200.763 120.937 200.347 121.47 200.048C122.004 199.744 122.596 199.592 123.246 199.592C123.897 199.592 124.489 199.744 125.022 200.048C125.556 200.347 126.012 200.763 126.39 201.296C126.774 201.829 127.07 202.448 127.278 203.152C127.492 203.851 127.598 204.6 127.598 205.4C127.598 206.2 127.492 206.952 127.278 207.656C127.07 208.355 126.774 208.971 126.39 209.504C126.012 210.037 125.556 210.456 125.022 210.76C124.489 211.059 123.897 211.208 123.246 211.208ZM123.246 209.256C123.817 209.256 124.289 209.075 124.662 208.712C125.036 208.349 125.313 207.875 125.494 207.288C125.676 206.701 125.766 206.072 125.766 205.4C125.766 204.691 125.67 204.045 125.478 203.464C125.286 202.877 125.004 202.411 124.63 202.064C124.257 201.717 123.796 201.544 123.246 201.544C122.814 201.544 122.438 201.651 122.118 201.864C121.804 202.072 121.542 202.357 121.334 202.72C121.126 203.083 120.972 203.496 120.87 203.96C120.769 204.419 120.718 204.899 120.718 205.4C120.718 206.067 120.809 206.696 120.99 207.288C121.177 207.875 121.457 208.349 121.83 208.712C122.209 209.075 122.681 209.256 123.246 209.256ZM132.759 211.208C132.108 211.208 131.516 211.059 130.983 210.76C130.449 210.456 129.988 210.037 129.599 209.504C129.215 208.971 128.919 208.355 128.711 207.656C128.503 206.952 128.399 206.2 128.399 205.4C128.399 204.6 128.503 203.851 128.711 203.152C128.919 202.448 129.215 201.829 129.599 201.296C129.988 200.763 130.449 200.347 130.983 200.048C131.516 199.744 132.108 199.592 132.759 199.592C133.409 199.592 134.001 199.744 134.535 200.048C135.068 200.347 135.524 200.763 135.903 201.296C136.287 201.829 136.583 202.448 136.791 203.152C137.004 203.851 137.111 204.6 137.111 205.4C137.111 206.2 137.004 206.952 136.791 207.656C136.583 208.355 136.287 208.971 135.903 209.504C135.524 210.037 135.068 210.456 134.535 210.76C134.001 211.059 133.409 211.208 132.759 211.208ZM132.759 209.256C133.329 209.256 133.801 209.075 134.175 208.712C134.548 208.349 134.825 207.875 135.007 207.288C135.188 206.701 135.279 206.072 135.279 205.4C135.279 204.691 135.183 204.045 134.991 203.464C134.799 202.877 134.516 202.411 134.143 202.064C133.769 201.717 133.308 201.544 132.759 201.544C132.327 201.544 131.951 201.651 131.631 201.864C131.316 202.072 131.055 202.357 130.847 202.72C130.639 203.083 130.484 203.496 130.383 203.96C130.281 204.419 130.231 204.899 130.231 205.4C130.231 206.067 130.321 206.696 130.503 207.288C130.689 207.875 130.969 208.349 131.343 208.712C131.721 209.075 132.193 209.256 132.759 209.256ZM141.455 210.2V207.176H138.431V205.224H141.455V202.2H143.407V205.224H146.431V207.176H143.407V210.2H141.455Z" fill="#9E9E9E"/>
<path d="M373.057 208.859C373.009 208.812 372.803 208.634 372.633 208.468C371.563 207.497 369.813 204.964 369.279 203.639C369.193 203.437 369.012 202.928 369 202.656C369 202.396 369.06 202.147 369.182 201.91C369.352 201.615 369.619 201.378 369.935 201.248C370.154 201.164 370.81 201.034 370.822 201.034C371.539 200.904 372.705 200.833 373.993 200.833C375.221 200.833 376.339 200.904 377.067 201.011C377.079 201.023 377.894 201.153 378.173 201.295C378.683 201.556 379 202.065 379 202.609V202.656C378.988 203.011 378.671 203.757 378.659 203.757C378.124 205.011 376.46 207.486 375.354 208.48C375.354 208.48 375.07 208.76 374.892 208.882C374.637 209.072 374.322 209.166 374.006 209.166C373.653 209.166 373.325 209.06 373.057 208.859Z" fill="#222222"/>
<rect width="428" height="187" transform="translate(0 253)" fill="white"/>
<rect x="24" y="269" width="380" height="58" rx="29" fill="#222222"/>
<g filter="url(#filter0_d_1738_37529)">
<path d="M152.246 304.234C151.394 304.234 150.593 304.066 149.843 303.73C149.093 303.388 148.433 302.92 147.863 302.326C147.299 301.726 146.855 301.03 146.531 300.238C146.213 299.446 146.054 298.6 146.054 297.7C146.054 296.8 146.213 295.954 146.531 295.162C146.855 294.37 147.299 293.677 147.863 293.083C148.433 292.483 149.093 292.015 149.843 291.679C150.593 291.337 151.394 291.166 152.246 291.166C153.266 291.166 154.205 291.403 155.063 291.877C155.921 292.351 156.632 292.981 157.196 293.767L155.531 294.658C155.141 294.166 154.658 293.773 154.082 293.479C153.506 293.185 152.894 293.038 152.246 293.038C151.646 293.038 151.085 293.161 150.563 293.407C150.041 293.653 149.582 293.989 149.186 294.415C148.79 294.841 148.481 295.336 148.259 295.9C148.037 296.464 147.926 297.064 147.926 297.7C147.926 298.342 148.037 298.945 148.259 299.509C148.481 300.067 148.79 300.562 149.186 300.994C149.588 301.42 150.05 301.756 150.572 302.002C151.094 302.242 151.652 302.362 152.246 302.362C152.906 302.362 153.521 302.215 154.091 301.921C154.667 301.621 155.147 301.225 155.531 300.733L157.196 301.642C156.632 302.428 155.921 303.058 155.063 303.532C154.205 304 153.266 304.234 152.246 304.234ZM162.633 304.234C161.805 304.234 161.049 304.021 160.365 303.595C159.687 303.169 159.144 302.599 158.736 301.885C158.334 301.165 158.133 300.37 158.133 299.5C158.133 298.84 158.25 298.225 158.484 297.655C158.718 297.079 159.039 296.575 159.447 296.143C159.861 295.705 160.341 295.363 160.887 295.117C161.433 294.871 162.015 294.748 162.633 294.748C163.461 294.748 164.214 294.961 164.892 295.387C165.576 295.813 166.119 296.386 166.521 297.106C166.929 297.826 167.133 298.624 167.133 299.5C167.133 300.154 167.016 300.766 166.782 301.336C166.548 301.906 166.224 302.41 165.81 302.848C165.402 303.28 164.925 303.619 164.379 303.865C163.839 304.111 163.257 304.234 162.633 304.234ZM162.633 302.362C163.131 302.362 163.578 302.23 163.974 301.966C164.37 301.702 164.682 301.354 164.91 300.922C165.144 300.484 165.261 300.01 165.261 299.5C165.261 298.978 165.141 298.498 164.901 298.06C164.667 297.622 164.352 297.274 163.956 297.016C163.56 296.752 163.119 296.62 162.633 296.62C162.141 296.62 161.694 296.752 161.292 297.016C160.896 297.28 160.581 297.631 160.347 298.069C160.119 298.507 160.005 298.984 160.005 299.5C160.005 300.034 160.125 300.517 160.365 300.949C160.605 301.381 160.923 301.726 161.319 301.984C161.721 302.236 162.159 302.362 162.633 302.362ZM168.787 304V295H170.659V295.954C170.971 295.582 171.352 295.288 171.802 295.072C172.258 294.856 172.75 294.748 173.278 294.748C173.92 294.748 174.511 294.904 175.051 295.216C175.591 295.522 176.02 295.93 176.338 296.44C176.656 295.93 177.079 295.522 177.607 295.216C178.141 294.904 178.729 294.748 179.371 294.748C180.037 294.748 180.643 294.91 181.189 295.234C181.735 295.558 182.17 295.993 182.494 296.539C182.818 297.085 182.98 297.691 182.98 298.357V304H181.108V298.834C181.108 298.438 181.012 298.075 180.82 297.745C180.628 297.415 180.37 297.148 180.046 296.944C179.722 296.74 179.362 296.638 178.966 296.638C178.57 296.638 178.21 296.734 177.886 296.926C177.562 297.118 177.304 297.379 177.112 297.709C176.92 298.039 176.824 298.414 176.824 298.834V304H174.952V298.834C174.952 298.414 174.856 298.039 174.664 297.709C174.472 297.379 174.211 297.118 173.881 296.926C173.557 296.734 173.197 296.638 172.801 296.638C172.411 296.638 172.051 296.74 171.721 296.944C171.397 297.148 171.139 297.415 170.947 297.745C170.755 298.075 170.659 298.438 170.659 298.834V304H168.787ZM186.855 308.5H184.983V295H186.855V296.323C187.155 295.861 187.539 295.486 188.007 295.198C188.475 294.91 189.027 294.766 189.663 294.766C190.317 294.766 190.929 294.889 191.499 295.135C192.075 295.381 192.579 295.723 193.011 296.161C193.443 296.593 193.782 297.094 194.028 297.664C194.274 298.234 194.397 298.846 194.397 299.5C194.397 300.154 194.274 300.769 194.028 301.345C193.782 301.921 193.443 302.428 193.011 302.866C192.579 303.298 192.075 303.637 191.499 303.883C190.929 304.129 190.317 304.252 189.663 304.252C189.027 304.252 188.475 304.108 188.007 303.82C187.539 303.526 187.155 303.151 186.855 302.695V308.5ZM189.645 296.575C189.123 296.575 188.664 296.707 188.268 296.971C187.872 297.235 187.563 297.589 187.341 298.033C187.119 298.471 187.008 298.96 187.008 299.5C187.008 300.04 187.119 300.532 187.341 300.976C187.563 301.42 187.872 301.774 188.268 302.038C188.664 302.302 189.123 302.434 189.645 302.434C190.161 302.434 190.635 302.305 191.067 302.047C191.499 301.783 191.844 301.429 192.102 300.985C192.36 300.541 192.489 300.046 192.489 299.5C192.489 298.966 192.36 298.477 192.102 298.033C191.85 297.589 191.508 297.235 191.076 296.971C190.644 296.707 190.167 296.575 189.645 296.575ZM195.941 304V290.5H197.813V304H195.941ZM204.003 304.234C203.175 304.234 202.419 304.021 201.735 303.595C201.057 303.169 200.514 302.599 200.106 301.885C199.704 301.165 199.503 300.37 199.503 299.5C199.503 298.84 199.62 298.225 199.854 297.655C200.088 297.079 200.409 296.575 200.817 296.143C201.231 295.705 201.711 295.363 202.257 295.117C202.803 294.871 203.385 294.748 204.003 294.748C204.693 294.748 205.326 294.892 205.902 295.18C206.478 295.462 206.97 295.855 207.378 296.359C207.786 296.857 208.086 297.433 208.278 298.087C208.47 298.735 208.527 299.425 208.449 300.157H201.51C201.588 300.571 201.738 300.946 201.96 301.282C202.188 301.612 202.476 301.873 202.824 302.065C203.178 302.257 203.571 302.356 204.003 302.362C204.459 302.362 204.873 302.248 205.245 302.02C205.623 301.792 205.932 301.477 206.172 301.075L208.071 301.516C207.711 302.314 207.168 302.968 206.442 303.478C205.716 303.982 204.903 304.234 204.003 304.234ZM201.447 298.726H206.559C206.499 298.294 206.346 297.904 206.1 297.556C205.86 297.202 205.557 296.923 205.191 296.719C204.831 296.509 204.435 296.404 204.003 296.404C203.577 296.404 203.181 296.506 202.815 296.71C202.455 296.914 202.155 297.193 201.915 297.547C201.681 297.895 201.525 298.288 201.447 298.726ZM214.839 296.872H212.949L212.94 304H211.068L211.077 296.872H209.646V295H211.077L211.068 292.174H212.94L212.949 295H214.839V296.872ZM220.399 304.234C219.571 304.234 218.815 304.021 218.131 303.595C217.453 303.169 216.91 302.599 216.502 301.885C216.1 301.165 215.899 300.37 215.899 299.5C215.899 298.84 216.016 298.225 216.25 297.655C216.484 297.079 216.805 296.575 217.213 296.143C217.627 295.705 218.107 295.363 218.653 295.117C219.199 294.871 219.781 294.748 220.399 294.748C221.089 294.748 221.722 294.892 222.298 295.18C222.874 295.462 223.366 295.855 223.774 296.359C224.182 296.857 224.482 297.433 224.674 298.087C224.866 298.735 224.923 299.425 224.845 300.157H217.906C217.984 300.571 218.134 300.946 218.356 301.282C218.584 301.612 218.872 301.873 219.22 302.065C219.574 302.257 219.967 302.356 220.399 302.362C220.855 302.362 221.269 302.248 221.641 302.02C222.019 301.792 222.328 301.477 222.568 301.075L224.467 301.516C224.107 302.314 223.564 302.968 222.838 303.478C222.112 303.982 221.299 304.234 220.399 304.234ZM217.843 298.726H222.955C222.895 298.294 222.742 297.904 222.496 297.556C222.256 297.202 221.953 296.923 221.587 296.719C221.227 296.509 220.831 296.404 220.399 296.404C219.973 296.404 219.577 296.506 219.211 296.71C218.851 296.914 218.551 297.193 218.311 297.547C218.077 297.895 217.921 298.288 217.843 298.726ZM233.09 308.5H231.218V295H233.09V296.323C233.39 295.861 233.774 295.486 234.242 295.198C234.71 294.91 235.262 294.766 235.898 294.766C236.552 294.766 237.164 294.889 237.734 295.135C238.31 295.381 238.814 295.723 239.246 296.161C239.678 296.593 240.017 297.094 240.263 297.664C240.509 298.234 240.632 298.846 240.632 299.5C240.632 300.154 240.509 300.769 240.263 301.345C240.017 301.921 239.678 302.428 239.246 302.866C238.814 303.298 238.31 303.637 237.734 303.883C237.164 304.129 236.552 304.252 235.898 304.252C235.262 304.252 234.71 304.108 234.242 303.82C233.774 303.526 233.39 303.151 233.09 302.695V308.5ZM235.88 296.575C235.358 296.575 234.899 296.707 234.503 296.971C234.107 297.235 233.798 297.589 233.576 298.033C233.354 298.471 233.243 298.96 233.243 299.5C233.243 300.04 233.354 300.532 233.576 300.976C233.798 301.42 234.107 301.774 234.503 302.038C234.899 302.302 235.358 302.434 235.88 302.434C236.396 302.434 236.87 302.305 237.302 302.047C237.734 301.783 238.079 301.429 238.337 300.985C238.595 300.541 238.724 300.046 238.724 299.5C238.724 298.966 238.595 298.477 238.337 298.033C238.085 297.589 237.743 297.235 237.311 296.971C236.879 296.707 236.402 296.575 235.88 296.575ZM242.299 304V295H244.171V295.954C244.483 295.582 244.867 295.288 245.323 295.072C245.779 294.856 246.271 294.748 246.799 294.748C247.135 294.748 247.468 294.793 247.798 294.883L247.051 296.773C246.817 296.683 246.583 296.638 246.349 296.638C245.953 296.638 245.59 296.737 245.26 296.935C244.93 297.127 244.666 297.388 244.468 297.718C244.27 298.048 244.171 298.414 244.171 298.816V304H242.299ZM252.576 304.234C251.748 304.234 250.992 304.021 250.308 303.595C249.63 303.169 249.087 302.599 248.679 301.885C248.277 301.165 248.076 300.37 248.076 299.5C248.076 298.84 248.193 298.225 248.427 297.655C248.661 297.079 248.982 296.575 249.39 296.143C249.804 295.705 250.284 295.363 250.83 295.117C251.376 294.871 251.958 294.748 252.576 294.748C253.404 294.748 254.157 294.961 254.835 295.387C255.519 295.813 256.062 296.386 256.464 297.106C256.872 297.826 257.076 298.624 257.076 299.5C257.076 300.154 256.959 300.766 256.725 301.336C256.491 301.906 256.167 302.41 255.753 302.848C255.345 303.28 254.868 303.619 254.322 303.865C253.782 304.111 253.2 304.234 252.576 304.234ZM252.576 302.362C253.074 302.362 253.521 302.23 253.917 301.966C254.313 301.702 254.625 301.354 254.853 300.922C255.087 300.484 255.204 300.01 255.204 299.5C255.204 298.978 255.084 298.498 254.844 298.06C254.61 297.622 254.295 297.274 253.899 297.016C253.503 296.752 253.062 296.62 252.576 296.62C252.084 296.62 251.637 296.752 251.235 297.016C250.839 297.28 250.524 297.631 250.29 298.069C250.062 298.507 249.948 298.984 249.948 299.5C249.948 300.034 250.068 300.517 250.308 300.949C250.548 301.381 250.866 301.726 251.262 301.984C251.664 302.236 252.102 302.362 252.576 302.362ZM261.201 292.957V295H263.739V296.872H261.201V304H259.329V296.872H258.258V295H259.329V292.957C259.329 292.465 259.449 292.018 259.689 291.616C259.929 291.208 260.25 290.884 260.652 290.644C261.06 290.404 261.513 290.284 262.011 290.284C262.371 290.284 262.722 290.356 263.064 290.5C263.406 290.644 263.712 290.866 263.982 291.166L262.641 292.489C262.575 292.381 262.482 292.3 262.362 292.246C262.248 292.186 262.131 292.156 262.011 292.156C261.789 292.156 261.597 292.234 261.435 292.39C261.279 292.546 261.201 292.735 261.201 292.957ZM265.328 295H267.2V304H265.328V295ZM266.282 293.695C265.994 293.695 265.754 293.602 265.562 293.416C265.37 293.23 265.274 292.996 265.274 292.714C265.274 292.438 265.37 292.207 265.562 292.021C265.754 291.829 265.991 291.733 266.273 291.733C266.549 291.733 266.783 291.829 266.975 292.021C267.167 292.207 267.263 292.438 267.263 292.714C267.263 292.996 267.167 293.23 266.975 293.416C266.789 293.602 266.558 293.695 266.282 293.695ZM269.589 304V290.5H271.461V304H269.589ZM277.651 304.234C276.823 304.234 276.067 304.021 275.383 303.595C274.705 303.169 274.162 302.599 273.754 301.885C273.352 301.165 273.151 300.37 273.151 299.5C273.151 298.84 273.268 298.225 273.502 297.655C273.736 297.079 274.057 296.575 274.465 296.143C274.879 295.705 275.359 295.363 275.905 295.117C276.451 294.871 277.033 294.748 277.651 294.748C278.341 294.748 278.974 294.892 279.55 295.18C280.126 295.462 280.618 295.855 281.026 296.359C281.434 296.857 281.734 297.433 281.926 298.087C282.118 298.735 282.175 299.425 282.097 300.157H275.158C275.236 300.571 275.386 300.946 275.608 301.282C275.836 301.612 276.124 301.873 276.472 302.065C276.826 302.257 277.219 302.356 277.651 302.362C278.107 302.362 278.521 302.248 278.893 302.02C279.271 301.792 279.58 301.477 279.82 301.075L281.719 301.516C281.359 302.314 280.816 302.968 280.09 303.478C279.364 303.982 278.551 304.234 277.651 304.234ZM275.095 298.726H280.207C280.147 298.294 279.994 297.904 279.748 297.556C279.508 297.202 279.205 296.923 278.839 296.719C278.479 296.509 278.083 296.404 277.651 296.404C277.225 296.404 276.829 296.506 276.463 296.71C276.103 296.914 275.803 297.193 275.563 297.547C275.329 297.895 275.173 298.288 275.095 298.726Z" fill="white"/>
</g>
<rect x="24.5" y="343.5" width="379" height="57" rx="28.5" fill="white"/>
<rect x="24.5" y="343.5" width="379" height="57" rx="28.5" stroke="#616161"/>
<g filter="url(#filter1_d_1738_37529)">
<path d="M145.622 365.4V367.272H141.608V378H139.736V367.272H135.731V365.4H145.622ZM146.109 374.625V369H147.981V374.166C147.981 374.568 148.08 374.934 148.278 375.264C148.476 375.594 148.74 375.858 149.07 376.056C149.4 376.248 149.763 376.344 150.159 376.344C150.561 376.344 150.924 376.248 151.248 376.056C151.578 375.858 151.839 375.594 152.031 375.264C152.229 374.934 152.328 374.568 152.328 374.166V369H154.2L154.209 378H152.337L152.328 377.028C152.022 377.4 151.641 377.694 151.185 377.91C150.729 378.126 150.24 378.234 149.718 378.234C149.052 378.234 148.446 378.072 147.9 377.748C147.354 377.424 146.919 376.989 146.595 376.443C146.271 375.897 146.109 375.291 146.109 374.625ZM156.214 378V369H158.086V369.954C158.398 369.582 158.782 369.288 159.238 369.072C159.694 368.856 160.186 368.748 160.714 368.748C161.05 368.748 161.383 368.793 161.713 368.883L160.966 370.773C160.732 370.683 160.498 370.638 160.264 370.638C159.868 370.638 159.505 370.737 159.175 370.935C158.845 371.127 158.581 371.388 158.383 371.718C158.185 372.048 158.086 372.414 158.086 372.816V378H156.214ZM171.123 372.357V378H169.251V372.816C169.251 372.414 169.152 372.048 168.954 371.718C168.762 371.388 168.501 371.127 168.171 370.935C167.847 370.737 167.481 370.638 167.073 370.638C166.677 370.638 166.314 370.737 165.984 370.935C165.654 371.127 165.39 371.388 165.192 371.718C164.994 372.048 164.895 372.414 164.895 372.816V378H163.023V369H164.895V369.954C165.207 369.582 165.591 369.288 166.047 369.072C166.503 368.856 166.995 368.748 167.523 368.748C168.189 368.748 168.795 368.91 169.341 369.234C169.887 369.558 170.319 369.993 170.637 370.539C170.961 371.085 171.123 371.691 171.123 372.357ZM181.604 378.234C180.776 378.234 180.02 378.021 179.336 377.595C178.658 377.169 178.115 376.599 177.707 375.885C177.305 375.165 177.104 374.37 177.104 373.5C177.104 372.84 177.221 372.225 177.455 371.655C177.689 371.079 178.01 370.575 178.418 370.143C178.832 369.705 179.312 369.363 179.858 369.117C180.404 368.871 180.986 368.748 181.604 368.748C182.432 368.748 183.185 368.961 183.863 369.387C184.547 369.813 185.09 370.386 185.492 371.106C185.9 371.826 186.104 372.624 186.104 373.5C186.104 374.154 185.987 374.766 185.753 375.336C185.519 375.906 185.195 376.41 184.781 376.848C184.373 377.28 183.896 377.619 183.35 377.865C182.81 378.111 182.228 378.234 181.604 378.234ZM181.604 376.362C182.102 376.362 182.549 376.23 182.945 375.966C183.341 375.702 183.653 375.354 183.881 374.922C184.115 374.484 184.232 374.01 184.232 373.5C184.232 372.978 184.112 372.498 183.872 372.06C183.638 371.622 183.323 371.274 182.927 371.016C182.531 370.752 182.09 370.62 181.604 370.62C181.112 370.62 180.665 370.752 180.263 371.016C179.867 371.28 179.552 371.631 179.318 372.069C179.09 372.507 178.976 372.984 178.976 373.5C178.976 374.034 179.096 374.517 179.336 374.949C179.576 375.381 179.894 375.726 180.29 375.984C180.692 376.236 181.13 376.362 181.604 376.362ZM195.858 372.357V378H193.986V372.816C193.986 372.414 193.887 372.048 193.689 371.718C193.497 371.388 193.236 371.127 192.906 370.935C192.582 370.737 192.216 370.638 191.808 370.638C191.412 370.638 191.049 370.737 190.719 370.935C190.389 371.127 190.125 371.388 189.927 371.718C189.729 372.048 189.63 372.414 189.63 372.816V378H187.758V369H189.63V369.954C189.942 369.582 190.326 369.288 190.782 369.072C191.238 368.856 191.73 368.748 192.258 368.748C192.924 368.748 193.53 368.91 194.076 369.234C194.622 369.558 195.054 369.993 195.372 370.539C195.696 371.085 195.858 371.691 195.858 372.357ZM210.479 372.357V378H208.607V372.816C208.607 372.414 208.508 372.048 208.31 371.718C208.118 371.388 207.857 371.127 207.527 370.935C207.203 370.737 206.837 370.638 206.429 370.638C206.033 370.638 205.67 370.737 205.34 370.935C205.01 371.127 204.746 371.388 204.548 371.718C204.35 372.048 204.251 372.414 204.251 372.816V378H202.379V369H204.251V369.954C204.563 369.582 204.947 369.288 205.403 369.072C205.859 368.856 206.351 368.748 206.879 368.748C207.545 368.748 208.151 368.91 208.697 369.234C209.243 369.558 209.675 369.993 209.993 370.539C210.317 371.085 210.479 371.691 210.479 372.357ZM216.259 378.234C215.431 378.234 214.675 378.021 213.991 377.595C213.313 377.169 212.77 376.599 212.362 375.885C211.96 375.165 211.759 374.37 211.759 373.5C211.759 372.84 211.876 372.225 212.11 371.655C212.344 371.079 212.665 370.575 213.073 370.143C213.487 369.705 213.967 369.363 214.513 369.117C215.059 368.871 215.641 368.748 216.259 368.748C217.087 368.748 217.84 368.961 218.518 369.387C219.202 369.813 219.745 370.386 220.147 371.106C220.555 371.826 220.759 372.624 220.759 373.5C220.759 374.154 220.642 374.766 220.408 375.336C220.174 375.906 219.85 376.41 219.436 376.848C219.028 377.28 218.551 377.619 218.005 377.865C217.465 378.111 216.883 378.234 216.259 378.234ZM216.259 376.362C216.757 376.362 217.204 376.23 217.6 375.966C217.996 375.702 218.308 375.354 218.536 374.922C218.77 374.484 218.887 374.01 218.887 373.5C218.887 372.978 218.767 372.498 218.527 372.06C218.293 371.622 217.978 371.274 217.582 371.016C217.186 370.752 216.745 370.62 216.259 370.62C215.767 370.62 215.32 370.752 214.918 371.016C214.522 371.28 214.207 371.631 213.973 372.069C213.745 372.507 213.631 372.984 213.631 373.5C213.631 374.034 213.751 374.517 213.991 374.949C214.231 375.381 214.549 375.726 214.945 375.984C215.347 376.236 215.785 376.362 216.259 376.362ZM227.113 370.872H225.223L225.214 378H223.342L223.351 370.872H221.92V369H223.351L223.342 366.174H225.214L225.223 369H227.113V370.872ZM228.801 369H230.673V378H228.801V369ZM229.755 367.695C229.467 367.695 229.227 367.602 229.035 367.416C228.843 367.23 228.747 366.996 228.747 366.714C228.747 366.438 228.843 366.207 229.035 366.021C229.227 365.829 229.464 365.733 229.746 365.733C230.022 365.733 230.256 365.829 230.448 366.021C230.64 366.207 230.736 366.438 230.736 366.714C230.736 366.996 230.64 367.23 230.448 367.416C230.262 367.602 230.031 367.695 229.755 367.695ZM235.339 366.957V369H237.877V370.872H235.339V378H233.467V370.872H232.396V369H233.467V366.957C233.467 366.465 233.587 366.018 233.827 365.616C234.067 365.208 234.388 364.884 234.79 364.644C235.198 364.404 235.651 364.284 236.149 364.284C236.509 364.284 236.86 364.356 237.202 364.5C237.544 364.644 237.85 364.866 238.12 365.166L236.779 366.489C236.713 366.381 236.62 366.3 236.5 366.246C236.386 366.186 236.269 366.156 236.149 366.156C235.927 366.156 235.735 366.234 235.573 366.39C235.417 366.546 235.339 366.735 235.339 366.957ZM239.467 369H241.339V378H239.467V369ZM240.421 367.695C240.133 367.695 239.893 367.602 239.701 367.416C239.509 367.23 239.413 366.996 239.413 366.714C239.413 366.438 239.509 366.207 239.701 366.021C239.893 365.829 240.13 365.733 240.412 365.733C240.688 365.733 240.922 365.829 241.114 366.021C241.306 366.207 241.402 366.438 241.402 366.714C241.402 366.996 241.306 367.23 241.114 367.416C240.928 367.602 240.697 367.695 240.421 367.695ZM249.411 375.444L251.085 376.353C250.677 376.923 250.158 377.379 249.528 377.721C248.904 378.063 248.226 378.234 247.494 378.234C246.666 378.234 245.91 378.021 245.226 377.595C244.548 377.169 244.005 376.599 243.597 375.885C243.195 375.165 242.994 374.37 242.994 373.5C242.994 372.84 243.111 372.225 243.345 371.655C243.579 371.079 243.9 370.575 244.308 370.143C244.722 369.705 245.202 369.363 245.748 369.117C246.294 368.871 246.876 368.748 247.494 368.748C248.226 368.748 248.904 368.919 249.528 369.261C250.158 369.603 250.677 370.062 251.085 370.638L249.411 371.547C249.159 371.247 248.865 371.019 248.529 370.863C248.193 370.701 247.848 370.62 247.494 370.62C247.002 370.62 246.555 370.755 246.153 371.025C245.757 371.289 245.442 371.64 245.208 372.078C244.98 372.51 244.866 372.984 244.866 373.5C244.866 374.01 244.983 374.484 245.217 374.922C245.451 375.354 245.766 375.702 246.162 375.966C246.564 376.23 247.008 376.362 247.494 376.362C247.866 376.362 248.22 376.278 248.556 376.11C248.892 375.942 249.177 375.72 249.411 375.444ZM259.683 369H261.555V378H259.674L259.602 376.695C259.338 377.157 258.981 377.529 258.531 377.811C258.081 378.093 257.55 378.234 256.938 378.234C256.278 378.234 255.657 378.111 255.075 377.865C254.493 377.613 253.98 377.265 253.536 376.821C253.098 376.377 252.756 375.867 252.51 375.291C252.264 374.709 252.141 374.085 252.141 373.419C252.141 372.777 252.261 372.174 252.501 371.61C252.741 371.04 253.074 370.542 253.5 370.116C253.926 369.69 254.418 369.357 254.976 369.117C255.54 368.871 256.143 368.748 256.785 368.748C257.439 368.748 258.015 368.898 258.513 369.198C259.017 369.492 259.434 369.87 259.764 370.332L259.683 369ZM256.893 376.425C257.421 376.425 257.883 376.296 258.279 376.038C258.675 375.774 258.981 375.42 259.197 374.976C259.419 374.532 259.53 374.04 259.53 373.5C259.53 372.954 259.419 372.459 259.197 372.015C258.975 371.571 258.666 371.22 258.27 370.962C257.88 370.698 257.421 370.566 256.893 370.566C256.371 370.566 255.894 370.698 255.462 370.962C255.03 371.226 254.688 371.58 254.436 372.024C254.184 372.468 254.058 372.96 254.058 373.5C254.058 374.046 254.187 374.541 254.445 374.985C254.709 375.423 255.054 375.774 255.48 376.038C255.912 376.296 256.383 376.425 256.893 376.425ZM268.303 370.872H266.413L266.404 378H264.532L264.541 370.872H263.11V369H264.541L264.532 366.174H266.404L266.413 369H268.303V370.872ZM269.991 369H271.863V378H269.991V369ZM270.945 367.695C270.657 367.695 270.417 367.602 270.225 367.416C270.033 367.23 269.937 366.996 269.937 366.714C269.937 366.438 270.033 366.207 270.225 366.021C270.417 365.829 270.654 365.733 270.936 365.733C271.212 365.733 271.446 365.829 271.638 366.021C271.83 366.207 271.926 366.438 271.926 366.714C271.926 366.996 271.83 367.23 271.638 367.416C271.452 367.602 271.221 367.695 270.945 367.695ZM278.018 378.234C277.19 378.234 276.434 378.021 275.75 377.595C275.072 377.169 274.529 376.599 274.121 375.885C273.719 375.165 273.518 374.37 273.518 373.5C273.518 372.84 273.635 372.225 273.869 371.655C274.103 371.079 274.424 370.575 274.832 370.143C275.246 369.705 275.726 369.363 276.272 369.117C276.818 368.871 277.4 368.748 278.018 368.748C278.846 368.748 279.599 368.961 280.277 369.387C280.961 369.813 281.504 370.386 281.906 371.106C282.314 371.826 282.518 372.624 282.518 373.5C282.518 374.154 282.401 374.766 282.167 375.336C281.933 375.906 281.609 376.41 281.195 376.848C280.787 377.28 280.31 377.619 279.764 377.865C279.224 378.111 278.642 378.234 278.018 378.234ZM278.018 376.362C278.516 376.362 278.963 376.23 279.359 375.966C279.755 375.702 280.067 375.354 280.295 374.922C280.529 374.484 280.646 374.01 280.646 373.5C280.646 372.978 280.526 372.498 280.286 372.06C280.052 371.622 279.737 371.274 279.341 371.016C278.945 370.752 278.504 370.62 278.018 370.62C277.526 370.62 277.079 370.752 276.677 371.016C276.281 371.28 275.966 371.631 275.732 372.069C275.504 372.507 275.39 372.984 275.39 373.5C275.39 374.034 275.51 374.517 275.75 374.949C275.99 375.381 276.308 375.726 276.704 375.984C277.106 376.236 277.544 376.362 278.018 376.362ZM292.272 372.357V378H290.4V372.816C290.4 372.414 290.301 372.048 290.103 371.718C289.911 371.388 289.65 371.127 289.32 370.935C288.996 370.737 288.63 370.638 288.222 370.638C287.826 370.638 287.463 370.737 287.133 370.935C286.803 371.127 286.539 371.388 286.341 371.718C286.143 372.048 286.044 372.414 286.044 372.816V378H284.172V369H286.044V369.954C286.356 369.582 286.74 369.288 287.196 369.072C287.652 368.856 288.144 368.748 288.672 368.748C289.338 368.748 289.944 368.91 290.49 369.234C291.036 369.558 291.468 369.993 291.786 370.539C292.11 371.085 292.272 371.691 292.272 372.357Z" fill="#222222"/>
</g>
</g>
<rect x="3" y="-739" width="422" height="1176" rx="27" stroke="#9B9B9B" stroke-width="6"/>
<defs>
<filter id="filter0_d_1738_37529" x="126.054" y="274.284" width="184.16" height="66.2158" filterUnits="userSpaceOnUse" color-interpolation-filters="sRGB">
<feFlood flood-opacity="0" result="BackgroundImageFix"/>
<feColorMatrix in="SourceAlpha" type="matrix" values="0 0 0 0 0 0 0 0 0 0 0 0 0 0 0 0 0 0 127 0" result="hardAlpha"/>
<feOffset dx="4" dy="8"/>
<feGaussianBlur stdDeviation="12"/>
<feComposite in2="hardAlpha" operator="out"/>
<feColorMatrix type="matrix" values="0 0 0 0 0.588235 0 0 0 0 0.0627451 0 0 0 0 1 0 0 0 0.25 0"/>
<feBlend mode="normal" in2="BackgroundImageFix" result="effect1_dropShadow_1738_37529"/>
<feBlend mode="normal" in="SourceGraphic" in2="effect1_dropShadow_1738_37529" result="shape"/>
</filter>
<filter id="filter1_d_1738_37529" x="115.731" y="348.284" width="204.542" height="61.9502" filterUnits="userSpaceOnUse" color-interpolation-filters="sRGB">
<feFlood flood-opacity="0" result="BackgroundImageFix"/>
<feColorMatrix in="SourceAlpha" type="matrix" values="0 0 0 0 0 0 0 0 0 0 0 0 0 0 0 0 0 0 127 0" result="hardAlpha"/>
<feOffset dx="4" dy="8"/>
<feGaussianBlur stdDeviation="12"/>
<feComposite in2="hardAlpha" operator="out"/>
<feColorMatrix type="matrix" values="0 0 0 0 0.588235 0 0 0 0 0.0627451 0 0 0 0 1 0 0 0 0.25 0"/>
<feBlend mode="normal" in2="BackgroundImageFix" result="effect1_dropShadow_1738_37529"/>
<feBlend mode="normal" in="SourceGraphic" in2="effect1_dropShadow_1738_37529" result="shape"/>
</filter>
<clipPath id="clip0_1738_37529">
<rect y="-742" width="428" height="1182" rx="30" fill="white"/>
</clipPath>
</defs>
</svg>
