<svg width="380" height="195" viewBox="0 0 380 195" fill="none" xmlns="http://www.w3.org/2000/svg">
<rect x="0.5" y="0.5" width="379" height="55" rx="27.5" fill="#FAFAFA"/>
<rect x="0.5" y="0.5" width="379" height="55" rx="27.5" stroke="#EEEEEE"/>
<path d="M23.5415 28.2282L36.0415 28.2282" stroke="#222222" stroke-width="1.5" stroke-linecap="round" stroke-linejoin="round"/>
<path d="M28.583 33.2488L23.5413 28.2288L28.583 23.208" stroke="#222222" stroke-width="1.5" stroke-linecap="round" stroke-linejoin="round"/>
<path d="M52.96 34V22.8H56.664C57.4373 22.8 58.1627 22.9467 58.84 23.24C59.5173 23.528 60.112 23.9307 60.624 24.448C61.136 24.96 61.536 25.5547 61.824 26.232C62.1173 26.904 62.264 27.6267 62.264 28.4C62.264 29.1733 62.1173 29.8987 61.824 30.576C61.536 31.248 61.136 31.8427 60.624 32.36C60.112 32.872 59.5173 33.2747 58.84 33.568C58.1627 33.856 57.4373 34 56.664 34H52.96ZM54.304 32.656H56.664C57.2507 32.656 57.8 32.5467 58.312 32.328C58.8293 32.104 59.2827 31.7973 59.672 31.408C60.0613 31.0187 60.3653 30.568 60.584 30.056C60.808 29.5387 60.92 28.9867 60.92 28.4C60.92 27.8133 60.808 27.264 60.584 26.752C60.3653 26.2347 60.0587 25.7813 59.664 25.392C59.2747 25.0027 58.824 24.6987 58.312 24.48C57.8 24.256 57.2507 24.144 56.664 24.144H54.304V32.656ZM67.2894 34.208C66.5534 34.208 65.8814 34.0187 65.2734 33.64C64.6707 33.2613 64.188 32.7547 63.8254 32.12C63.468 31.48 63.2894 30.7733 63.2894 30C63.2894 29.4133 63.3934 28.8667 63.6014 28.36C63.8094 27.848 64.0947 27.4 64.4574 27.016C64.8254 26.6267 65.252 26.3227 65.7374 26.104C66.2227 25.8853 66.74 25.776 67.2894 25.776C67.892 25.776 68.444 25.8987 68.9454 26.144C69.452 26.384 69.884 26.72 70.2414 27.152C70.604 27.584 70.8734 28.0853 71.0494 28.656C71.2307 29.2267 71.2974 29.8373 71.2494 30.488H64.7214C64.7854 30.9413 64.9347 31.3467 65.1694 31.704C65.404 32.056 65.7027 32.336 66.0654 32.544C66.4334 32.752 66.8414 32.8587 67.2894 32.864C67.7694 32.864 68.204 32.7413 68.5934 32.496C68.9827 32.2453 69.2974 31.904 69.5374 31.472L70.9054 31.792C70.5854 32.5013 70.1027 33.0827 69.4574 33.536C68.812 33.984 68.0894 34.208 67.2894 34.208ZM64.6814 29.432H69.8974C69.8547 28.984 69.7107 28.576 69.4654 28.208C69.22 27.8347 68.908 27.536 68.5294 27.312C68.1507 27.088 67.7374 26.976 67.2894 26.976C66.8414 26.976 66.4307 27.0853 66.0574 27.304C65.684 27.5227 65.3747 27.8187 65.1294 28.192C64.8894 28.56 64.74 28.9733 64.6814 29.432ZM75.2687 34.152C74.8367 34.136 74.4154 34.056 74.0047 33.912C73.5994 33.7627 73.2421 33.5627 72.9327 33.312C72.6287 33.056 72.4074 32.7627 72.2687 32.432L73.4207 31.936C73.5007 32.1173 73.6447 32.288 73.8527 32.448C74.0607 32.608 74.3007 32.736 74.5727 32.832C74.8447 32.928 75.1194 32.976 75.3967 32.976C75.6901 32.976 75.9647 32.9307 76.2207 32.84C76.4767 32.7493 76.6847 32.616 76.8447 32.44C77.0101 32.2587 77.0928 32.0427 77.0928 31.792C77.0928 31.5253 77.0021 31.3173 76.8207 31.168C76.6447 31.0133 76.4207 30.8933 76.1487 30.808C75.8821 30.7173 75.6101 30.632 75.3327 30.552C74.7834 30.4133 74.2927 30.248 73.8607 30.056C73.4287 29.8587 73.0874 29.6107 72.8367 29.312C72.5914 29.008 72.4687 28.6213 72.4687 28.152C72.4687 27.656 72.6047 27.2267 72.8767 26.864C73.1541 26.5013 73.5167 26.2213 73.9647 26.024C74.4127 25.8267 74.8927 25.728 75.4047 25.728C76.0501 25.728 76.6394 25.8667 77.1727 26.144C77.7061 26.4213 78.1034 26.7973 78.3647 27.272L77.2847 27.904C77.1941 27.712 77.0554 27.544 76.8687 27.4C76.6821 27.2507 76.4687 27.1333 76.2287 27.048C75.9887 26.9627 75.7434 26.9173 75.4927 26.912C75.1834 26.9013 74.8927 26.9413 74.6207 27.032C74.3541 27.1227 74.1381 27.2613 73.9727 27.448C73.8127 27.6293 73.7327 27.856 73.7327 28.128C73.7327 28.3947 73.8181 28.5973 73.9887 28.736C74.1647 28.8747 74.3914 28.9867 74.6687 29.072C74.9514 29.152 75.2581 29.2453 75.5887 29.352C76.0741 29.5067 76.5274 29.6853 76.9488 29.888C77.3701 30.0907 77.7087 30.344 77.9647 30.648C78.2261 30.952 78.3541 31.328 78.3488 31.776C78.3488 32.2667 78.2021 32.696 77.9088 33.064C77.6154 33.4267 77.2341 33.704 76.7648 33.896C76.3007 34.088 75.8021 34.1733 75.2687 34.152ZM79.81 26H81.154V34H79.81V26ZM80.498 24.696C80.2847 24.696 80.106 24.6267 79.962 24.488C79.818 24.3493 79.746 24.176 79.746 23.968C79.746 23.76 79.818 23.5867 79.962 23.448C80.106 23.3093 80.282 23.24 80.49 23.24C80.698 23.24 80.874 23.3093 81.018 23.448C81.162 23.5867 81.234 23.76 81.234 23.968C81.234 24.176 81.162 24.3493 81.018 24.488C80.8793 24.6267 80.706 24.696 80.498 24.696Z" fill="#222222"/>
<path d="M348.609 31.8279H343.358" stroke="#424242" stroke-width="1.5" stroke-linecap="round" stroke-linejoin="round"/>
<path d="M350.951 23.7507H356.201" stroke="#424242" stroke-width="1.5" stroke-linecap="round" stroke-linejoin="round"/>
<path fill-rule="evenodd" clip-rule="evenodd" d="M347.272 23.7052C347.272 22.6255 346.39 21.75 345.303 21.75C344.215 21.75 343.333 22.6255 343.333 23.7052C343.333 24.7849 344.215 25.6604 345.303 25.6604C346.39 25.6604 347.272 24.7849 347.272 23.7052Z" stroke="#424242" stroke-width="1.5" stroke-linecap="round" stroke-linejoin="round"/>
<path fill-rule="evenodd" clip-rule="evenodd" d="M356.667 31.7951C356.667 30.7153 355.785 29.8398 354.698 29.8398C353.61 29.8398 352.728 30.7153 352.728 31.7951C352.728 32.8748 353.61 33.7503 354.698 33.7503C355.785 33.7503 356.667 32.8748 356.667 31.7951Z" stroke="#424242" stroke-width="1.5" stroke-linecap="round" stroke-linejoin="round"/>
<rect x="1.5" y="69.5" width="377" height="124" rx="14.5" fill="#FAFAFA"/>
<rect x="1.5" y="69.5" width="377" height="124" rx="14.5" stroke="#9B9B9B" stroke-width="3"/>
<circle cx="25.8054" cy="94.8059" r="7.49047" stroke="#222222" stroke-width="1.5" stroke-linecap="round" stroke-linejoin="round"/>
<path opacity="0.4" d="M31.0151 100.404L33.9518 103.333" stroke="#222222" stroke-width="1.5" stroke-linecap="round" stroke-linejoin="round"/>
<path d="M53.152 101.208C52.3787 101.208 51.656 101.059 50.984 100.76C50.3173 100.456 49.7333 100.037 49.232 99.504C48.736 98.9653 48.3467 98.3467 48.064 97.648C47.7813 96.944 47.64 96.192 47.64 95.392C47.64 94.5653 47.7867 93.8 48.08 93.096C48.3787 92.392 48.784 91.7787 49.296 91.256C49.8133 90.7333 50.4027 90.328 51.064 90.04C51.7307 89.7467 52.4347 89.6 53.176 89.6C54.0187 89.6 54.8213 89.7973 55.584 90.192C56.3467 90.5867 57.0027 91.1573 57.552 91.904L56.352 92.552C55.9413 92.0293 55.4533 91.6293 54.888 91.352C54.328 91.0747 53.752 90.936 53.16 90.936C52.5947 90.936 52.0587 91.0507 51.552 91.28C51.0507 91.5093 50.6053 91.8293 50.216 92.24C49.832 92.6507 49.5307 93.1253 49.312 93.664C49.0933 94.2027 48.984 94.7867 48.984 95.416C48.984 96.0293 49.0933 96.6053 49.312 97.144C49.5307 97.6827 49.8293 98.1573 50.208 98.568C50.592 98.9733 51.0373 99.2907 51.544 99.52C52.0507 99.7493 52.592 99.864 53.168 99.864C53.6267 99.864 54.0613 99.7867 54.472 99.632C54.888 99.4773 55.2693 99.2587 55.616 98.976C55.968 98.6933 56.2667 98.36 56.512 97.976C56.7627 97.592 56.952 97.1707 57.08 96.712H54.32V95.512H58.648C58.6427 96.296 58.4933 97.032 58.2 97.72C57.912 98.408 57.5147 99.0133 57.008 99.536C56.5067 100.059 55.9253 100.469 55.264 100.768C54.608 101.061 53.904 101.208 53.152 101.208ZM60.3944 101V93H61.7384V94C62.021 93.6267 62.3784 93.3307 62.8104 93.112C63.2424 92.888 63.7117 92.776 64.2184 92.776C64.5277 92.776 64.8264 92.816 65.1144 92.896L64.5704 94.24C64.3517 94.1707 64.1384 94.136 63.9304 94.136C63.5304 94.136 63.1624 94.2347 62.8264 94.432C62.4957 94.624 62.2317 94.8853 62.0344 95.216C61.837 95.5467 61.7384 95.9147 61.7384 96.32V101H60.3944ZM72.3232 93H73.6672V101H72.3232L72.2673 99.648C72.0166 100.112 71.6699 100.488 71.2273 100.776C70.7899 101.064 70.2672 101.208 69.6592 101.208C69.0726 101.208 68.5232 101.099 68.0112 100.88C67.4992 100.656 67.0459 100.349 66.6512 99.96C66.2619 99.5653 65.9579 99.112 65.7392 98.6C65.5206 98.088 65.4112 97.536 65.4112 96.944C65.4112 96.3733 65.5179 95.8347 65.7312 95.328C65.9446 94.8213 66.2406 94.3787 66.6192 94C67.0032 93.616 67.4459 93.3173 67.9472 93.104C68.4486 92.8853 68.9872 92.776 69.5633 92.776C70.1926 92.776 70.7446 92.9253 71.2192 93.224C71.6939 93.5173 72.0779 93.8987 72.3713 94.368L72.3232 93ZM69.6352 99.904C70.1632 99.904 70.6192 99.776 71.0033 99.52C71.3926 99.2587 71.6912 98.9067 71.8993 98.464C72.1126 98.0213 72.2193 97.5333 72.2193 97C72.2193 96.456 72.1126 95.9653 71.8993 95.528C71.6859 95.0853 71.3846 94.736 70.9952 94.48C70.6112 94.2187 70.1579 94.088 69.6352 94.088C69.1072 94.088 68.6272 94.2187 68.1952 94.48C67.7632 94.7413 67.4192 95.0933 67.1632 95.536C66.9126 95.9733 66.7872 96.4613 66.7872 97C66.7872 97.5387 66.9179 98.0293 67.1792 98.472C67.4406 98.9093 67.7872 99.2587 68.2192 99.52C68.6512 99.776 69.1232 99.904 69.6352 99.904ZM76.8103 105H75.4663V93H76.8103V94.368C77.0823 93.8987 77.4449 93.52 77.8983 93.232C78.3516 92.9387 78.8903 92.792 79.5143 92.792C80.0956 92.792 80.6396 92.9013 81.1463 93.12C81.6583 93.3387 82.1063 93.6427 82.4903 94.032C82.8743 94.416 83.1756 94.8613 83.3943 95.368C83.6129 95.8747 83.7223 96.4187 83.7223 97C83.7223 97.5813 83.6129 98.128 83.3943 98.64C83.1756 99.152 82.8743 99.6027 82.4903 99.992C82.1063 100.376 81.6583 100.677 81.1463 100.896C80.6396 101.115 80.0956 101.224 79.5143 101.224C78.8903 101.224 78.3516 101.08 77.8983 100.792C77.4449 100.499 77.0823 100.117 76.8103 99.648V105ZM79.4983 94.096C78.9809 94.096 78.5276 94.2267 78.1383 94.488C77.7489 94.7493 77.4476 95.0987 77.2343 95.536C77.0263 95.9733 76.9223 96.4613 76.9223 97C76.9223 97.5333 77.0263 98.0213 77.2343 98.464C77.4476 98.9067 77.7463 99.2587 78.1303 99.52C78.5196 99.7813 78.9756 99.912 79.4983 99.912C80.0156 99.912 80.4903 99.784 80.9223 99.528C81.3543 99.2667 81.7009 98.9173 81.9623 98.48C82.2236 98.0373 82.3543 97.544 82.3543 97C82.3543 96.4667 82.2263 95.9813 81.9703 95.544C81.7143 95.1013 81.3703 94.7493 80.9383 94.488C80.5063 94.2267 80.0263 94.096 79.4983 94.096ZM92.2539 96.024V101H90.9099V96.32C90.9099 95.9147 90.8112 95.5467 90.6139 95.216C90.4165 94.8853 90.1525 94.624 89.8219 94.432C89.4912 94.2347 89.1232 94.136 88.7179 94.136C88.3179 94.136 87.9499 94.2347 87.6139 94.432C87.2832 94.624 87.0192 94.8853 86.8219 95.216C86.6245 95.5467 86.5259 95.9147 86.5259 96.32V101H85.1819V89H86.5259V94C86.8085 93.6267 87.1659 93.3307 87.5979 93.112C88.0299 92.888 88.4992 92.776 89.0059 92.776C89.6032 92.776 90.1472 92.9227 90.6379 93.216C91.1339 93.504 91.5259 93.8933 91.8139 94.384C92.1072 94.8747 92.2539 95.4213 92.2539 96.024ZM94.0538 93H95.3978V101H94.0538V93ZM94.7418 91.696C94.5284 91.696 94.3498 91.6267 94.2058 91.488C94.0618 91.3493 93.9898 91.176 93.9898 90.968C93.9898 90.76 94.0618 90.5867 94.2058 90.448C94.3498 90.3093 94.5258 90.24 94.7338 90.24C94.9418 90.24 95.1178 90.3093 95.2618 90.448C95.4058 90.5867 95.4778 90.76 95.4778 90.968C95.4778 91.176 95.4058 91.3493 95.2618 91.488C95.1231 91.6267 94.9498 91.696 94.7418 91.696ZM102.922 98.888L104.122 99.536C103.759 100.043 103.298 100.448 102.738 100.752C102.183 101.056 101.581 101.208 100.93 101.208C100.194 101.208 99.522 101.019 98.914 100.64C98.3113 100.261 97.8287 99.7547 97.466 99.12C97.1087 98.48 96.93 97.7733 96.93 97C96.93 96.4133 97.034 95.8667 97.242 95.36C97.45 94.848 97.7353 94.4 98.098 94.016C98.466 93.6267 98.8927 93.3227 99.378 93.104C99.8633 92.8853 100.381 92.776 100.93 92.776C101.581 92.776 102.183 92.928 102.738 93.232C103.298 93.536 103.759 93.944 104.122 94.456L102.922 95.104C102.666 94.7893 102.362 94.5467 102.01 94.376C101.658 94.2053 101.298 94.12 100.93 94.12C100.434 94.12 99.9833 94.2533 99.578 94.52C99.178 94.7813 98.8607 95.1307 98.626 95.568C98.3913 96.0053 98.274 96.4827 98.274 97C98.274 97.5173 98.3913 97.9947 98.626 98.432C98.866 98.864 99.186 99.2107 99.586 99.472C99.9913 99.7333 100.439 99.864 100.93 99.864C101.325 99.864 101.695 99.7733 102.042 99.592C102.389 99.4107 102.682 99.176 102.922 98.888ZM146.264 93H147.608V101.256C147.608 101.784 147.494 102.275 147.264 102.728C147.04 103.187 146.736 103.584 146.352 103.92C145.968 104.261 145.531 104.525 145.04 104.712C144.55 104.904 144.038 105 143.504 105C142.95 105 142.414 104.875 141.896 104.624C141.379 104.379 140.926 104.048 140.536 103.632C140.152 103.221 139.875 102.76 139.704 102.248L140.936 101.688C141.038 102.056 141.219 102.387 141.48 102.68C141.747 102.979 142.056 103.213 142.408 103.384C142.766 103.56 143.131 103.648 143.504 103.648C143.856 103.648 144.195 103.587 144.52 103.464C144.851 103.341 145.147 103.171 145.408 102.952C145.675 102.739 145.883 102.485 146.032 102.192C146.187 101.904 146.264 101.592 146.264 101.256V99.664C145.992 100.123 145.632 100.496 145.184 100.784C144.742 101.067 144.224 101.208 143.632 101.208C143.067 101.208 142.536 101.099 142.04 100.88C141.544 100.661 141.11 100.36 140.736 99.976C140.363 99.5867 140.07 99.1387 139.856 98.632C139.643 98.1253 139.536 97.5813 139.536 97C139.536 96.4187 139.643 95.8747 139.856 95.368C140.07 94.856 140.363 94.408 140.736 94.024C141.11 93.6347 141.544 93.3307 142.04 93.112C142.536 92.8933 143.067 92.784 143.632 92.784C144.224 92.784 144.742 92.9253 145.184 93.208C145.632 93.4907 145.992 93.864 146.264 94.328V93ZM143.64 99.904C144.158 99.904 144.606 99.7707 144.984 99.504C145.368 99.2373 145.664 98.8827 145.872 98.44C146.08 97.9973 146.184 97.5173 146.184 97C146.184 96.4667 146.078 95.9813 145.864 95.544C145.656 95.1013 145.36 94.7493 144.976 94.488C144.598 94.2213 144.152 94.088 143.64 94.088C143.139 94.088 142.68 94.2187 142.264 94.48C141.848 94.7413 141.518 95.0933 141.272 95.536C141.032 95.9733 140.912 96.4613 140.912 97C140.912 97.5387 141.035 98.0293 141.28 98.472C141.531 98.9093 141.862 99.2587 142.272 99.52C142.688 99.776 143.144 99.904 143.64 99.904ZM156.804 96.024V101H155.46V96.32C155.46 95.9147 155.361 95.5467 155.164 95.216C154.967 94.8853 154.703 94.624 154.372 94.432C154.041 94.2347 153.673 94.136 153.268 94.136C152.868 94.136 152.5 94.2347 152.164 94.432C151.833 94.624 151.569 94.8853 151.372 95.216C151.175 95.5467 151.076 95.9147 151.076 96.32V101H149.732V93H151.076V94C151.359 93.6267 151.716 93.3307 152.148 93.112C152.58 92.888 153.049 92.776 153.556 92.776C154.153 92.776 154.697 92.9227 155.188 93.216C155.684 93.504 156.076 93.8933 156.364 94.384C156.657 94.8747 156.804 95.4213 156.804 96.024ZM161.968 101.208C161.232 101.208 160.56 101.019 159.952 100.64C159.349 100.261 158.866 99.7547 158.504 99.12C158.146 98.48 157.968 97.7733 157.968 97C157.968 96.4133 158.072 95.8667 158.28 95.36C158.488 94.848 158.773 94.4 159.136 94.016C159.504 93.6267 159.93 93.3227 160.416 93.104C160.901 92.8853 161.418 92.776 161.968 92.776C162.57 92.776 163.122 92.8987 163.624 93.144C164.13 93.384 164.562 93.72 164.92 94.152C165.282 94.584 165.552 95.0853 165.728 95.656C165.909 96.2267 165.976 96.8373 165.928 97.488H159.4C159.464 97.9413 159.613 98.3467 159.848 98.704C160.082 99.056 160.381 99.336 160.744 99.544C161.112 99.752 161.52 99.8587 161.968 99.864C162.448 99.864 162.882 99.7413 163.272 99.496C163.661 99.2453 163.976 98.904 164.216 98.472L165.584 98.792C165.264 99.5013 164.781 100.083 164.136 100.536C163.49 100.984 162.768 101.208 161.968 101.208ZM159.36 96.432H164.576C164.533 95.984 164.389 95.576 164.144 95.208C163.898 94.8347 163.586 94.536 163.208 94.312C162.829 94.088 162.416 93.976 161.968 93.976C161.52 93.976 161.109 94.0853 160.736 94.304C160.362 94.5227 160.053 94.8187 159.808 95.192C159.568 95.56 159.418 95.9733 159.36 96.432ZM167.476 101V93H168.82V94C169.102 93.6267 169.46 93.3307 169.892 93.112C170.324 92.888 170.793 92.776 171.3 92.776C171.609 92.776 171.908 92.816 172.196 92.896L171.652 94.24C171.433 94.1707 171.22 94.136 171.012 94.136C170.612 94.136 170.244 94.2347 169.908 94.432C169.577 94.624 169.313 94.8853 169.116 95.216C168.918 95.5467 168.82 95.9147 168.82 96.32V101H167.476Z" fill="#9E9E9E"/>
<path d="M109.81 101V89.8H113.514C114.287 89.8 115.013 89.9467 115.69 90.24C116.367 90.528 116.962 90.9307 117.474 91.448C117.986 91.96 118.386 92.5547 118.674 93.232C118.967 93.904 119.114 94.6267 119.114 95.4C119.114 96.1733 118.967 96.8987 118.674 97.576C118.386 98.248 117.986 98.8427 117.474 99.36C116.962 99.872 116.367 100.275 115.69 100.568C115.013 100.856 114.287 101 113.514 101H109.81ZM111.154 99.656H113.514C114.101 99.656 114.65 99.5467 115.162 99.328C115.679 99.104 116.133 98.7973 116.522 98.408C116.911 98.0187 117.215 97.568 117.434 97.056C117.658 96.5387 117.77 95.9867 117.77 95.4C117.77 94.8133 117.658 94.264 117.434 93.752C117.215 93.2347 116.909 92.7813 116.514 92.392C116.125 92.0027 115.674 91.6987 115.162 91.48C114.65 91.256 114.101 91.144 113.514 91.144H111.154V99.656ZM124.139 101.208C123.403 101.208 122.731 101.019 122.123 100.64C121.521 100.261 121.038 99.7547 120.675 99.12C120.318 98.48 120.139 97.7733 120.139 97C120.139 96.4133 120.243 95.8667 120.451 95.36C120.659 94.848 120.945 94.4 121.307 94.016C121.675 93.6267 122.102 93.3227 122.587 93.104C123.073 92.8853 123.59 92.776 124.139 92.776C124.742 92.776 125.294 92.8987 125.795 93.144C126.302 93.384 126.734 93.72 127.091 94.152C127.454 94.584 127.723 95.0853 127.899 95.656C128.081 96.2267 128.147 96.8373 128.099 97.488H121.571C121.635 97.9413 121.785 98.3467 122.019 98.704C122.254 99.056 122.553 99.336 122.915 99.544C123.283 99.752 123.691 99.8587 124.139 99.864C124.619 99.864 125.054 99.7413 125.443 99.496C125.833 99.2453 126.147 98.904 126.387 98.472L127.755 98.792C127.435 99.5013 126.953 100.083 126.307 100.536C125.662 100.984 124.939 101.208 124.139 101.208ZM121.531 96.432H126.747C126.705 95.984 126.561 95.576 126.315 95.208C126.07 94.8347 125.758 94.536 125.379 94.312C125.001 94.088 124.587 93.976 124.139 93.976C123.691 93.976 123.281 94.0853 122.907 94.304C122.534 94.5227 122.225 94.8187 121.979 95.192C121.739 95.56 121.59 95.9733 121.531 96.432ZM132.119 101.152C131.687 101.136 131.265 101.056 130.855 100.912C130.449 100.763 130.092 100.563 129.783 100.312C129.479 100.056 129.257 99.7627 129.119 99.432L130.271 98.936C130.351 99.1173 130.495 99.288 130.703 99.448C130.911 99.608 131.151 99.736 131.423 99.832C131.695 99.928 131.969 99.976 132.247 99.976C132.54 99.976 132.815 99.9307 133.071 99.84C133.327 99.7493 133.535 99.616 133.695 99.44C133.86 99.2587 133.943 99.0427 133.943 98.792C133.943 98.5253 133.852 98.3173 133.671 98.168C133.495 98.0133 133.271 97.8933 132.999 97.808C132.732 97.7173 132.46 97.632 132.183 97.552C131.633 97.4133 131.143 97.248 130.711 97.056C130.279 96.8587 129.937 96.6107 129.687 96.312C129.441 96.008 129.319 95.6213 129.319 95.152C129.319 94.656 129.455 94.2267 129.727 93.864C130.004 93.5013 130.367 93.2213 130.815 93.024C131.263 92.8267 131.743 92.728 132.255 92.728C132.9 92.728 133.489 92.8667 134.023 93.144C134.556 93.4213 134.953 93.7973 135.215 94.272L134.135 94.904C134.044 94.712 133.905 94.544 133.719 94.4C133.532 94.2507 133.319 94.1333 133.079 94.048C132.839 93.9627 132.593 93.9173 132.343 93.912C132.033 93.9013 131.743 93.9413 131.471 94.032C131.204 94.1227 130.988 94.2613 130.823 94.448C130.663 94.6293 130.583 94.856 130.583 95.128C130.583 95.3947 130.668 95.5973 130.839 95.736C131.015 95.8747 131.241 95.9867 131.519 96.072C131.801 96.152 132.108 96.2453 132.439 96.352C132.924 96.5067 133.377 96.6853 133.799 96.888C134.22 97.0907 134.559 97.344 134.815 97.648C135.076 97.952 135.204 98.328 135.199 98.776C135.199 99.2667 135.052 99.696 134.759 100.064C134.465 100.427 134.084 100.704 133.615 100.896C133.151 101.088 132.652 101.173 132.119 101.152ZM136.66 93H138.004V101H136.66V93ZM137.348 91.696C137.135 91.696 136.956 91.6267 136.812 91.488C136.668 91.3493 136.596 91.176 136.596 90.968C136.596 90.76 136.668 90.5867 136.812 90.448C136.956 90.3093 137.132 90.24 137.34 90.24C137.548 90.24 137.724 90.3093 137.868 90.448C138.012 90.5867 138.084 90.76 138.084 90.968C138.084 91.176 138.012 91.3493 137.868 91.488C137.729 91.6267 137.556 91.696 137.348 91.696Z" fill="#222222"/>
<circle cx="25.8054" cy="128.806" r="7.49047" stroke="#222222" stroke-width="1.5" stroke-linecap="round" stroke-linejoin="round"/>
<path opacity="0.4" d="M31.0151 134.404L33.9518 137.333" stroke="#222222" stroke-width="1.5" stroke-linecap="round" stroke-linejoin="round"/>
<path d="M47.96 135V123.8H51.824C52.3787 123.8 52.8827 123.915 53.336 124.144C53.7947 124.368 54.1573 124.696 54.424 125.128C54.6907 125.56 54.824 126.077 54.824 126.68C54.824 127.005 54.768 127.32 54.656 127.624C54.5493 127.923 54.4 128.181 54.208 128.4C54.0213 128.613 53.808 128.757 53.568 128.832C53.904 128.917 54.1893 129.069 54.424 129.288C54.6587 129.501 54.848 129.752 54.992 130.04C55.1413 130.328 55.248 130.629 55.312 130.944C55.376 131.259 55.408 131.563 55.408 131.856C55.408 132.475 55.2667 133.021 54.984 133.496C54.7067 133.965 54.3333 134.333 53.864 134.6C53.3947 134.867 52.8773 135 52.312 135H47.96ZM49.304 133.816H52.192C52.56 133.816 52.8933 133.723 53.192 133.536C53.496 133.344 53.7387 133.083 53.92 132.752C54.1013 132.421 54.192 132.048 54.192 131.632C54.192 131.264 54.1013 130.917 53.92 130.592C53.7387 130.261 53.496 129.995 53.192 129.792C52.8933 129.589 52.56 129.488 52.192 129.488H49.304V133.816ZM49.304 128.328H51.696C52.1867 128.328 52.6053 128.184 52.952 127.896C53.304 127.603 53.48 127.195 53.48 126.672C53.48 126.107 53.304 125.685 52.952 125.408C52.6053 125.125 52.1867 124.984 51.696 124.984H49.304V128.328ZM57.2069 135V127H58.5509V128C58.8335 127.627 59.1909 127.331 59.6229 127.112C60.0549 126.888 60.5242 126.776 61.0309 126.776C61.3402 126.776 61.6389 126.816 61.9269 126.896L61.3829 128.24C61.1642 128.171 60.9509 128.136 60.7429 128.136C60.3429 128.136 59.9749 128.235 59.6389 128.432C59.3082 128.624 59.0442 128.885 58.8469 129.216C58.6495 129.547 58.5509 129.915 58.5509 130.32V135H57.2069ZM69.1357 127H70.4797V135H69.1357L69.0798 133.648C68.8291 134.112 68.4824 134.488 68.0398 134.776C67.6024 135.064 67.0797 135.208 66.4717 135.208C65.8851 135.208 65.3357 135.099 64.8237 134.88C64.3117 134.656 63.8584 134.349 63.4637 133.96C63.0744 133.565 62.7704 133.112 62.5517 132.6C62.3331 132.088 62.2237 131.536 62.2237 130.944C62.2237 130.373 62.3304 129.835 62.5437 129.328C62.7571 128.821 63.0531 128.379 63.4317 128C63.8157 127.616 64.2584 127.317 64.7597 127.104C65.2611 126.885 65.7997 126.776 66.3758 126.776C67.0051 126.776 67.5571 126.925 68.0317 127.224C68.5064 127.517 68.8904 127.899 69.1838 128.368L69.1357 127ZM66.4477 133.904C66.9757 133.904 67.4317 133.776 67.8158 133.52C68.2051 133.259 68.5037 132.907 68.7118 132.464C68.9251 132.021 69.0318 131.533 69.0318 131C69.0318 130.456 68.9251 129.965 68.7118 129.528C68.4984 129.085 68.1971 128.736 67.8077 128.48C67.4237 128.219 66.9704 128.088 66.4477 128.088C65.9197 128.088 65.4397 128.219 65.0077 128.48C64.5757 128.741 64.2317 129.093 63.9757 129.536C63.7251 129.973 63.5997 130.461 63.5997 131C63.5997 131.539 63.7304 132.029 63.9917 132.472C64.2531 132.909 64.5997 133.259 65.0317 133.52C65.4637 133.776 65.9357 133.904 66.4477 133.904ZM79.3508 130.024V135H78.0068V130.32C78.0068 129.915 77.9081 129.547 77.7108 129.216C77.5134 128.885 77.2494 128.624 76.9188 128.432C76.5881 128.235 76.2201 128.136 75.8148 128.136C75.4148 128.136 75.0468 128.235 74.7108 128.432C74.3801 128.624 74.1161 128.885 73.9188 129.216C73.7214 129.547 73.6228 129.915 73.6228 130.32V135H72.2788V127H73.6228V128C73.9054 127.627 74.2628 127.331 74.6948 127.112C75.1268 126.888 75.5961 126.776 76.1028 126.776C76.7001 126.776 77.2441 126.923 77.7348 127.216C78.2308 127.504 78.6228 127.893 78.9108 128.384C79.2041 128.875 79.3508 129.421 79.3508 130.024ZM87.4344 123H88.7784V135H87.4344V133.64C87.1624 134.109 86.797 134.488 86.3384 134.776C85.8797 135.064 85.341 135.208 84.7224 135.208C84.141 135.208 83.597 135.099 83.0904 134.88C82.5837 134.661 82.1357 134.36 81.7464 133.976C81.3624 133.587 81.061 133.139 80.8424 132.632C80.6237 132.125 80.5144 131.581 80.5144 131C80.5144 130.419 80.6237 129.875 80.8424 129.368C81.061 128.856 81.3624 128.408 81.7464 128.024C82.1357 127.635 82.5837 127.331 83.0904 127.112C83.597 126.893 84.141 126.784 84.7224 126.784C85.341 126.784 85.8797 126.928 86.3384 127.216C86.797 127.504 87.1624 127.883 87.4344 128.352V123ZM84.7384 133.904C85.2664 133.904 85.7224 133.776 86.1064 133.52C86.4957 133.259 86.7944 132.907 87.0024 132.464C87.2157 132.021 87.3224 131.533 87.3224 131C87.3224 130.456 87.2157 129.965 87.0024 129.528C86.789 129.085 86.4877 128.736 86.0984 128.48C85.7144 128.219 85.261 128.088 84.7384 128.088C84.2104 128.088 83.7304 128.219 83.2984 128.48C82.8717 128.741 82.5304 129.093 82.2744 129.536C82.0184 129.973 81.8904 130.461 81.8904 131C81.8904 131.539 82.021 132.029 82.2824 132.472C82.5437 132.909 82.8904 133.259 83.3224 133.52C83.7544 133.776 84.2264 133.904 84.7384 133.904ZM131.396 127H132.74V135.256C132.74 135.784 132.625 136.275 132.396 136.728C132.172 137.187 131.868 137.584 131.484 137.92C131.1 138.261 130.662 138.525 130.172 138.712C129.681 138.904 129.169 139 128.636 139C128.081 139 127.545 138.875 127.028 138.624C126.51 138.379 126.057 138.048 125.668 137.632C125.284 137.221 125.006 136.76 124.836 136.248L126.068 135.688C126.169 136.056 126.35 136.387 126.612 136.68C126.878 136.979 127.188 137.213 127.54 137.384C127.897 137.56 128.262 137.648 128.636 137.648C128.988 137.648 129.326 137.587 129.652 137.464C129.982 137.341 130.278 137.171 130.54 136.952C130.806 136.739 131.014 136.485 131.164 136.192C131.318 135.904 131.396 135.592 131.396 135.256V133.664C131.124 134.123 130.764 134.496 130.316 134.784C129.873 135.067 129.356 135.208 128.764 135.208C128.198 135.208 127.668 135.099 127.172 134.88C126.676 134.661 126.241 134.36 125.868 133.976C125.494 133.587 125.201 133.139 124.988 132.632C124.774 132.125 124.668 131.581 124.668 131C124.668 130.419 124.774 129.875 124.988 129.368C125.201 128.856 125.494 128.408 125.868 128.024C126.241 127.635 126.676 127.331 127.172 127.112C127.668 126.893 128.198 126.784 128.764 126.784C129.356 126.784 129.873 126.925 130.316 127.208C130.764 127.491 131.124 127.864 131.396 128.328V127ZM128.772 133.904C129.289 133.904 129.737 133.771 130.116 133.504C130.5 133.237 130.796 132.883 131.004 132.44C131.212 131.997 131.316 131.517 131.316 131C131.316 130.467 131.209 129.981 130.996 129.544C130.788 129.101 130.492 128.749 130.108 128.488C129.729 128.221 129.284 128.088 128.772 128.088C128.27 128.088 127.812 128.219 127.396 128.48C126.98 128.741 126.649 129.093 126.404 129.536C126.164 129.973 126.044 130.461 126.044 131C126.044 131.539 126.166 132.029 126.412 132.472C126.662 132.909 126.993 133.259 127.404 133.52C127.82 133.776 128.276 133.904 128.772 133.904ZM141.935 130.024V135H140.591V130.32C140.591 129.915 140.492 129.547 140.295 129.216C140.098 128.885 139.834 128.624 139.503 128.432C139.172 128.235 138.804 128.136 138.399 128.136C137.999 128.136 137.631 128.235 137.295 128.432C136.964 128.624 136.7 128.885 136.503 129.216C136.306 129.547 136.207 129.915 136.207 130.32V135H134.863V127H136.207V128C136.49 127.627 136.847 127.331 137.279 127.112C137.711 126.888 138.18 126.776 138.687 126.776C139.284 126.776 139.828 126.923 140.319 127.216C140.815 127.504 141.207 127.893 141.495 128.384C141.788 128.875 141.935 129.421 141.935 130.024ZM147.099 135.208C146.363 135.208 145.691 135.019 145.083 134.64C144.48 134.261 143.997 133.755 143.635 133.12C143.277 132.48 143.099 131.773 143.099 131C143.099 130.413 143.203 129.867 143.411 129.36C143.619 128.848 143.904 128.4 144.267 128.016C144.635 127.627 145.061 127.323 145.547 127.104C146.032 126.885 146.549 126.776 147.099 126.776C147.701 126.776 148.253 126.899 148.755 127.144C149.261 127.384 149.693 127.72 150.051 128.152C150.413 128.584 150.683 129.085 150.859 129.656C151.04 130.227 151.107 130.837 151.059 131.488H144.531C144.595 131.941 144.744 132.347 144.979 132.704C145.213 133.056 145.512 133.336 145.875 133.544C146.243 133.752 146.651 133.859 147.099 133.864C147.579 133.864 148.013 133.741 148.403 133.496C148.792 133.245 149.107 132.904 149.347 132.472L150.715 132.792C150.395 133.501 149.912 134.083 149.267 134.536C148.621 134.984 147.899 135.208 147.099 135.208ZM144.491 130.432H149.707C149.664 129.984 149.52 129.576 149.275 129.208C149.029 128.835 148.717 128.536 148.339 128.312C147.96 128.088 147.547 127.976 147.099 127.976C146.651 127.976 146.24 128.085 145.867 128.304C145.493 128.523 145.184 128.819 144.939 129.192C144.699 129.56 144.549 129.973 144.491 130.432ZM152.607 135V127H153.951V128C154.234 127.627 154.591 127.331 155.023 127.112C155.455 126.888 155.924 126.776 156.431 126.776C156.74 126.776 157.039 126.816 157.327 126.896L156.783 128.24C156.564 128.171 156.351 128.136 156.143 128.136C155.743 128.136 155.375 128.235 155.039 128.432C154.708 128.624 154.444 128.885 154.247 129.216C154.05 129.547 153.951 129.915 153.951 130.32V135H152.607Z" fill="#9E9E9E"/>
<path d="M94.9413 135V123.8H98.6453C99.4186 123.8 100.144 123.947 100.821 124.24C101.499 124.528 102.093 124.931 102.605 125.448C103.117 125.96 103.517 126.555 103.805 127.232C104.099 127.904 104.245 128.627 104.245 129.4C104.245 130.173 104.099 130.899 103.805 131.576C103.517 132.248 103.117 132.843 102.605 133.36C102.093 133.872 101.499 134.275 100.821 134.568C100.144 134.856 99.4186 135 98.6453 135H94.9413ZM96.2853 133.656H98.6453C99.2319 133.656 99.7813 133.547 100.293 133.328C100.811 133.104 101.264 132.797 101.653 132.408C102.043 132.019 102.347 131.568 102.565 131.056C102.789 130.539 102.901 129.987 102.901 129.4C102.901 128.813 102.789 128.264 102.565 127.752C102.347 127.235 102.04 126.781 101.645 126.392C101.256 126.003 100.805 125.699 100.293 125.48C99.7813 125.256 99.2319 125.144 98.6453 125.144H96.2853V133.656ZM109.271 135.208C108.535 135.208 107.863 135.019 107.255 134.64C106.652 134.261 106.169 133.755 105.807 133.12C105.449 132.48 105.271 131.773 105.271 131C105.271 130.413 105.375 129.867 105.583 129.36C105.791 128.848 106.076 128.4 106.439 128.016C106.807 127.627 107.233 127.323 107.719 127.104C108.204 126.885 108.721 126.776 109.271 126.776C109.873 126.776 110.425 126.899 110.927 127.144C111.433 127.384 111.865 127.72 112.223 128.152C112.585 128.584 112.855 129.085 113.031 129.656C113.212 130.227 113.279 130.837 113.231 131.488H106.703C106.767 131.941 106.916 132.347 107.151 132.704C107.385 133.056 107.684 133.336 108.047 133.544C108.415 133.752 108.823 133.859 109.271 133.864C109.751 133.864 110.185 133.741 110.575 133.496C110.964 133.245 111.279 132.904 111.519 132.472L112.887 132.792C112.567 133.501 112.084 134.083 111.439 134.536C110.793 134.984 110.071 135.208 109.271 135.208ZM106.663 130.432H111.879C111.836 129.984 111.692 129.576 111.447 129.208C111.201 128.835 110.889 128.536 110.511 128.312C110.132 128.088 109.719 127.976 109.271 127.976C108.823 127.976 108.412 128.085 108.039 128.304C107.665 128.523 107.356 128.819 107.111 129.192C106.871 129.56 106.721 129.973 106.663 130.432ZM117.25 135.152C116.818 135.136 116.397 135.056 115.986 134.912C115.581 134.763 115.223 134.563 114.914 134.312C114.61 134.056 114.389 133.763 114.25 133.432L115.402 132.936C115.482 133.117 115.626 133.288 115.834 133.448C116.042 133.608 116.282 133.736 116.554 133.832C116.826 133.928 117.101 133.976 117.378 133.976C117.671 133.976 117.946 133.931 118.202 133.84C118.458 133.749 118.666 133.616 118.826 133.44C118.991 133.259 119.074 133.043 119.074 132.792C119.074 132.525 118.983 132.317 118.802 132.168C118.626 132.013 118.402 131.893 118.13 131.808C117.863 131.717 117.591 131.632 117.314 131.552C116.765 131.413 116.274 131.248 115.842 131.056C115.41 130.859 115.069 130.611 114.818 130.312C114.573 130.008 114.45 129.621 114.45 129.152C114.45 128.656 114.586 128.227 114.858 127.864C115.135 127.501 115.498 127.221 115.946 127.024C116.394 126.827 116.874 126.728 117.386 126.728C118.031 126.728 118.621 126.867 119.154 127.144C119.687 127.421 120.085 127.797 120.346 128.272L119.266 128.904C119.175 128.712 119.037 128.544 118.85 128.4C118.663 128.251 118.45 128.133 118.21 128.048C117.97 127.963 117.725 127.917 117.474 127.912C117.165 127.901 116.874 127.941 116.602 128.032C116.335 128.123 116.119 128.261 115.954 128.448C115.794 128.629 115.714 128.856 115.714 129.128C115.714 129.395 115.799 129.597 115.97 129.736C116.146 129.875 116.373 129.987 116.65 130.072C116.933 130.152 117.239 130.245 117.57 130.352C118.055 130.507 118.509 130.685 118.93 130.888C119.351 131.091 119.69 131.344 119.946 131.648C120.207 131.952 120.335 132.328 120.33 132.776C120.33 133.267 120.183 133.696 119.89 134.064C119.597 134.427 119.215 134.704 118.746 134.896C118.282 135.088 117.783 135.173 117.25 135.152ZM121.791 127H123.135V135H121.791V127ZM122.479 125.696C122.266 125.696 122.087 125.627 121.943 125.488C121.799 125.349 121.727 125.176 121.727 124.968C121.727 124.76 121.799 124.587 121.943 124.448C122.087 124.309 122.263 124.24 122.471 124.24C122.679 124.24 122.855 124.309 122.999 124.448C123.143 124.587 123.215 124.76 123.215 124.968C123.215 125.176 123.143 125.349 122.999 125.488C122.861 125.627 122.687 125.696 122.479 125.696Z" fill="#222222"/>
<circle cx="25.8054" cy="162.806" r="7.49047" stroke="#222222" stroke-width="1.5" stroke-linecap="round" stroke-linejoin="round"/>
<path opacity="0.4" d="M31.0151 168.404L33.9518 171.333" stroke="#222222" stroke-width="1.5" stroke-linecap="round" stroke-linejoin="round"/>
<path d="M47.96 169V157.8H51.656C52.2587 157.8 52.8 157.947 53.28 158.24C53.7653 158.533 54.1493 158.931 54.432 159.432C54.72 159.928 54.864 160.483 54.864 161.096C54.864 161.72 54.7173 162.283 54.424 162.784C54.136 163.28 53.7467 163.675 53.256 163.968C52.7707 164.256 52.2373 164.4 51.656 164.4H49.304V169H47.96ZM49.304 163.056H51.536C51.8987 163.056 52.2293 162.968 52.528 162.792C52.832 162.611 53.072 162.368 53.248 162.064C53.4293 161.755 53.52 161.408 53.52 161.024C53.52 160.635 53.4293 160.288 53.248 159.984C53.072 159.675 52.832 159.432 52.528 159.256C52.2293 159.075 51.8987 158.984 51.536 158.984H49.304V163.056ZM56.4412 169V161H57.7852V162C58.0679 161.627 58.4252 161.331 58.8572 161.112C59.2892 160.888 59.7586 160.776 60.2653 160.776C60.5746 160.776 60.8733 160.816 61.1613 160.896L60.6172 162.24C60.3986 162.171 60.1852 162.136 59.9773 162.136C59.5773 162.136 59.2092 162.235 58.8733 162.432C58.5426 162.624 58.2786 162.885 58.0812 163.216C57.8839 163.547 57.7852 163.915 57.7852 164.32V169H56.4412ZM65.4581 169.208C64.7221 169.208 64.0501 169.019 63.4421 168.64C62.8395 168.261 62.3568 167.755 61.9941 167.12C61.6368 166.48 61.4581 165.773 61.4581 165C61.4581 164.413 61.5621 163.867 61.7701 163.36C61.9781 162.848 62.2635 162.4 62.6261 162.016C62.9941 161.627 63.4208 161.323 63.9061 161.104C64.3915 160.885 64.9088 160.776 65.4581 160.776C66.1941 160.776 66.8635 160.965 67.4661 161.344C68.0741 161.723 68.5568 162.232 68.9141 162.872C69.2768 163.512 69.4581 164.221 69.4581 165C69.4581 165.581 69.3541 166.125 69.1461 166.632C68.9381 167.139 68.6501 167.587 68.2821 167.976C67.9195 168.36 67.4955 168.661 67.0101 168.88C66.5301 169.099 66.0128 169.208 65.4581 169.208ZM65.4581 167.864C65.9595 167.864 66.4101 167.733 66.8101 167.472C67.2155 167.205 67.5328 166.856 67.7621 166.424C67.9968 165.987 68.1141 165.512 68.1141 165C68.1141 164.477 67.9941 163.997 67.7541 163.56C67.5195 163.123 67.2021 162.773 66.8021 162.512C66.4021 162.251 65.9541 162.12 65.4581 162.12C64.9568 162.12 64.5061 162.253 64.1061 162.52C63.7061 162.781 63.3888 163.131 63.1541 163.568C62.9195 164.005 62.8021 164.483 62.8021 165C62.8021 165.533 62.9221 166.019 63.1621 166.456C63.4021 166.888 63.7248 167.232 64.1301 167.488C64.5355 167.739 64.9781 167.864 65.4581 167.864ZM77.375 157H78.719V169H77.375V167.64C77.103 168.109 76.7377 168.488 76.279 168.776C75.8203 169.064 75.2817 169.208 74.663 169.208C74.0817 169.208 73.5377 169.099 73.031 168.88C72.5243 168.661 72.0763 168.36 71.687 167.976C71.303 167.587 71.0017 167.139 70.783 166.632C70.5643 166.125 70.455 165.581 70.455 165C70.455 164.419 70.5643 163.875 70.783 163.368C71.0017 162.856 71.303 162.408 71.687 162.024C72.0763 161.635 72.5243 161.331 73.031 161.112C73.5377 160.893 74.0817 160.784 74.663 160.784C75.2817 160.784 75.8203 160.928 76.279 161.216C76.7377 161.504 77.103 161.883 77.375 162.352V157ZM74.679 167.904C75.207 167.904 75.663 167.776 76.047 167.52C76.4363 167.259 76.735 166.907 76.943 166.464C77.1563 166.021 77.263 165.533 77.263 165C77.263 164.456 77.1563 163.965 76.943 163.528C76.7297 163.085 76.4283 162.736 76.039 162.48C75.655 162.219 75.2017 162.088 74.679 162.088C74.151 162.088 73.671 162.219 73.239 162.48C72.8123 162.741 72.471 163.093 72.215 163.536C71.959 163.973 71.831 164.461 71.831 165C71.831 165.539 71.9617 166.029 72.223 166.472C72.4843 166.909 72.831 167.259 73.263 167.52C73.695 167.776 74.167 167.904 74.679 167.904ZM80.5181 165.96V161H81.8621V165.664C81.8621 166.069 81.9608 166.437 82.1581 166.768C82.3555 167.099 82.6195 167.363 82.9501 167.56C83.2861 167.752 83.6541 167.848 84.0541 167.848C84.4595 167.848 84.8248 167.752 85.1501 167.56C85.4808 167.363 85.7448 167.099 85.9421 166.768C86.1395 166.437 86.2381 166.069 86.2381 165.664V161H87.5821L87.5901 169H86.2461L86.2381 167.984C85.9555 168.357 85.5981 168.656 85.1661 168.88C84.7341 169.099 84.2675 169.208 83.7661 169.208C83.1688 169.208 82.6221 169.064 82.1261 168.776C81.6355 168.483 81.2435 168.091 80.9501 167.6C80.6621 167.109 80.5181 166.563 80.5181 165.96ZM94.8314 166.888L96.0314 167.536C95.6687 168.043 95.2074 168.448 94.6474 168.752C94.0927 169.056 93.49 169.208 92.8394 169.208C92.1034 169.208 91.4314 169.019 90.8234 168.64C90.2207 168.261 89.738 167.755 89.3754 167.12C89.018 166.48 88.8394 165.773 88.8394 165C88.8394 164.413 88.9434 163.867 89.1514 163.36C89.3594 162.848 89.6447 162.4 90.0074 162.016C90.3754 161.627 90.802 161.323 91.2874 161.104C91.7727 160.885 92.29 160.776 92.8394 160.776C93.49 160.776 94.0927 160.928 94.6474 161.232C95.2074 161.536 95.6687 161.944 96.0314 162.456L94.8314 163.104C94.5754 162.789 94.2714 162.547 93.9194 162.376C93.5674 162.205 93.2074 162.12 92.8394 162.12C92.3434 162.12 91.8927 162.253 91.4874 162.52C91.0874 162.781 90.77 163.131 90.5354 163.568C90.3007 164.005 90.1834 164.483 90.1834 165C90.1834 165.517 90.3007 165.995 90.5354 166.432C90.7754 166.864 91.0954 167.211 91.4954 167.472C91.9007 167.733 92.3487 167.864 92.8394 167.864C93.234 167.864 93.6047 167.773 93.9514 167.592C94.298 167.411 94.5914 167.176 94.8314 166.888ZM101.82 162.344H100.004L99.9956 169H98.6516L98.6596 162.344H97.2836V161H98.6596L98.6516 158.488H99.9956L100.004 161H101.82V162.344ZM143.952 161H145.296V169.256C145.296 169.784 145.181 170.275 144.952 170.728C144.728 171.187 144.424 171.584 144.04 171.92C143.656 172.261 143.218 172.525 142.728 172.712C142.237 172.904 141.725 173 141.192 173C140.637 173 140.101 172.875 139.584 172.624C139.066 172.379 138.613 172.048 138.224 171.632C137.84 171.221 137.562 170.76 137.392 170.248L138.624 169.688C138.725 170.056 138.906 170.387 139.168 170.68C139.434 170.979 139.744 171.213 140.096 171.384C140.453 171.56 140.818 171.648 141.192 171.648C141.544 171.648 141.882 171.587 142.208 171.464C142.538 171.341 142.834 171.171 143.096 170.952C143.362 170.739 143.57 170.485 143.72 170.192C143.874 169.904 143.952 169.592 143.952 169.256V167.664C143.68 168.123 143.32 168.496 142.872 168.784C142.429 169.067 141.912 169.208 141.32 169.208C140.754 169.208 140.224 169.099 139.728 168.88C139.232 168.661 138.797 168.36 138.424 167.976C138.05 167.587 137.757 167.139 137.544 166.632C137.33 166.125 137.224 165.581 137.224 165C137.224 164.419 137.33 163.875 137.544 163.368C137.757 162.856 138.05 162.408 138.424 162.024C138.797 161.635 139.232 161.331 139.728 161.112C140.224 160.893 140.754 160.784 141.32 160.784C141.912 160.784 142.429 160.925 142.872 161.208C143.32 161.491 143.68 161.864 143.952 162.328V161ZM141.328 167.904C141.845 167.904 142.293 167.771 142.672 167.504C143.056 167.237 143.352 166.883 143.56 166.44C143.768 165.997 143.872 165.517 143.872 165C143.872 164.467 143.765 163.981 143.552 163.544C143.344 163.101 143.048 162.749 142.664 162.488C142.285 162.221 141.84 162.088 141.328 162.088C140.826 162.088 140.368 162.219 139.952 162.48C139.536 162.741 139.205 163.093 138.96 163.536C138.72 163.973 138.6 164.461 138.6 165C138.6 165.539 138.722 166.029 138.968 166.472C139.218 166.909 139.549 167.259 139.96 167.52C140.376 167.776 140.832 167.904 141.328 167.904ZM154.491 164.024V169H153.147V164.32C153.147 163.915 153.049 163.547 152.851 163.216C152.654 162.885 152.39 162.624 152.059 162.432C151.729 162.235 151.361 162.136 150.955 162.136C150.555 162.136 150.187 162.235 149.851 162.432C149.521 162.624 149.257 162.885 149.059 163.216C148.862 163.547 148.763 163.915 148.763 164.32V169H147.419V161H148.763V162C149.046 161.627 149.403 161.331 149.835 161.112C150.267 160.888 150.737 160.776 151.243 160.776C151.841 160.776 152.385 160.923 152.875 161.216C153.371 161.504 153.763 161.893 154.051 162.384C154.345 162.875 154.491 163.421 154.491 164.024ZM159.655 169.208C158.919 169.208 158.247 169.019 157.639 168.64C157.036 168.261 156.554 167.755 156.191 167.12C155.834 166.48 155.655 165.773 155.655 165C155.655 164.413 155.759 163.867 155.967 163.36C156.175 162.848 156.46 162.4 156.823 162.016C157.191 161.627 157.618 161.323 158.103 161.104C158.588 160.885 159.106 160.776 159.655 160.776C160.258 160.776 160.81 160.899 161.311 161.144C161.818 161.384 162.25 161.72 162.607 162.152C162.97 162.584 163.239 163.085 163.415 163.656C163.596 164.227 163.663 164.837 163.615 165.488H157.087C157.151 165.941 157.3 166.347 157.535 166.704C157.77 167.056 158.068 167.336 158.431 167.544C158.799 167.752 159.207 167.859 159.655 167.864C160.135 167.864 160.57 167.741 160.959 167.496C161.348 167.245 161.663 166.904 161.903 166.472L163.271 166.792C162.951 167.501 162.468 168.083 161.823 168.536C161.178 168.984 160.455 169.208 159.655 169.208ZM157.047 164.432H162.263C162.22 163.984 162.076 163.576 161.831 163.208C161.586 162.835 161.274 162.536 160.895 162.312C160.516 162.088 160.103 161.976 159.655 161.976C159.207 161.976 158.796 162.085 158.423 162.304C158.05 162.523 157.74 162.819 157.495 163.192C157.255 163.56 157.106 163.973 157.047 164.432ZM165.163 169V161H166.507V162C166.79 161.627 167.147 161.331 167.579 161.112C168.011 160.888 168.48 160.776 168.987 160.776C169.296 160.776 169.595 160.816 169.883 160.896L169.339 162.24C169.12 162.171 168.907 162.136 168.699 162.136C168.299 162.136 167.931 162.235 167.595 162.432C167.264 162.624 167 162.885 166.803 163.216C166.606 163.547 166.507 163.915 166.507 164.32V169H165.163Z" fill="#9E9E9E"/>
<path d="M107.497 169V157.8H111.201C111.975 157.8 112.7 157.947 113.377 158.24C114.055 158.528 114.649 158.931 115.161 159.448C115.673 159.96 116.073 160.555 116.361 161.232C116.655 161.904 116.801 162.627 116.801 163.4C116.801 164.173 116.655 164.899 116.361 165.576C116.073 166.248 115.673 166.843 115.161 167.36C114.649 167.872 114.055 168.275 113.377 168.568C112.7 168.856 111.975 169 111.201 169H107.497ZM108.841 167.656H111.201C111.788 167.656 112.337 167.547 112.849 167.328C113.367 167.104 113.82 166.797 114.209 166.408C114.599 166.019 114.903 165.568 115.121 165.056C115.345 164.539 115.457 163.987 115.457 163.4C115.457 162.813 115.345 162.264 115.121 161.752C114.903 161.235 114.596 160.781 114.201 160.392C113.812 160.003 113.361 159.699 112.849 159.48C112.337 159.256 111.788 159.144 111.201 159.144H108.841V167.656ZM121.827 169.208C121.091 169.208 120.419 169.019 119.811 168.64C119.208 168.261 118.726 167.755 118.363 167.12C118.006 166.48 117.827 165.773 117.827 165C117.827 164.413 117.931 163.867 118.139 163.36C118.347 162.848 118.632 162.4 118.995 162.016C119.363 161.627 119.79 161.323 120.275 161.104C120.76 160.885 121.278 160.776 121.827 160.776C122.43 160.776 122.982 160.899 123.483 161.144C123.99 161.384 124.422 161.72 124.779 162.152C125.142 162.584 125.411 163.085 125.587 163.656C125.768 164.227 125.835 164.837 125.787 165.488H119.259C119.323 165.941 119.472 166.347 119.707 166.704C119.942 167.056 120.24 167.336 120.603 167.544C120.971 167.752 121.379 167.859 121.827 167.864C122.307 167.864 122.742 167.741 123.131 167.496C123.52 167.245 123.835 166.904 124.075 166.472L125.443 166.792C125.123 167.501 124.64 168.083 123.995 168.536C123.35 168.984 122.627 169.208 121.827 169.208ZM119.219 164.432H124.435C124.392 163.984 124.248 163.576 124.003 163.208C123.758 162.835 123.446 162.536 123.067 162.312C122.688 162.088 122.275 161.976 121.827 161.976C121.379 161.976 120.968 162.085 120.595 162.304C120.222 162.523 119.912 162.819 119.667 163.192C119.427 163.56 119.278 163.973 119.219 164.432ZM129.806 169.152C129.374 169.136 128.953 169.056 128.542 168.912C128.137 168.763 127.78 168.563 127.47 168.312C127.166 168.056 126.945 167.763 126.806 167.432L127.958 166.936C128.038 167.117 128.182 167.288 128.39 167.448C128.598 167.608 128.838 167.736 129.11 167.832C129.382 167.928 129.657 167.976 129.934 167.976C130.228 167.976 130.502 167.931 130.758 167.84C131.014 167.749 131.222 167.616 131.382 167.44C131.548 167.259 131.63 167.043 131.63 166.792C131.63 166.525 131.54 166.317 131.358 166.168C131.182 166.013 130.958 165.893 130.686 165.808C130.42 165.717 130.148 165.632 129.87 165.552C129.321 165.413 128.83 165.248 128.398 165.056C127.966 164.859 127.625 164.611 127.374 164.312C127.129 164.008 127.006 163.621 127.006 163.152C127.006 162.656 127.142 162.227 127.414 161.864C127.692 161.501 128.054 161.221 128.502 161.024C128.95 160.827 129.43 160.728 129.942 160.728C130.588 160.728 131.177 160.867 131.71 161.144C132.244 161.421 132.641 161.797 132.902 162.272L131.822 162.904C131.732 162.712 131.593 162.544 131.406 162.4C131.22 162.251 131.006 162.133 130.766 162.048C130.526 161.963 130.281 161.917 130.03 161.912C129.721 161.901 129.43 161.941 129.158 162.032C128.892 162.123 128.676 162.261 128.51 162.448C128.35 162.629 128.27 162.856 128.27 163.128C128.27 163.395 128.356 163.597 128.526 163.736C128.702 163.875 128.929 163.987 129.206 164.072C129.489 164.152 129.796 164.245 130.126 164.352C130.612 164.507 131.065 164.685 131.486 164.888C131.908 165.091 132.246 165.344 132.502 165.648C132.764 165.952 132.892 166.328 132.886 166.776C132.886 167.267 132.74 167.696 132.446 168.064C132.153 168.427 131.772 168.704 131.302 168.896C130.838 169.088 130.34 169.173 129.806 169.152ZM134.347 161H135.691V169H134.347V161ZM135.035 159.696C134.822 159.696 134.643 159.627 134.499 159.488C134.355 159.349 134.283 159.176 134.283 158.968C134.283 158.76 134.355 158.587 134.499 158.448C134.643 158.309 134.819 158.24 135.027 158.24C135.235 158.24 135.411 158.309 135.555 158.448C135.699 158.587 135.771 158.76 135.771 158.968C135.771 159.176 135.699 159.349 135.555 159.488C135.417 159.627 135.243 159.696 135.035 159.696Z" fill="#222222"/>
</svg>
